<?xml version="1.0" standalone="no"?>
<!DOCTYPE svg PUBLIC "-//W3C//DTD SVG 1.1//EN" "http://www.w3.org/Graphics/SVG/1.1/DTD/svg11.dtd" >
<svg xmlns="http://www.w3.org/2000/svg" xmlns:xlink="http://www.w3.org/1999/xlink" version="1.1">
<metadata>
Created by FontForge 20200427 at Wed Oct 11 01:39:57 2017
 By www
Copyright (c) 2014 by Ben Nathan. All rights reserved.
</metadata>
<defs>
<font id="Cooperative-Regular" horiz-adv-x="420" >
  <font-face 
    font-family="Cooperative"
    font-weight="400"
    font-stretch="normal"
    units-per-em="1000"
    panose-1="0 0 5 0 0 0 0 0 0 0"
    ascent="800"
    descent="-200"
    x-height="772"
    cap-height="772"
    bbox="-453 -325 1279 1084"
    underline-thickness="50"
    underline-position="-100"
    unicode-range="U+0020-FB4B"
  />
<missing-glyph horiz-adv-x="500" 
d="M410 800v-1000h-317v1000h317zM333 733h-165v-33h65v-37h-66v-33h166v33h-66v37h66v33zM267 604h-100v-104h166v34h-66v70zM233 570v-36h-33v36h33zM333 473h-166v-33h66v-37h-66v-33h100v70h66v33zM333 413h-33v-66h-133v-34h166v100zM333 291h-100v-56h34v23h33v-47
h-100v80h-33v-113h166v113zM333 118h-166v-113h166v113zM300 85v-47h-100v47h100zM333 -18h-166v-33h70l-70 -47v-33h166v33h-102l70 47h32v33z" />
    <glyph glyph-name=".notdef" horiz-adv-x="500" 
d="M410 800v-1000h-317v1000h317zM333 733h-165v-33h65v-37h-66v-33h166v33h-66v37h66v33zM267 604h-100v-104h166v34h-66v70zM233 570v-36h-33v36h33zM333 473h-166v-33h66v-37h-66v-33h100v70h66v33zM333 413h-33v-66h-133v-34h166v100zM333 291h-100v-56h34v23h33v-47
h-100v80h-33v-113h166v113zM333 118h-166v-113h166v113zM300 85v-47h-100v47h100zM333 -18h-166v-33h70l-70 -47v-33h166v33h-102l70 47h32v33z" />
    <glyph glyph-name=".null" horiz-adv-x="0" 
 />
    <glyph glyph-name="nonmarkingreturn" horiz-adv-x="333" 
 />
    <glyph glyph-name="space" unicode=" " horiz-adv-x="163" 
 />
    <glyph glyph-name="exclam" unicode="!" horiz-adv-x="220" 
d="M164 772q13 0 13 -27v-169l-26 -381h-72l-26 382v168q0 10 0.5 14.5t3.5 8.5t9 4h98zM164 103v-103h-102v103h102z" />
    <glyph glyph-name="quotedbl" unicode="&#x22;" horiz-adv-x="303" 
d="M134 772v-122l-43 -60h-16h-2v59q0 9 -5.5 14.5t-10.5 6.5h-5h-21v102h103zM272 772v-122l-43 -60h-16h-1v20.5v25v13.5q0 9 -5.5 14.5t-10.5 6.5h-6h-21v102h103z" />
    <glyph glyph-name="numbersign" unicode="#" horiz-adv-x="715" 
d="M556 452l-32 -159h105l-18 -85h-105l-43 -208l-3 -1v1h-102l42 208h-140l-44 -208h-105l44 208h-112l16 85h114l34 159h-124l16 85h126l43 203h104l-43 -203h140l43 203h104l-43 -203h97l-19 -85h-95zM452 452h-140l-34 -159h141z" />
    <glyph glyph-name="dollar" unicode="$" horiz-adv-x="403" 
d="M150 602q0 -29 32 -83.5t70.5 -106.5t70.5 -113.5t32 -101.5v-37q0 -66 -26.5 -105.5t-74.5 -48.5v-66h-101v65q-48 6 -76 39t-28 86v57h101v-44q0 -22 13 -37t32 -15h12q21 0 34 23t13 46v21q0 29 -32 84t-70.5 107t-70.5 113.5t-32 102.5v22q0 66 27.5 105.5t76.5 47.5
v67h101v-67q45 -7 73 -39.5t28 -83.5v-57h-101v44q0 22 -13.5 37t-32.5 15h-12q-21 0 -33.5 -23t-12.5 -46v-8z" />
    <glyph glyph-name="percent" unicode="%" horiz-adv-x="975" 
d="M359 430q0 -35 -25 -70t-64 -35h-123q-39 0 -64.5 35t-25.5 70v204q0 36 25.5 71t64.5 35h123q39 0 64 -35t25 -71v-204zM291 0h-115l478 736l1 4h116l-477 -735zM259 638q0 13 -10 22.5t-23 9.5h-37q-12 0 -22 -9.5t-10 -22.5v-212q0 -12 10 -21.5t22 -9.5h37
q13 0 23 9.5t10 21.5v212zM800 415q39 0 64 -35t25 -71v-204q0 -36 -25 -70.5t-64 -34.5h-124q-39 0 -64.5 35t-25.5 70v204q0 36 25.5 71t64.5 35h124zM788 313q0 13 -9.5 22.5t-23.5 9.5h-36q-13 0 -22 -9.5t-9 -22.5v-212q0 -12 9 -21.5t22 -9.5h36q14 0 23.5 9.5
t9.5 21.5v212z" />
    <glyph glyph-name="ampersand" unicode="&#x26;" horiz-adv-x="597" 
d="M534 26q4 -6 5.5 -13.5t0.5 -12t-2 -4.5h-69q-5 0 -27 27q-23 26 -57 -13q-45 -30 -117 -30q-107 0 -161.5 62.5t-54.5 159.5q0 57 31.5 109.5t79.5 90.5q8 5 11.5 12t4 12t-3 13t-5.5 11.5t-8 11.5l-5 7q-46 73 -46 146q1 70 48 114.5t113 44.5q63 0 110.5 -51.5
t47.5 -123.5q0 -56 -19.5 -92t-68.5 -84q-33 -25 -26 -42l60 -100q38 -72 65 -55q18 12 18 54l1 7h72q1 0 1 -4v-18q0 -61 -38 -115q1 0 -5 -8t-9 -19.5t5 -26.5zM248 473q17 -25 55 18q18 20 27 40.5t10.5 32.5t1.5 33q0 27 -17.5 53.5t-52.5 26.5q-34 0 -55 -27t-21 -52
q0 -29 19 -65zM183 300q-36 -44 -36 -100t32.5 -93t92.5 -37q36 0 66 20q1 1 6.5 4.5t7.5 4.5t6.5 4.5t6 5.5l4.5 6t3 7v7t-2 8.5t-6 9.5l-105 166q-26 47 -76 -13z" />
    <glyph glyph-name="quotesingle" unicode="'" horiz-adv-x="216" 
d="M160 772v-122l-43 -60h-16h-2v59q0 9 -5.5 14.5t-10.5 6.5h-5h-21v102h103z" />
    <glyph glyph-name="parenleft" unicode="(" horiz-adv-x="334" 
d="M299 -52h-91q-98 191 -98 438.5t98 437.5h91q-97 -190 -97 -437.5t97 -438.5z" />
    <glyph glyph-name="parenright" unicode=")" horiz-adv-x="267" 
d="M35 -52q97 190 97 438t-97 438h91q98 -190 98 -437.5t-98 -438.5h-91z" />
    <glyph glyph-name="asterisk" unicode="*" horiz-adv-x="481" 
d="M424 625q6 -12 -7 -20l-118 -40l70 -102q5 -13 -5 -20l-34 -23q-7 -3 -17 4l-72 95l-75 -95q-11 -7 -22 -1l-26 18q-12 10 -4 22l67 102l-115 41q-11 4 -7 20l16 38q3 5 13 3l117 -31l3 120q0 4 5.5 9.5t8.5 5.5h35q15 0 15 -15l6 -120l119 31q11 2 18 -10z" />
    <glyph glyph-name="plus" unicode="+" horiz-adv-x="550" 
d="M311 371v-184h-85v184h-186v84h186v183h85v-183h182v-84h-182z" />
    <glyph glyph-name="comma" unicode="," horiz-adv-x="216" 
d="M160 103v-123l-43 -59h-16h-2q1 8 1 19.5t-0.5 24t-0.5 14.5q0 9 -5.5 14.5t-10.5 6.5h-5h-21v103h103z" />
    <glyph glyph-name="hyphen" unicode="-" horiz-adv-x="330" 
d="M290 387h-250v85h250v-85z" />
    <glyph glyph-name="period" unicode="." horiz-adv-x="215" 
d="M157 103v-103h-100v103h100z" />
    <glyph glyph-name="slash" unicode="/" horiz-adv-x="429" 
d="M363 772q18 0 6 -32l-240 -750q-1 -3 -2.5 -8t-2.5 -7.5t-3 -5t-5 -2.5h-46q-10 0 -13.5 10t2.5 24l240 750q1 2 2 6t2 5.5t2 4t2.5 3t4 1.5t5.5 1h46z" />
    <glyph glyph-name="zero" unicode="0" horiz-adv-x="423" 
d="M290 772q39 0 63.5 -34.5t24.5 -70.5v-562q0 -35 -24.5 -70t-63.5 -35h-156q-39 0 -64.5 35t-25.5 70v562q0 36 25.5 70.5t64.5 34.5h156zM278 655q0 12 -9.5 21.5t-22.5 9.5h-70q-12 0 -22 -9.5t-10 -21.5v-538q0 -12 10 -21.5t22 -9.5h70q13 0 22.5 9.5t9.5 21.5v538z
" />
    <glyph glyph-name="one" unicode="1" horiz-adv-x="325" 
d="M294 86v-86h-250v86h80v568v2q0 24 -16 24q-10 0 -77 -38v83l87 47h95q12 0 12 -8v-678h69z" />
    <glyph glyph-name="two" unicode="2" horiz-adv-x="372" 
d="M339 85v-85h-266q-17 0 -25 8.5t-8 31.5v42q0 91 7 124.5t31 66.5l135 195q26 38 26 86v80q0 22 -13.5 37t-34.5 15h-13q-19 0 -32 -15t-13 -37v-44h-100v57q0 59 33 92t91 33h59q58 0 90.5 -35t32.5 -103v-78q0 -72 -37 -127l-132 -190q-28 -43 -28 -86v-36
q0 -32 32 -32h165z" />
    <glyph glyph-name="three" unicode="3" horiz-adv-x="381" 
d="M337 512q0 -45 -22.5 -74t-42.5 -38q17 -3 41 -33.5t24 -75.5v-153q0 -67 -33.5 -102.5t-90.5 -35.5h-57q-58 0 -91.5 33t-33.5 92v57h100v-44q0 -22 13.5 -37t32.5 -15h12q20 0 33 15t13 37v162q0 20 -10 39.5t-31 19.5h-56v87h56q21 0 31 20.5t10 39.5v128q0 22 -13 37
t-33 15h-12q-19 0 -32.5 -15t-13.5 -37v-44h-100v57q0 59 33.5 92t91.5 33h57q57 0 90.5 -35t33.5 -103v-122z" />
    <glyph glyph-name="four" unicode="4" horiz-adv-x="406" 
d="M378 220v-86h-45v-134h-100v134h-199v78q0 27 9 45l147 515h132q11 0 11 -8v-544h45zM233 640l-103 -420h103v420z" />
    <glyph glyph-name="five" unicode="5" horiz-adv-x="395" 
d="M342 772v-84h-165q-33 0 -33 -33v-141q25 45 87 45q57 0 88.5 -34.5t31.5 -103.5v-283q0 -68 -32.5 -103t-90.5 -35h-59q-58 0 -91.5 33t-33.5 92v25h100v-12q0 -22 13.5 -37t32.5 -15h13q21 0 34.5 15t13.5 37v283q0 22 -13.5 37t-34.5 15h-12q-20 0 -33.5 -15
t-13.5 -37v-13h-100v324q0 26 6.5 33t26.5 7h265z" />
    <glyph glyph-name="six" unicode="6" horiz-adv-x="395" 
d="M229 520q58 0 90 -35t32 -103v-242q0 -68 -33 -104t-90 -36h-59q-58 0 -91.5 34t-33.5 93v507q0 68 33 103t91 35h58q58 0 91.5 -33t33.5 -92v-9h-100q0 21 -9.5 34.5t-26.5 13.5h-23q-21 0 -34.5 -15t-13.5 -37v-159q25 45 85 45zM251 382q0 23 -13.5 37.5t-34.5 14.5
h-13q-20 0 -33 -12.5t-13 -35.5v-251q0 -23 13 -36t33 -13h13q21 0 34.5 13t13.5 36v247z" />
    <glyph glyph-name="seven" unicode="7" horiz-adv-x="359" 
d="M31 772h298v-69q0 -21 -17 -91l-133 -612h-101l143 647q10 41 -22 41h-168v84z" />
    <glyph glyph-name="eight" unicode="8" horiz-adv-x="416" 
d="M248 772q58 0 91 -35t33 -103v-122q0 -45 -22.5 -74.5t-42.5 -37.5q18 -3 41.5 -33.5t23.5 -75.5v-153q0 -68 -33 -103t-91 -35h-80q-58 0 -91 35t-33 103v153q0 45 23.5 75.5t41.5 33.5q-20 8 -42.5 37.5t-22.5 74.5v122q0 68 33 103t91 35h80zM272 634q0 22 -13.5 37
t-33.5 15h-33q-21 0 -34.5 -15t-13.5 -37v-128q0 -19 11 -39.5t32 -20.5h42q21 0 32 20.5t11 39.5v128zM272 300q0 19 -11 39t-32 20h-42q-21 0 -32 -20t-11 -39v-162q0 -22 13.5 -37t34.5 -15h33q20 0 33.5 15t13.5 37v162z" />
    <glyph glyph-name="nine" unicode="9" horiz-adv-x="395" 
d="M166 252q-57 0 -89.5 35t-32.5 103v242q0 68 33 104t91 36h58q58 0 91.5 -34t33.5 -93v-507q0 -68 -32.5 -103t-90.5 -35h-59q-58 0 -91.5 33t-33.5 92v9h100q0 -21 10 -34.5t27 -13.5h22q21 0 34.5 15t13.5 37v160q-25 -46 -85 -46zM144 390q0 -23 13.5 -37.5
t34.5 -14.5h13q20 0 33 12.5t13 35.5v251q0 23 -13 36t-33 13h-13q-21 0 -34.5 -13t-13.5 -36v-247z" />
    <glyph glyph-name="colon" unicode=":" horiz-adv-x="215" 
d="M157 497v-103h-100v103h100zM157 86v-103h-100v103h100z" />
    <glyph glyph-name="semicolon" unicode=";" horiz-adv-x="216" 
d="M158 497v-103h-100v103h100zM160 86v-123l-43 -59h-16h-2q1 8 1 19.5t-0.5 24t-0.5 14.5q0 9 -5.5 14.5t-10.5 5.5l-5 1h-21v103h103z" />
    <glyph glyph-name="less" unicode="&#x3c;" horiz-adv-x="485" 
d="M423 157l-72 -69l-292 290l292 293l72 -72l-221 -221z" />
    <glyph glyph-name="equal" unicode="=" horiz-adv-x="550" 
d="M40 436v84h453v-84h-453zM493 241h-453v84h453v-84z" />
    <glyph glyph-name="greater" unicode="&#x3e;" horiz-adv-x="482" 
d="M134 88l-72 69l221 221l-221 224l72 69l292 -293z" />
    <glyph glyph-name="question" unicode="?" horiz-adv-x="416" 
d="M238 772q57 0 90 -35t33 -103v-130q0 -43 -12 -72.5t-29.5 -46t-34.5 -32.5t-29 -43t-12 -66v-49h-101v65q0 47 18.5 81.5t40 52.5t40 50t18.5 75v115q0 22 -13 37t-34 15h-11q-19 0 -32.5 -15t-13.5 -37v-44h-100v57q0 59 33.5 92t91.5 33h57zM244 103v-103h-101v103
h101z" />
    <glyph glyph-name="at" unicode="@" horiz-adv-x="781" 
d="M57 527q0 126 88 209.5t249 83.5q156 0 243.5 -84t87.5 -209v-281q0 -55 -37 -93.5t-91 -40.5q-32 -1 -71.5 13.5t-56.5 44.5q-6 -12 -23 -23q-37 -25 -107 -25q-48 0 -88.5 35t-40.5 89v38q0 146 200 146q27 4 27 35v41q0 40 -50 40q-52 0 -52 -49v-20q0 -4 -1.5 -4.5
t-16.5 -0.5h-66q-18 0 -18 5v23q0 58 45 101t116 43q68 0 112.5 -43t44.5 -103v-246q0 -22 11.5 -37.5t32.5 -15.5q43 0 43 75v233q0 104 -63.5 166t-180.5 62q-120 0 -186 -62t-66 -166v-256q0 -220 235 -220h95q17 0 17 -35v-14q0 -17 -5.5 -26t-11.5 -9h-95
q-158 0 -239 79t-81 205v296zM437 317q0 16 -10.5 24t-20 9t-25.5 1q-17 0 -27 -1.5t-19.5 -10t-9.5 -24.5v-52q0 -20 15 -32t38 -12q59 0 59 45v53z" />
    <glyph glyph-name="A" unicode="A" horiz-adv-x="410" 
d="M233 772q15 0 20 -2.5t7 -14.5l125 -755h-100l-17 121h-126l-17 -121h-100l125 755q2 12 7 14.5t25 2.5h51zM254 207l-49 424l-49 -424h98z" />
    <glyph glyph-name="B" unicode="B" horiz-adv-x="419" 
d="M239 772q57 0 90.5 -35t33.5 -103v-76q0 -45 -23 -74.5t-42 -37.5q18 -5 41.5 -35t23.5 -74v-199q0 -67 -33.5 -102.5t-90.5 -35.5h-122q-47 0 -53.5 7t-6.5 53v652q0 46 6.5 53t53.5 7h122zM261 634q0 22 -13 37t-33 15h-12h-5h-5.5t-6 -0.5t-7 -1.5t-6.5 -2.5
t-6.5 -4.5t-5 -6.5t-3.5 -9t-1 -11.5v-159h63q21 0 31 20.5t10 39.5v83zM261 346q0 19 -10 38.5t-31 19.5h-63v-282q0 -6 1 -11.5t3.5 -9t5 -6.5t6.5 -4.5t6.5 -2.5t7 -1.5t6 -0.5h5.5h5h12q20 0 33 15t13 37v208z" />
    <glyph glyph-name="C" unicode="C" horiz-adv-x="403" 
d="M261 182h102v-57q0 -59 -34 -92t-91 -33h-57q-58 0 -91 35t-33 103v496q0 68 33 103t91 35h57q57 0 91 -33t34 -92v-57h-102v44q0 22 -13 37t-32 15h-11q-21 0 -34.5 -15t-13.5 -37v-496q0 -22 13.5 -37t34.5 -15h11q19 0 32 15t13 37v44z" />
    <glyph glyph-name="D" unicode="D" 
d="M239 772q57 0 90.5 -35t33.5 -103v-496q0 -67 -33.5 -102.5t-90.5 -35.5h-122q-47 0 -53.5 7t-6.5 53v652q0 46 6.5 53t53.5 7h122zM261 634q0 22 -13 37t-33 15h-12h-5h-5.5t-6 -0.5t-7 -1.5t-6.5 -2.5t-6.5 -4.5t-5 -6.5t-3.5 -9t-1 -11.5v-528q0 -6 1 -11.5t3.5 -9
t5 -6.5t6.5 -4.5t6.5 -2.5t7 -1.5t6 -0.5h5.5h5h12q20 0 33 15t13 37v496z" />
    <glyph glyph-name="E" unicode="E" horiz-adv-x="345" 
d="M320 85v-85h-230q-20 0 -26.5 7t-6.5 33v692q0 26 6.5 33t26.5 7h230v-84h-130q-33 0 -33 -33v-183h147v-87h-147v-268q0 -32 33 -32h130z" />
    <glyph glyph-name="F" unicode="F" horiz-adv-x="361" 
d="M337 772v-84h-151q-14 0 -21.5 -9t-7.5 -19v-188h123v-87h-123v-385h-100v764q0 8 8 8h272z" />
    <glyph glyph-name="G" unicode="G" horiz-adv-x="410" 
d="M244 772q58 0 91.5 -33t33.5 -92v-57h-101v44q0 22 -13.5 37t-32.5 15h-17q-21 0 -34.5 -15t-13.5 -37v-496q0 -22 13.5 -37t34.5 -15h17q46 0 46 52v194h-40v70h141v-402h-1l-43 49q-40 -49 -94 -49h-50q-58 0 -91 35t-33 103v496q0 68 33 103t91 35h63z" />
    <glyph glyph-name="H" unicode="H" horiz-adv-x="439" 
d="M281 772h101v-772h-101v402h-124v-402h-100v772h100v-284h124v284z" />
    <glyph glyph-name="I" unicode="I" horiz-adv-x="215" 
d="M57 772h100v-772h-100v772z" />
    <glyph glyph-name="J" unicode="J" horiz-adv-x="387" 
d="M231 772h101v-634q0 -67 -33.5 -102.5t-90.5 -35.5h-57q-58 0 -91.5 33t-33.5 92v57h100v-44q0 -22 13.5 -37t32.5 -15h13q20 0 33 15t13 37v634z" />
    <glyph glyph-name="K" unicode="K" horiz-adv-x="429" 
d="M264 455l140 -455h-97l-99 325l-51 -113v-212h-100v772h100v-333l142 333h99z" />
    <glyph glyph-name="L" unicode="L" horiz-adv-x="352" 
d="M157 772v-660q0 -10 7.5 -18.5t21.5 -8.5h151v-85h-272q-8 0 -8 8v764h100z" />
    <glyph glyph-name="M" unicode="M" horiz-adv-x="572" 
d="M515 772v-772h-100v537l-109 -360h-52l-94 377v-554h-103v772h124l99 -429l111 429h124z" />
    <glyph glyph-name="N" unicode="N" horiz-adv-x="439" 
d="M382 772v-772h-97v181l-128 232v-413h-100v772h100v-174l124 -239v413h101z" />
    <glyph glyph-name="O" unicode="O" horiz-adv-x="365" 
d="M208 772q58 0 91.5 -33t33.5 -92v-522q0 -59 -33.5 -92t-91.5 -33h-52q-58 0 -90.5 35t-32.5 103v496q0 68 32.5 103t90.5 35h52zM233 634q0 22 -13.5 37t-32.5 15h-6q-21 0 -34.5 -15t-13.5 -37v-496q0 -22 13.5 -37t34.5 -15h6q19 0 32.5 15t13.5 37v496z" />
    <glyph glyph-name="P" unicode="P" horiz-adv-x="389" 
d="M241 771q58 0 90.5 -35.5t32.5 -103.5v-243q0 -68 -32.5 -103t-90.5 -35h-84v-251h-100v758v12.5t12 0.5h172zM264 632q0 23 -13.5 37.5t-34.5 14.5h-59v-347h59q21 0 34.5 14.5t13.5 37.5v243z" />
    <glyph glyph-name="Q" unicode="Q" horiz-adv-x="433" 
d="M404 62l-46 23q-11 -40 -42.5 -62.5t-77.5 -22.5h-57q-58 0 -91 35t-33 103v496q0 68 33 103t91 35h57q57 0 91 -33t34 -92v-483l41 -21v-81zM216 86q17 0 30.5 13t14.5 32l-43 22v80l43 -21v422q0 22 -13 37t-32 15h-11q-21 0 -34.5 -15t-13.5 -37v-496q0 -22 13.5 -37
t34.5 -15h11z" />
    <glyph glyph-name="R" unicode="R" horiz-adv-x="408" 
d="M376 0h-99l-75 311h-45v-311h-100v712q0 46 6.5 53t53.5 7h122q57 0 90.5 -35t33.5 -103v-187q0 -71 -68 -113zM220 381q21 0 31 20.5t10 39.5v193q0 22 -13 37t-33 15h-12h-5h-5.5t-6 -0.5t-7 -1.5t-6.5 -2.5t-6.5 -4.5t-5 -6.5t-3.5 -9t-1 -11.5v-269h63z" />
    <glyph glyph-name="S" unicode="S" horiz-adv-x="371" 
d="M134 593q0 -29 32 -80t70 -99.5t70 -106.5t32 -99v-53q0 -70 -34 -112.5t-89 -42.5h-58q-57 0 -90.5 33t-33.5 92v57h101v-44q0 -22 13 -37t32 -15h11q21 0 34.5 23t13.5 46v37q0 29 -32 80.5t-70.5 100t-70.5 107t-32 99.5v39q0 69 34 111.5t89 42.5h57q58 0 91.5 -33
t33.5 -92v-74h-100v61q0 22 -13.5 37t-32.5 15h-11q-21 0 -34 -22.5t-13 -45.5v-25z" />
    <glyph glyph-name="T" unicode="T" horiz-adv-x="368" 
d="M343 772v-84h-79q-6 0 -11 -1.5t-7.5 -4.5t-4.5 -5.5t-2.5 -6.5t-0.5 -6v-6v-3v-655h-101v658q0 13 -7.5 20.5t-14.5 8.5l-7 1h-83v84h318z" />
    <glyph glyph-name="U" unicode="U" 
d="M264 772h99v-634q0 -67 -33.5 -102.5t-90.5 -35.5h-57q-58 0 -91.5 33t-33.5 92v647h100v-634q0 -22 13.5 -37t32.5 -15h13q21 0 34.5 15t13.5 37v634z" />
    <glyph glyph-name="V" unicode="V" horiz-adv-x="410" 
d="M385 772l-108 -755q-2 -12 -7.5 -14.5t-21.5 -2.5h-82q-20 0 -25.5 2.5t-6.5 14.5l-109 755h100l80 -682l80 682h100z" />
    <glyph glyph-name="W" unicode="W" horiz-adv-x="653" 
d="M603 772l-76 -721q-5 -38 -10 -44.5t-35 -6.5h-50q-31 0 -37.5 6t-9.5 33q0 8 -1 12l-65 534l-67 -533q-5 -38 -10 -45t-34 -7h-51q-33 0 -39 6.5t-9 44.5l-76 721h98l46 -634l86 634h109l86 -634l45 634h100z" />
    <glyph glyph-name="X" unicode="X" horiz-adv-x="397" 
d="M247 387l125 -387h-97l-76 236l-77 -236h-97l125 387l-125 385h98l76 -234l75 234h98z" />
    <glyph glyph-name="Y" unicode="Y" 
d="M291 772h98l-128 -307v-465h-100v456l-128 316h97l79 -208z" />
    <glyph glyph-name="Z" unicode="Z" horiz-adv-x="372" 
d="M338 85v-85h-305v78q0 16 6 27l186 537q6 14 0 30t-26 16h-151v84h291v-69q0 -18 -4 -33l-204 -585h207z" />
    <glyph glyph-name="bracketleft" unicode="[" horiz-adv-x="312" 
d="M64 828h208v-84h-90q-11 0 -17.5 -6t-6.5 -12l-1 -7v-671q0 -21 20 -21h95v-84h-208q-9 0 -9 8v869q0 8 9 8z" />
    <glyph glyph-name="backslash" unicode="\" horiz-adv-x="346" 
d="M17 772h45q3 0 5.5 -1t4 -1.5t2.5 -3t1.5 -4t1.5 -5.5t2 -6l241 -750q6 -14 2.5 -24t-13.5 -10h-45q-3 0 -5 1t-3 4t-2 5t-1.5 6.5t-1.5 6.5l-241 750q-11 32 7 32z" />
    <glyph glyph-name="bracketright" unicode="]" horiz-adv-x="312" 
d="M248 828q9 0 9 -8v-869q0 -8 -9 -8h-208v84h95q9 0 14 5.5t5 10.5l1 5v671q0 25 -25 25h-90v84h208z" />
    <glyph glyph-name="asciicircum" unicode="^" horiz-adv-x="707" 
d="M645 540l-69 -72l-221 221l-221 -221l-72 72l290 293l3 -1z" />
    <glyph glyph-name="underscore" unicode="_" horiz-adv-x="330" 
d="M33 -33q2 0 4.5 3t2.5 5v-8h-7zM290 -25q0 -1 1 -3t1 -4l1 -1h-3v8zM290 -33v-85h-250v85h250zM40 -127q0 2 -2.5 5.5t-4.5 3.5h7v-9zM293 -118l-1 -2q0 -1 -1 -3.5t-1 -3.5v9h3z" />
    <glyph glyph-name="grave" unicode="`" horiz-adv-x="231" 
d="M179 534q-1 0 -13 -0.5t-24 -0.5h-5l-81 138h81z" />
    <glyph glyph-name="a" unicode="a" horiz-adv-x="410" 
d="M233 772q15 0 20 -2.5t7 -14.5l125 -755h-100l-17 121h-126l-17 -121h-100l125 755q2 12 7 14.5t25 2.5h51zM254 207l-49 424l-49 -424h98z" />
    <glyph glyph-name="b" unicode="b" horiz-adv-x="419" 
d="M239 772q57 0 90.5 -35t33.5 -103v-76q0 -45 -23 -74.5t-42 -37.5q18 -5 41.5 -35t23.5 -74v-199q0 -67 -33.5 -102.5t-90.5 -35.5h-122q-47 0 -53.5 7t-6.5 53v652q0 46 6.5 53t53.5 7h122zM261 634q0 22 -13 37t-33 15h-12h-5h-5.5t-6 -0.5t-7 -1.5t-6.5 -2.5
t-6.5 -4.5t-5 -6.5t-3.5 -9t-1 -11.5v-159h63q21 0 31 20.5t10 39.5v83zM261 346q0 19 -10 38.5t-31 19.5h-63v-282q0 -6 1 -11.5t3.5 -9t5 -6.5t6.5 -4.5t6.5 -2.5t7 -1.5t6 -0.5h5.5h5h12q20 0 33 15t13 37v208z" />
    <glyph glyph-name="c" unicode="c" horiz-adv-x="403" 
d="M261 182h102v-57q0 -59 -34 -92t-91 -33h-57q-58 0 -91 35t-33 103v496q0 68 33 103t91 35h57q57 0 91 -33t34 -92v-57h-102v44q0 22 -13 37t-32 15h-11q-21 0 -34.5 -15t-13.5 -37v-496q0 -22 13.5 -37t34.5 -15h11q19 0 32 15t13 37v44z" />
    <glyph glyph-name="d" unicode="d" 
d="M239 772q57 0 90.5 -35t33.5 -103v-496q0 -67 -33.5 -102.5t-90.5 -35.5h-122q-47 0 -53.5 7t-6.5 53v652q0 46 6.5 53t53.5 7h122zM261 634q0 22 -13 37t-33 15h-12h-5h-5.5t-6 -0.5t-7 -1.5t-6.5 -2.5t-6.5 -4.5t-5 -6.5t-3.5 -9t-1 -11.5v-528q0 -6 1 -11.5t3.5 -9
t5 -6.5t6.5 -4.5t6.5 -2.5t7 -1.5t6 -0.5h5.5h5h12q20 0 33 15t13 37v496z" />
    <glyph glyph-name="e" unicode="e" horiz-adv-x="345" 
d="M320 85v-85h-230q-20 0 -26.5 7t-6.5 33v692q0 26 6.5 33t26.5 7h230v-84h-130q-33 0 -33 -33v-183h147v-87h-147v-268q0 -32 33 -32h130z" />
    <glyph glyph-name="f" unicode="f" horiz-adv-x="361" 
d="M337 772v-84h-151q-14 0 -21.5 -9t-7.5 -19v-188h123v-87h-123v-385h-100v764q0 8 8 8h272z" />
    <glyph glyph-name="g" unicode="g" horiz-adv-x="410" 
d="M244 772q58 0 91.5 -33t33.5 -92v-57h-101v44q0 22 -13.5 37t-32.5 15h-17q-21 0 -34.5 -15t-13.5 -37v-496q0 -22 13.5 -37t34.5 -15h17q46 0 46 52v194h-40v70h141v-402h-1l-43 49q-40 -49 -94 -49h-50q-58 0 -91 35t-33 103v496q0 68 33 103t91 35h63z" />
    <glyph glyph-name="h" unicode="h" horiz-adv-x="439" 
d="M281 772h101v-772h-101v402h-124v-402h-100v772h100v-284h124v284z" />
    <glyph glyph-name="i" unicode="i" horiz-adv-x="215" 
d="M57 772h100v-772h-100v772z" />
    <glyph glyph-name="j" unicode="j" horiz-adv-x="387" 
d="M231 772h101v-634q0 -67 -33.5 -102.5t-90.5 -35.5h-57q-58 0 -91.5 33t-33.5 92v57h100v-44q0 -22 13.5 -37t32.5 -15h13q20 0 33 15t13 37v634z" />
    <glyph glyph-name="k" unicode="k" horiz-adv-x="429" 
d="M264 455l140 -455h-97l-99 325l-51 -113v-212h-100v772h100v-333l142 333h99z" />
    <glyph glyph-name="l" unicode="l" horiz-adv-x="352" 
d="M157 772v-660q0 -10 7.5 -18.5t21.5 -8.5h151v-85h-272q-8 0 -8 8v764h100z" />
    <glyph glyph-name="m" unicode="m" horiz-adv-x="572" 
d="M515 772v-772h-100v537l-109 -360h-52l-94 377v-554h-103v772h124l99 -429l111 429h124z" />
    <glyph glyph-name="n" unicode="n" horiz-adv-x="439" 
d="M382 772v-772h-97l-128 517v-517h-100v772h100l124 -504v504h101z" />
    <glyph glyph-name="o" unicode="o" horiz-adv-x="365" 
d="M208 772q58 0 91.5 -33t33.5 -92v-522q0 -59 -33.5 -92t-91.5 -33h-52q-58 0 -90.5 35t-32.5 103v496q0 68 32.5 103t90.5 35h52zM233 634q0 22 -13.5 37t-32.5 15h-6q-21 0 -34.5 -15t-13.5 -37v-496q0 -22 13.5 -37t34.5 -15h6q19 0 32.5 15t13.5 37v496z" />
    <glyph glyph-name="p" unicode="p" horiz-adv-x="389" 
d="M241 771q58 0 90.5 -35.5t32.5 -103.5v-243q0 -68 -32.5 -103t-90.5 -35h-84v-251h-100v758v12.5t12 0.5h172zM264 632q0 23 -13.5 37.5t-34.5 14.5h-59v-347h59q21 0 34.5 14.5t13.5 37.5v243z" />
    <glyph glyph-name="q" unicode="q" horiz-adv-x="433" 
d="M404 62l-46 23q-11 -40 -42.5 -62.5t-77.5 -22.5h-57q-58 0 -91 35t-33 103v496q0 68 33 103t91 35h57q57 0 91 -33t34 -92v-483l41 -21v-81zM216 86q17 0 30.5 13t14.5 32l-43 22v80l43 -21v422q0 22 -13 37t-32 15h-11q-21 0 -34.5 -15t-13.5 -37v-496q0 -22 13.5 -37
t34.5 -15h11z" />
    <glyph glyph-name="r" unicode="r" horiz-adv-x="408" 
d="M376 0h-99l-75 311h-45v-311h-100v712q0 46 6.5 53t53.5 7h122q57 0 90.5 -35t33.5 -103v-187q0 -71 -68 -113zM220 381q21 0 31 20.5t10 39.5v193q0 22 -13 37t-33 15h-12h-5h-5.5t-6 -0.5t-7 -1.5t-6.5 -2.5t-6.5 -4.5t-5 -6.5t-3.5 -9t-1 -11.5v-269h63z" />
    <glyph glyph-name="s" unicode="s" horiz-adv-x="371" 
d="M134 593q0 -29 32 -80t70 -99.5t70 -106.5t32 -99v-53q0 -70 -34 -112.5t-89 -42.5h-58q-57 0 -90.5 33t-33.5 92v57h101v-44q0 -22 13 -37t32 -15h11q21 0 34.5 23t13.5 46v37q0 29 -32 80.5t-70.5 100t-70.5 107t-32 99.5v39q0 69 34 111.5t89 42.5h57q58 0 91.5 -33
t33.5 -92v-74h-100v61q0 22 -13.5 37t-32.5 15h-11q-21 0 -34 -22.5t-13 -45.5v-25z" />
    <glyph glyph-name="t" unicode="t" horiz-adv-x="368" 
d="M343 772v-84h-79q-6 0 -11 -1.5t-7.5 -4.5t-4.5 -5.5t-2.5 -6.5t-0.5 -6v-6v-3v-655h-101v658q0 13 -7.5 20.5t-14.5 8.5l-7 1h-83v84h318z" />
    <glyph glyph-name="u" unicode="u" 
d="M264 772h99v-634q0 -67 -33.5 -102.5t-90.5 -35.5h-57q-58 0 -91.5 33t-33.5 92v647h100v-634q0 -22 13.5 -37t32.5 -15h13q21 0 34.5 15t13.5 37v634z" />
    <glyph glyph-name="v" unicode="v" horiz-adv-x="410" 
d="M385 772l-108 -755q-2 -12 -7.5 -14.5t-21.5 -2.5h-82q-20 0 -25.5 2.5t-6.5 14.5l-109 755h100l80 -682l80 682h100z" />
    <glyph glyph-name="w" unicode="w" horiz-adv-x="653" 
d="M603 772l-76 -721q-5 -38 -10 -44.5t-35 -6.5h-50q-31 0 -37.5 6t-9.5 33q0 8 -1 12l-65 534l-67 -533q-5 -38 -10 -45t-34 -7h-51q-33 0 -39 6.5t-9 44.5l-76 721h98l46 -634l86 634h109l86 -634l45 634h100z" />
    <glyph glyph-name="x" unicode="x" horiz-adv-x="397" 
d="M247 387l125 -387h-97l-76 236l-77 -236h-97l125 387l-125 385h98l76 -234l75 234h98z" />
    <glyph glyph-name="y" unicode="y" 
d="M291 772h98l-128 -307v-465h-100v456l-128 316h97l79 -208z" />
    <glyph glyph-name="z" unicode="z" horiz-adv-x="372" 
d="M338 85v-85h-305v78q0 16 6 27l186 537q6 14 0 30t-26 16h-151v84h291v-69q0 -18 -4 -33l-204 -585h207z" />
    <glyph glyph-name="braceleft" unicode="{" horiz-adv-x="328" 
d="M229 806h66v-70q-66 0 -89.5 -56t-23.5 -176q0 -43 -19.5 -85.5t-51.5 -42.5q32 0 52.5 -48t20.5 -94q0 -114 25 -161.5t85 -47.5v-76h-70q-87 35 -115 117t-28 227q0 26 -13.5 40.5t-34.5 14.5v59q21 0 34.5 16.5t13.5 39.5q0 158 29 234t119 109z" />
    <glyph glyph-name="bar" unicode="|" horiz-adv-x="215" 
d="M157 -163h-100v1065h100v-1065z" />
    <glyph glyph-name="braceright" unicode="}" horiz-adv-x="328" 
d="M99 806q90 -33 119 -109t29 -234q0 -23 13.5 -39.5t34.5 -16.5v-59q-21 0 -34.5 -14.5t-13.5 -40.5q0 -145 -28 -227t-115 -117h-70v76q60 0 85 47.5t25 161.5q0 46 20.5 94t52.5 48q-32 0 -51.5 42.5t-19.5 85.5q0 120 -23.5 176t-89.5 56v70h66z" />
    <glyph glyph-name="asciitilde" unicode="~" horiz-adv-x="517" 
d="M57 430q77 32 132 32q23 0 78 -24.5t79 -24.5q42 0 114 29v-66l-4 -2q-70 -28 -121 -31q-17 0 -74 24t-82 24q-49 0 -122 -28v67z" />
    <glyph glyph-name="exclamdown" unicode="&#xa1;" horiz-adv-x="221" 
d="M57 659v103h102v-103h-102zM57 -10q-13 0 -13 27v169l26 381h72l26 -382v-168q0 -10 -0.5 -14.5t-3.5 -8.5t-9 -4h-98z" />
    <glyph glyph-name="yen" unicode="&#xa5;" horiz-adv-x="468" 
d="M330 740h98l-128 -307v-69h58v-86h-58v-60h58v-87h-58v-131h-100v131h-50v87h50v60h-50v86h50v60l-128 316h97l79 -208z" />
    <glyph glyph-name="brokenbar" unicode="&#xa6;" horiz-adv-x="215" 
d="M57 488v414h100v-414h-100zM57 252h100v-415h-100v415z" />
    <glyph glyph-name="section" unicode="&#xa7;" horiz-adv-x="428" 
d="M187 190q17 -20 73 -79.5t80 -97.5t24 -75q0 -68 -32.5 -103t-90.5 -35h-58q-57 0 -90.5 33t-33.5 92v57h101v-44q0 -22 13 -37t32 -15h11q31 0 43 26t2 49q-5 14 -36.5 50t-66 73.5t-65 88.5t-34.5 94q-10 87 29.5 131t93.5 44h39q-19 23 -57 64.5t-55.5 63t-33.5 53.5
t-16 60q0 67 33 102t90 35h57q58 0 91.5 -32.5t33.5 -91.5v-58h-100v45q0 22 -13.5 37t-32.5 15h-11q-31 0 -43 -25.5t-3 -47.5q6 -19 52.5 -67.5t93 -110t57.5 -116.5q25 -120 -49 -178q-42 -33 -83 -27q-24 4 -23 20zM160 304q0 -20 16.5 -36.5t36.5 -16.5t36 16.5
t16 36.5t-16.5 36t-35.5 16q-20 0 -36.5 -16t-16.5 -36z" />
    <glyph glyph-name="dieresis" unicode="&#xa8;" horiz-adv-x="397" 
d="M140 642v-86h-85v86h85zM342 642v-86h-85v86h85z" />
    <glyph glyph-name="copyright" unicode="&#xa9;" horiz-adv-x="494" 
d="M247 729q97 0 145.5 -59t48.5 -158q0 -98 -49 -158t-145 -60t-145 60.5t-49 157.5q0 98 49 157.5t145 59.5zM247 325q83 0 123 52t40 135q0 84 -39.5 135.5t-123.5 51.5q-82 0 -120.5 -51.5t-38.5 -135.5q0 -83 38.5 -135t120.5 -52zM265 634q31 0 49.5 -18.5t18.5 -49.5
v-19h-63v-7l-11 11l21 21q-10 21 -25 21h-9q-13 0 -21.5 -10.5t-8.5 -24.5v-89q0 -14 9 -23.5t21 -9.5h9q10 0 19 9.5t9 23.5v12h50v-21q0 -30 -18.5 -48t-49.5 -18h-32q-31 0 -49 19.5t-18 55.5v89q0 37 18 56.5t49 19.5h32z" />
    <glyph glyph-name="guillemotleft" unicode="&#xab;" horiz-adv-x="696" 
d="M170 378l188 -221l-39 -36l-260 257l260 260l40 -39zM447 378l187 -221l-39 -36l-260 257l260 260l41 -39z" />
    <glyph glyph-name="logicalnot" unicode="&#xac;" horiz-adv-x="857" 
d="M792 472q8 0 8 -9v-178h-101v74q0 10 -7.5 19t-20.5 9h-638v85h759z" />
    <glyph glyph-name="registered" unicode="&#xae;" horiz-adv-x="498" 
d="M247 729q97 0 145.5 -59t48.5 -158q0 -98 -49 -158t-145 -60t-145 60.5t-49 157.5q0 98 49 157.5t145 59.5zM247 325q83 0 123 52t40 135q0 84 -39.5 135.5t-123.5 51.5q-82 0 -120.5 -51.5t-38.5 -135.5q0 -83 38.5 -135t120.5 -52zM326 533q0 -21 -27 -35l26 -88h-45
l-36 111h8q11 0 16.5 9t5.5 17v20q0 25 -22 25h-26v-182h-50v196v7q0 6 3 6h3h7h104q14 0 23.5 -9.5t9.5 -25.5v-51z" />
    <glyph glyph-name="macron" unicode="&#xaf;" horiz-adv-x="600" 
d="M290 394h-220v75h220v-75z" />
    <glyph glyph-name="degree" unicode="&#xb0;" horiz-adv-x="481" 
d="M239 950q95 0 144.5 -57t49.5 -144q0 -86 -50 -144t-144 -58q-93 0 -143 58t-50 144q0 88 49 144.5t144 56.5zM239 920q-81 0 -120.5 -48.5t-39.5 -122.5q0 -72 39.5 -121t120.5 -49q83 0 123 49t40 121q0 74 -39.5 122.5t-123.5 48.5z" />
    <glyph glyph-name="plusminus" unicode="&#xb1;" horiz-adv-x="537" 
d="M40 371v84h186v151h85v-151h182v-84h-182v-151h-85v151h-186zM493 0h-453v85h453v-85z" />
    <glyph glyph-name="acute" unicode="&#xb4;" horiz-adv-x="233" 
d="M96 671h81l-81 -138h-5q-12 0 -24.5 0.5t-13.5 0.5z" />
    <glyph glyph-name="paragraph" unicode="&#xb6;" horiz-adv-x="586" 
d="M530 738v-738h-101v655h-81v-655h-101v446h-83q-57 0 -90.5 35t-33.5 103v15q0 69 33.5 104t90.5 35h366z" />
    <glyph glyph-name="periodcentered" unicode="&#xb7;" horiz-adv-x="215" 
d="M157 402v-103h-100v103h100z" />
    <glyph glyph-name="cedilla" unicode="&#xb8;" horiz-adv-x="234" 
d="M131 -43q29 0 47 -19t18 -52v-28q0 -34 -18 -53.5t-47 -19.5h-23q-32 0 -51 18t-19 49v14h61q0 -30 15 -30h8q7 0 12.5 6t5.5 16v28q0 9 -6 15.5t-12 6.5h-69q-2 61 30 118h26q-17 -44 -13 -69h35z" />
    <glyph glyph-name="guillemotright" unicode="&#xbb;" horiz-adv-x="696" 
d="M248 378l-188 221l41 39l260 -260l-260 -257l-39 36zM525 378l-188 221l40 39l260 -260l-260 -257l-39 36z" />
    <glyph glyph-name="onequarter" unicode="&#xbc;" horiz-adv-x="917" 
d="M727 755q18 0 7 -32l-468 -750q-1 -3 -2.5 -8t-2.5 -7.5t-3 -5t-5 -2.5h-46q-10 0 -13.5 10t2.5 24l468 750q1 2 2 6t2 5.5t2 4t2.5 3t4 1.5t5.5 1h45zM320 394v-86h-250v86h80v212q0 11 -8.5 21.5t-20.5 10.5q-10 0 -64 -31v69l87 47h95q12 0 12 -8v-321h69zM861 170
v-86h-46v-101h-101v101h-198v78q0 31 5 41l146 195h137q11 0 11 -8v-220h46zM714 334l-113 -164h113v164z" />
    <glyph glyph-name="onehalf" unicode="&#xbd;" horiz-adv-x="975" 
d="M720 755q18 0 7 -32l-468 -750q-1 -3 -2.5 -8t-2.5 -7.5t-3 -5t-5 -2.5h-46q-10 0 -13.5 10t2.5 24l468 750q1 2 2 6t2 5.5t2 4t2.5 3t4 1.5t5.5 1h45zM320 394v-86h-250v86h80v212q0 11 -8.5 21.5t-20.5 10.5q-10 0 -64 -31v69l87 47h95q12 0 12 -8v-321h69zM901 66v-84
h-266q-17 0 -25 8.5t-8 31.5v40q0 30 1.5 43t10 26.5t27.5 21.5l124 59q12 6 18.5 10t12 14t5.5 24q0 22 -13.5 37t-34.5 15h-13q-19 0 -32.5 -15t-13.5 -37v-9h-100v22q0 59 33.5 92t91.5 33h59q58 0 90.5 -35t32.5 -103t-47 -90l-115 -57q-26 -10 -26 -26q0 -21 31 -21
h157z" />
    <glyph glyph-name="threequarters" unicode="&#xbe;" horiz-adv-x="917" 
d="M727 755q18 0 7 -32l-468 -750q-1 -3 -2.5 -8t-2.5 -7.5t-3 -5t-5 -2.5h-46q-10 0 -13.5 10t2.5 24l468 750q1 2 2 6t2 5.5t2 4t2.5 3t4 1.5t5.5 1h45zM363 608q0 -41 -21.5 -60.5t-45.5 -21.5q21 0 44 -26.5t23 -69.5v-6q0 -62 -36 -89t-88 -27h-57q-58 0 -91.5 33
t-33.5 92v9h100q2 -20 15 -34t31 -14h12h5h6t6.5 0.5t7 1.5t6.5 2.5t6 4.5t4.5 6.5t3.5 9t1 11.5v28q0 16 -11 29t-30 13h-56v37h56q19 0 30 11t11 28v23q0 38 -46 38h-12q-18 0 -31 -14t-15 -34h-100v9q0 59 33.5 92t91.5 33h57q56 0 90 -31t34 -75v-9zM861 170v-86h-46
v-101h-101v101h-198v78q0 31 5 41l146 195h137q11 0 11 -8v-220h46zM714 334l-113 -164h113v164z" />
    <glyph glyph-name="questiondown" unicode="&#xbf;" horiz-adv-x="416" 
d="M172 656v103h101v-103h-101zM178 -13q-57 0 -90 35t-33 103v130q0 43 12 72.5t29 46t34.5 32.5t29.5 43t12 66v49h101v-65q0 -47 -18.5 -81.5t-40 -52.5t-40 -50t-18.5 -75v-115q0 -22 13 -37t34 -15h11q19 0 32.5 15t13.5 37v44h100v-57q0 -59 -33.5 -92t-91.5 -33h-57z
" />
    <glyph glyph-name="Agrave" unicode="&#xc0;" horiz-adv-x="410" 
d="M271 855q-1 0 -12.5 -0.5t-24.5 -0.5h-5l-81 138h81zM233 772q15 0 20 -2.5t7 -14.5l125 -755h-100l-17 121h-126l-17 -121h-100l125 755q2 12 7 14.5t25 2.5h51zM254 207l-49 424l-49 -424h98z" />
    <glyph glyph-name="Aacute" unicode="&#xc1;" horiz-adv-x="410" 
d="M188 992h81l-81 -138h-5q-12 0 -24.5 0.5t-13.5 0.5zM233 772q15 0 20 -2.5t7 -14.5l125 -755h-100l-17 121h-126l-17 -121h-100l125 755q2 12 7 14.5t25 2.5h51zM254 207l-49 424l-49 -424h98z" />
    <glyph glyph-name="Acircumflex" unicode="&#xc2;" horiz-adv-x="410" 
d="M230 976l88 -122h-59l-52 75l-51 -75h-60l90 122h44zM233 772q15 0 20 -2.5t7 -14.5l125 -755h-100l-17 121h-126l-17 -121h-100l125 755q2 12 7 14.5t25 2.5h51zM254 207l-49 424l-49 -424h98z" />
    <glyph glyph-name="Atilde" unicode="&#xc3;" horiz-adv-x="410" 
d="M312 963v-66l-61 -31l-91 48l-56 -27v65l55 29l92 -49zM233 772q15 0 20 -2.5t7 -14.5l125 -755h-100l-17 121h-126l-17 -121h-100l125 755q2 12 7 14.5t25 2.5h51zM254 207l-49 424l-49 -424h98z" />
    <glyph glyph-name="Adieresis" unicode="&#xc4;" horiz-adv-x="410" 
d="M149 963v-86h-85v86h85zM351 963v-86h-85v86h85zM233 772q15 0 20 -2.5t7 -14.5l125 -755h-100l-17 121h-126l-17 -121h-100l125 755q2 12 7 14.5t25 2.5h51zM254 207l-49 424l-49 -424h98z" />
    <glyph glyph-name="Aring" unicode="&#xc5;" horiz-adv-x="410" 
d="M208 1021q38 0 64 -26t26 -63q0 -38 -26 -63.5t-64 -25.5q-36 0 -62 26t-26 63t26 63t62 26zM210 976q-19 0 -32 -12.5t-13 -31.5q0 -20 12.5 -32.5t32.5 -12.5q19 0 31.5 13t12.5 32t-12.5 31.5t-31.5 12.5zM233 772q15 0 20 -2.5t7 -14.5l125 -755h-100l-17 121h-126
l-17 -121h-100l125 755q2 12 7 14.5t25 2.5h51zM254 207l-49 424l-49 -424h98z" />
    <glyph glyph-name="AE" unicode="&#xc6;" horiz-adv-x="569" 
d="M414 688q-33 0 -33 -33v-183h147v-87h-147v-268q0 -32 33 -32h130v-85h-262v26q-1 2 -1.5 7t-0.5 7v81h-131l-27 -121h-100l195 755q3 12 8 14.5t24 2.5h295v-84h-130zM281 207v472l-115 -472h115z" />
    <glyph glyph-name="Ccedilla" unicode="&#xc7;" horiz-adv-x="403" 
d="M363 590h-102v44q0 22 -13 37t-32 15h-11q-21 0 -34.5 -15t-13.5 -37v-496q0 -22 13.5 -37t34.5 -15h11q19 0 32 15t13 37v44h102v-57q0 -59 -34 -92t-91 -33h-46q-8 -24 -4 -43h35q29 0 47 -19t18 -52v-28q0 -34 -18 -53.5t-47 -19.5h-23q-32 0 -51 18t-19 49v14h61
q0 -30 15 -30h8q7 0 12.5 6t5.5 16v28q0 9 -6 15.5t-12 6.5h-69q-1 46 18 93q-50 5 -78 40t-28 97v496q0 68 33 103t91 35h57q57 0 91 -33t34 -92v-57z" />
    <glyph glyph-name="Egrave" unicode="&#xc8;" horiz-adv-x="345" 
d="M249 859q-1 0 -13 -0.5t-24 -0.5h-5l-81 138h81zM320 85v-85h-230q-20 0 -26.5 7t-6.5 33v692q0 26 6.5 33t26.5 7h230v-84h-130q-33 0 -33 -33v-183h147v-87h-147v-268q0 -32 33 -32h130z" />
    <glyph glyph-name="Eacute" unicode="&#xc9;" horiz-adv-x="345" 
d="M166 996h81l-81 -138h-5q-12 0 -24.5 0.5t-13.5 0.5zM320 85v-85h-230q-20 0 -26.5 7t-6.5 33v692q0 26 6.5 33t26.5 7h230v-84h-130q-33 0 -33 -33v-183h147v-87h-147v-268q0 -32 33 -32h130z" />
    <glyph glyph-name="Ecircumflex" unicode="&#xca;" horiz-adv-x="345" 
d="M208 980l88 -122h-59l-52 75l-51 -75h-60l90 122h44zM320 85v-85h-230q-20 0 -26.5 7t-6.5 33v692q0 26 6.5 33t26.5 7h230v-84h-130q-33 0 -33 -33v-183h147v-87h-147v-268q0 -32 33 -32h130z" />
    <glyph glyph-name="Edieresis" unicode="&#xcb;" horiz-adv-x="345" 
d="M127 967v-86h-85v86h85zM329 967v-86h-85v86h85zM320 85v-85h-230q-20 0 -26.5 7t-6.5 33v692q0 26 6.5 33t26.5 7h230v-84h-130q-33 0 -33 -33v-183h147v-87h-147v-268q0 -32 33 -32h130z" />
    <glyph glyph-name="Igrave" unicode="&#xcc;" horiz-adv-x="215" 
d="M171 859q-1 0 -13 -0.5t-24 -0.5h-5l-81 138h81zM57 772h100v-772h-100v772z" />
    <glyph glyph-name="Iacute" unicode="&#xcd;" horiz-adv-x="215" 
d="M88 996h81l-81 -138h-5q-12 0 -24.5 0.5t-13.5 0.5zM57 772h100v-772h-100v772z" />
    <glyph glyph-name="Icircumflex" unicode="&#xce;" horiz-adv-x="215" 
d="M130 980l88 -122h-59l-52 75l-51 -75h-60l90 122h44zM57 772h100v-772h-100v772z" />
    <glyph glyph-name="Idieresis" unicode="&#xcf;" horiz-adv-x="413" 
d="M148 950v-86h-85v86h85zM350 950v-86h-85v86h85zM156 755h100v-772h-100v772z" />
    <glyph glyph-name="Eth" unicode="&#xd0;" 
d="M239 772q57 0 90.5 -35t33.5 -103v-496q0 -67 -33.5 -102.5t-90.5 -35.5h-122q-47 0 -53.5 7t-6.5 53v283h-47v85h47v284q0 46 6.5 53t53.5 7h122zM261 138v496q0 22 -13 37t-33 15h-12h-5h-5.5t-6 -0.5t-7 -1.5t-6.5 -2.5t-6.5 -4.5t-5 -6.5t-3.5 -9t-1 -11.5v-222h46
v-85h-46v-221q0 -6 1 -11.5t3.5 -9t5 -6.5t6.5 -4.5t6.5 -2.5t7 -1.5t6 -0.5h5.5h5h12q20 0 33 15t13 37z" />
    <glyph glyph-name="Ntilde" unicode="&#xd1;" horiz-adv-x="439" 
d="M324 967v-66l-61 -31l-91 48l-56 -27v65l55 29l92 -49zM382 772v-772h-97v181l-128 232v-413h-100v772h100v-174l124 -239v413h101z" />
    <glyph glyph-name="Ograve" unicode="&#xd2;" horiz-adv-x="365" 
d="M248 859l-12 -1h-25h-5l-81 138h81zM208 772q58 0 91.5 -33t33.5 -92v-522q0 -59 -33.5 -92t-91.5 -33h-52q-58 0 -90.5 35t-32.5 103v496q0 68 32.5 103t90.5 35h52zM233 634q0 22 -13.5 37t-32.5 15h-6q-21 0 -34.5 -15t-13.5 -37v-496q0 -22 13.5 -37t34.5 -15h6
q19 0 32.5 15t13.5 37v496z" />
    <glyph glyph-name="Oacute" unicode="&#xd3;" horiz-adv-x="365" 
d="M165 996h81l-81 -138h-5q-12 0 -24.5 0.5t-13.5 0.5zM208 772q58 0 91.5 -33t33.5 -92v-522q0 -59 -33.5 -92t-91.5 -33h-52q-58 0 -90.5 35t-32.5 103v496q0 68 32.5 103t90.5 35h52zM233 634q0 22 -13.5 37t-32.5 15h-6q-21 0 -34.5 -15t-13.5 -37v-496q0 -22 13.5 -37
t34.5 -15h6q19 0 32.5 15t13.5 37v496z" />
    <glyph glyph-name="Ocircumflex" unicode="&#xd4;" horiz-adv-x="365" 
d="M207 980l88 -122h-59l-52 75l-51 -75h-60l90 122h44zM208 772q58 0 91.5 -33t33.5 -92v-522q0 -59 -33.5 -92t-91.5 -33h-52q-58 0 -90.5 35t-32.5 103v496q0 68 32.5 103t90.5 35h52zM233 634q0 22 -13.5 37t-32.5 15h-6q-21 0 -34.5 -15t-13.5 -37v-496q0 -22 13.5 -37
t34.5 -15h6q19 0 32.5 15t13.5 37v496z" />
    <glyph glyph-name="Otilde" unicode="&#xd5;" horiz-adv-x="365" 
d="M289 967v-66l-61 -31l-91 48l-56 -27v65l55 29l92 -49zM208 772q58 0 91.5 -33t33.5 -92v-522q0 -59 -33.5 -92t-91.5 -33h-52q-58 0 -90.5 35t-32.5 103v496q0 68 32.5 103t90.5 35h52zM233 634q0 22 -13.5 37t-32.5 15h-6q-21 0 -34.5 -15t-13.5 -37v-496
q0 -22 13.5 -37t34.5 -15h6q19 0 32.5 15t13.5 37v496z" />
    <glyph glyph-name="Odieresis" unicode="&#xd6;" horiz-adv-x="365" 
d="M126 967v-86h-85v86h85zM328 967v-86h-85v86h85zM208 772q58 0 91.5 -33t33.5 -92v-522q0 -59 -33.5 -92t-91.5 -33h-52q-58 0 -90.5 35t-32.5 103v496q0 68 32.5 103t90.5 35h52zM233 634q0 22 -13.5 37t-32.5 15h-6q-21 0 -34.5 -15t-13.5 -37v-496q0 -22 13.5 -37
t34.5 -15h6q19 0 32.5 15t13.5 37v496z" />
    <glyph glyph-name="multiply" unicode="&#xd7;" horiz-adv-x="501" 
d="M310 443l131 -130l-60 -58l-130 129l-131 -129l-60 58l131 130l-131 130l61 59l130 -129l129 129l61 -59z" />
    <glyph glyph-name="Oslash" unicode="&#xd8;" horiz-adv-x="415" 
d="M363 772q18 0 6 -32l-14 -43q8 -22 8 -50v-522q0 -59 -33.5 -92t-91.5 -33h-52q-28 0 -51 9l-6 -19q-1 -3 -2.5 -8t-2.5 -7.5t-3 -5t-5 -2.5h-46q-10 0 -13.5 10t2.5 24l19 60q-15 32 -15 77v496q0 68 32.5 103t90.5 35h52q35 0 64 -13q5 13 15 13h46zM163 634v-308
l100 312q-2 20 -14.5 34t-31.5 14h-6q-21 0 -34.5 -15t-13.5 -37zM263 138v271l-95 -296q14 -27 43 -27h6q19 0 32.5 15t13.5 37z" />
    <glyph glyph-name="Ugrave" unicode="&#xd9;" 
d="M272 859l-12 -1h-25h-5l-81 138h81zM264 772h99v-634q0 -67 -33.5 -102.5t-90.5 -35.5h-57q-58 0 -91.5 33t-33.5 92v647h100v-634q0 -22 13.5 -37t32.5 -15h13q21 0 34.5 15t13.5 37v634z" />
    <glyph glyph-name="Uacute" unicode="&#xda;" 
d="M189 996h81l-81 -138h-5q-12 0 -24.5 0.5t-13.5 0.5zM264 772h99v-634q0 -67 -33.5 -102.5t-90.5 -35.5h-57q-58 0 -91.5 33t-33.5 92v647h100v-634q0 -22 13.5 -37t32.5 -15h13q21 0 34.5 15t13.5 37v634z" />
    <glyph glyph-name="Ucircumflex" unicode="&#xdb;" 
d="M231 980l88 -122h-59l-52 75l-51 -75h-60l90 122h44zM264 772h99v-634q0 -67 -33.5 -102.5t-90.5 -35.5h-57q-58 0 -91.5 33t-33.5 92v647h100v-634q0 -22 13.5 -37t32.5 -15h13q21 0 34.5 15t13.5 37v634z" />
    <glyph glyph-name="Udieresis" unicode="&#xdc;" 
d="M150 967v-86h-85v86h85zM352 967v-86h-85v86h85zM264 772h99v-634q0 -67 -33.5 -102.5t-90.5 -35.5h-57q-58 0 -91.5 33t-33.5 92v647h100v-634q0 -22 13.5 -37t32.5 -15h13q21 0 34.5 15t13.5 37v634z" />
    <glyph glyph-name="Yacute" unicode="&#xdd;" 
d="M189 996h81l-81 -138h-5q-12 0 -24.5 0.5t-13.5 0.5zM291 772h98l-128 -307v-465h-100v456l-128 316h97l79 -208z" />
    <glyph glyph-name="agrave" unicode="&#xe0;" horiz-adv-x="410" 
d="M267 859q-1 0 -13 -0.5t-24 -0.5h-5l-81 138h81zM233 772q15 0 20 -2.5t7 -14.5l125 -755h-100l-17 121h-126l-17 -121h-100l125 755q2 12 7 14.5t25 2.5h51zM254 207l-49 424l-49 -424h98z" />
    <glyph glyph-name="aacute" unicode="&#xe1;" horiz-adv-x="410" 
d="M184 996h81l-81 -138h-5q-12 0 -24.5 0.5t-13.5 0.5zM233 772q15 0 20 -2.5t7 -14.5l125 -755h-100l-17 121h-126l-17 -121h-100l125 755q2 12 7 14.5t25 2.5h51zM254 207l-49 424l-49 -424h98z" />
    <glyph glyph-name="acircumflex" unicode="&#xe2;" horiz-adv-x="410" 
d="M226 980l88 -122h-59l-52 75l-51 -75h-60l90 122h44zM233 772q15 0 20 -2.5t7 -14.5l125 -755h-100l-17 121h-126l-17 -121h-100l125 755q2 12 7 14.5t25 2.5h51zM254 207l-49 424l-49 -424h98z" />
    <glyph glyph-name="atilde" unicode="&#xe3;" horiz-adv-x="410" 
d="M308 967v-66l-61 -31l-91 48l-56 -27v65l55 29l92 -49zM233 772q15 0 20 -2.5t7 -14.5l125 -755h-100l-17 121h-126l-17 -121h-100l125 755q2 12 7 14.5t25 2.5h51zM254 207l-49 424l-49 -424h98z" />
    <glyph glyph-name="adieresis" unicode="&#xe4;" horiz-adv-x="410" 
d="M145 967v-86h-85v86h85zM347 967v-86h-85v86h85zM233 772q15 0 20 -2.5t7 -14.5l125 -755h-100l-17 121h-126l-17 -121h-100l125 755q2 12 7 14.5t25 2.5h51zM254 207l-49 424l-49 -424h98z" />
    <glyph glyph-name="aring" unicode="&#xe5;" horiz-adv-x="410" 
d="M204 1025q38 0 64 -26t26 -63q0 -38 -26 -63.5t-64 -25.5q-36 0 -62 26t-26 63t26 63t62 26zM206 980q-19 0 -32 -12.5t-13 -31.5q0 -20 12.5 -32.5t32.5 -12.5q19 0 31.5 13t12.5 32t-12.5 31.5t-31.5 12.5zM233 772q15 0 20 -2.5t7 -14.5l125 -755h-100l-17 121h-126
l-17 -121h-100l125 755q2 12 7 14.5t25 2.5h51zM254 207l-49 424l-49 -424h98z" />
    <glyph glyph-name="ae" unicode="&#xe6;" horiz-adv-x="569" 
d="M414 688q-33 0 -33 -33v-183h147v-87h-147v-268q0 -32 33 -32h130v-85h-262v26q-1 2 -1.5 7t-0.5 7v81h-131l-27 -121h-100l195 755q3 12 8 14.5t24 2.5h295v-84h-130zM281 207v472l-115 -472h115z" />
    <glyph glyph-name="ccedilla" unicode="&#xe7;" horiz-adv-x="403" 
d="M363 590h-102v44q0 22 -13 37t-32 15h-11q-21 0 -34.5 -15t-13.5 -37v-496q0 -22 13.5 -37t34.5 -15h11q19 0 32 15t13 37v44h102v-57q0 -59 -34 -92t-91 -33h-46q-8 -24 -4 -43h35q29 0 47 -19t18 -52v-28q0 -34 -18 -53.5t-47 -19.5h-23q-32 0 -51 18t-19 49v14h61
q0 -30 15 -30h8q7 0 12.5 6t5.5 16v28q0 9 -6 15.5t-12 6.5h-69q-1 46 18 93q-50 5 -78 40t-28 97v496q0 68 33 103t91 35h57q57 0 91 -33t34 -92v-57z" />
    <glyph glyph-name="egrave" unicode="&#xe8;" horiz-adv-x="345" 
d="M249 859q-1 0 -13 -0.5t-24 -0.5h-5l-81 138h81zM320 85v-85h-230q-20 0 -26.5 7t-6.5 33v692q0 26 6.5 33t26.5 7h230v-84h-130q-33 0 -33 -33v-183h147v-87h-147v-268q0 -32 33 -32h130z" />
    <glyph glyph-name="eacute" unicode="&#xe9;" horiz-adv-x="345" 
d="M166 996h81l-81 -138h-5q-12 0 -24.5 0.5t-13.5 0.5zM320 85v-85h-230q-20 0 -26.5 7t-6.5 33v692q0 26 6.5 33t26.5 7h230v-84h-130q-33 0 -33 -33v-183h147v-87h-147v-268q0 -32 33 -32h130z" />
    <glyph glyph-name="ecircumflex" unicode="&#xea;" horiz-adv-x="345" 
d="M208 980l88 -122h-59l-52 75l-51 -75h-60l90 122h44zM320 85v-85h-230q-20 0 -26.5 7t-6.5 33v692q0 26 6.5 33t26.5 7h230v-84h-130q-33 0 -33 -33v-183h147v-87h-147v-268q0 -32 33 -32h130z" />
    <glyph glyph-name="edieresis" unicode="&#xeb;" horiz-adv-x="345" 
d="M127 967v-86h-85v86h85zM329 967v-86h-85v86h85zM320 85v-85h-230q-20 0 -26.5 7t-6.5 33v692q0 26 6.5 33t26.5 7h230v-84h-130q-33 0 -33 -33v-183h147v-87h-147v-268q0 -32 33 -32h130z" />
    <glyph glyph-name="igrave" unicode="&#xec;" horiz-adv-x="199" 
d="M155 859q-1 0 -13 -0.5t-24 -0.5h-5l-81 138h81zM41 772h100v-772h-100v772z" />
    <glyph glyph-name="iacute" unicode="&#xed;" horiz-adv-x="215" 
d="M88 996h81l-81 -138h-5q-12 0 -24.5 0.5t-13.5 0.5zM57 772h100v-772h-100v772z" />
    <glyph glyph-name="icircumflex" unicode="&#xee;" horiz-adv-x="265" 
d="M156 980l88 -122h-59l-52 75l-51 -75h-60l90 122h44zM83 772h100v-772h-100v772z" />
    <glyph glyph-name="idieresis" unicode="&#xef;" horiz-adv-x="332" 
d="M108 967v-86h-85v86h85zM310 967v-86h-85v86h85zM116 772h100v-772h-100v772z" />
    <glyph glyph-name="ntilde" unicode="&#xf1;" horiz-adv-x="439" 
d="M324 967v-66l-61 -31l-91 48l-56 -27v65l55 29l92 -49zM382 772v-772h-97l-128 517v-517h-100v772h100l124 -504v504h101z" />
    <glyph glyph-name="ograve" unicode="&#xf2;" horiz-adv-x="365" 
d="M272 859l-12 -1h-25h-5l-81 138h81zM208 772q58 0 91.5 -33t33.5 -92v-522q0 -59 -33.5 -92t-91.5 -33h-52q-58 0 -90.5 35t-32.5 103v496q0 68 32.5 103t90.5 35h52zM233 634q0 22 -13.5 37t-32.5 15h-6q-21 0 -34.5 -15t-13.5 -37v-496q0 -22 13.5 -37t34.5 -15h6
q19 0 32.5 15t13.5 37v496z" />
    <glyph glyph-name="oacute" unicode="&#xf3;" horiz-adv-x="365" 
d="M189 996h81l-81 -138h-5q-12 0 -24.5 0.5t-13.5 0.5zM208 772q58 0 91.5 -33t33.5 -92v-522q0 -59 -33.5 -92t-91.5 -33h-52q-58 0 -90.5 35t-32.5 103v496q0 68 32.5 103t90.5 35h52zM233 634q0 22 -13.5 37t-32.5 15h-6q-21 0 -34.5 -15t-13.5 -37v-496q0 -22 13.5 -37
t34.5 -15h6q19 0 32.5 15t13.5 37v496z" />
    <glyph glyph-name="ocircumflex" unicode="&#xf4;" horiz-adv-x="365" 
d="M231 980l88 -122h-59l-52 75l-51 -75h-60l90 122h44zM208 772q58 0 91.5 -33t33.5 -92v-522q0 -59 -33.5 -92t-91.5 -33h-52q-58 0 -90.5 35t-32.5 103v496q0 68 32.5 103t90.5 35h52zM233 634q0 22 -13.5 37t-32.5 15h-6q-21 0 -34.5 -15t-13.5 -37v-496q0 -22 13.5 -37
t34.5 -15h6q19 0 32.5 15t13.5 37v496z" />
    <glyph glyph-name="otilde" unicode="&#xf5;" horiz-adv-x="365" 
d="M313 967v-66l-61 -31l-91 48l-56 -27v65l55 29l92 -49zM208 772q58 0 91.5 -33t33.5 -92v-522q0 -59 -33.5 -92t-91.5 -33h-52q-58 0 -90.5 35t-32.5 103v496q0 68 32.5 103t90.5 35h52zM233 634q0 22 -13.5 37t-32.5 15h-6q-21 0 -34.5 -15t-13.5 -37v-496
q0 -22 13.5 -37t34.5 -15h6q19 0 32.5 15t13.5 37v496z" />
    <glyph glyph-name="odieresis" unicode="&#xf6;" horiz-adv-x="365" 
d="M150 967v-86h-85v86h85zM352 967v-86h-85v86h85zM208 772q58 0 91.5 -33t33.5 -92v-522q0 -59 -33.5 -92t-91.5 -33h-52q-58 0 -90.5 35t-32.5 103v496q0 68 32.5 103t90.5 35h52zM233 634q0 22 -13.5 37t-32.5 15h-6q-21 0 -34.5 -15t-13.5 -37v-496q0 -22 13.5 -37
t34.5 -15h6q19 0 32.5 15t13.5 37v496z" />
    <glyph glyph-name="divide" unicode="&#xf7;" horiz-adv-x="566" 
d="M231 554v103h101v-103h-101zM508 439v-84h-451v84h451zM332 242v-102h-101v102h101z" />
    <glyph glyph-name="oslash" unicode="&#xf8;" horiz-adv-x="415" 
d="M363 772q18 0 6 -32l-36 -112v-503q0 -59 -33.5 -92t-91.5 -33h-52q-9 0 -23 2l-4 -12q-1 -3 -2.5 -8t-2.5 -7.5t-3 -5t-5 -2.5h-46q-10 0 -13.5 10t2.5 24l10 31q-36 36 -36 106v496q0 68 32.5 103t90.5 35h52q56 0 88 -30l3 9q1 2 2 6t2 5.5t2 4t2.5 3t4 1.5t5.5 1h46z
M133 634v-402l100 313v89q0 22 -13.5 37t-32.5 15h-6q-21 0 -34.5 -15t-13.5 -37zM233 138v177l-72 -225q8 -4 20 -4h6q19 0 32.5 15t13.5 37z" />
    <glyph glyph-name="ugrave" unicode="&#xf9;" 
d="M272 859l-12 -1h-25h-5l-81 138h81zM264 772h99v-634q0 -67 -33.5 -102.5t-90.5 -35.5h-57q-58 0 -91.5 33t-33.5 92v647h100v-634q0 -22 13.5 -37t32.5 -15h13q21 0 34.5 15t13.5 37v634z" />
    <glyph glyph-name="uacute" unicode="&#xfa;" 
d="M189 996h81l-81 -138h-5q-12 0 -24.5 0.5t-13.5 0.5zM264 772h99v-634q0 -67 -33.5 -102.5t-90.5 -35.5h-57q-58 0 -91.5 33t-33.5 92v647h100v-634q0 -22 13.5 -37t32.5 -15h13q21 0 34.5 15t13.5 37v634z" />
    <glyph glyph-name="ucircumflex" unicode="&#xfb;" 
d="M231 980l88 -122h-59l-52 75l-51 -75h-60l90 122h44zM264 772h99v-634q0 -67 -33.5 -102.5t-90.5 -35.5h-57q-58 0 -91.5 33t-33.5 92v647h100v-634q0 -22 13.5 -37t32.5 -15h13q21 0 34.5 15t13.5 37v634z" />
    <glyph glyph-name="udieresis" unicode="&#xfc;" 
d="M150 967v-86h-85v86h85zM352 967v-86h-85v86h85zM264 772h99v-634q0 -67 -33.5 -102.5t-90.5 -35.5h-57q-58 0 -91.5 33t-33.5 92v647h100v-634q0 -22 13.5 -37t32.5 -15h13q21 0 34.5 15t13.5 37v634z" />
    <glyph glyph-name="yacute" unicode="&#xfd;" 
d="M182 996h81l-81 -138h-5q-12 0 -24.5 0.5t-13.5 0.5zM291 772h98l-128 -307v-465h-100v456l-128 316h97l79 -208z" />
    <glyph glyph-name="ydieresis" unicode="&#xff;" 
d="M143 967v-86h-85v86h85zM345 967v-86h-85v86h85zM291 772h98l-128 -307v-465h-100v456l-128 316h97l79 -208z" />
    <glyph glyph-name="Amacron" unicode="&#x100;" horiz-adv-x="410" 
d="M318 882h-220v75h220v-75zM233 772q15 0 20 -2.5t7 -14.5l125 -755h-100l-17 121h-126l-17 -121h-100l125 755q2 12 7 14.5t25 2.5h51zM254 207l-49 424l-49 -424h98z" />
    <glyph glyph-name="amacron" unicode="&#x101;" horiz-adv-x="410" 
d="M314 886h-220v75h220v-75zM233 772q15 0 20 -2.5t7 -14.5l125 -755h-100l-17 121h-126l-17 -121h-100l125 755q2 12 7 14.5t25 2.5h51zM254 207l-49 424l-49 -424h98z" />
    <glyph glyph-name="Abreve" unicode="&#x102;" horiz-adv-x="410" 
d="M130 981q12 -44 73 -46q67 -2 83 46h30v-54q-46 -50 -113 -50q-58 0 -103 50v54h30zM233 772q15 0 20 -2.5t7 -14.5l125 -755h-100l-17 121h-126l-17 -121h-100l125 755q2 12 7 14.5t25 2.5h51zM254 207l-49 424l-49 -424h98z" />
    <glyph glyph-name="abreve" unicode="&#x103;" horiz-adv-x="410" 
d="M126 985q12 -44 73 -46q67 -2 83 46h30v-54q-46 -50 -113 -50q-58 0 -103 50v54h30zM233 772q15 0 20 -2.5t7 -14.5l125 -755h-100l-17 121h-126l-17 -121h-100l125 755q2 12 7 14.5t25 2.5h51zM254 207l-49 424l-49 -424h98z" />
    <glyph glyph-name="Aogonek" unicode="&#x104;" horiz-adv-x="410" 
d="M356 -101h61v-14q0 -31 -19 -49t-51 -18h-23q-29 0 -47 19.5t-18 54.5q-1 25 0.5 38t13 33t35.5 37h-23l-17 121h-126l-17 -121h-100l125 755q2 12 7 14.5t25 2.5h51q15 0 20 -2.5t7 -14.5l125 -755h-27q-48 -44 -43 -108q0 -10 5.5 -16.5t12.5 -6.5h8q15 0 15 30z
M156 207h98l-49 424z" />
    <glyph glyph-name="aogonek" unicode="&#x105;" horiz-adv-x="410" 
d="M355 -104h61v-14q0 -31 -19 -49t-51 -18h-23q-29 0 -47 19.5t-18 54.5q-1 26 0.5 39.5t14 33.5t38.5 38h-26l-17 121h-126l-17 -121h-100l125 755q2 12 7 14.5t25 2.5h51q15 0 20 -2.5t7 -14.5l125 -755h-25q-51 -44 -46 -111q0 -10 5.5 -16.5t12.5 -6.5h8q15 0 15 30z
M156 207h98l-49 424z" />
    <glyph glyph-name="Cacute" unicode="&#x106;" horiz-adv-x="403" 
d="M189 996h81l-81 -138h-5q-12 0 -24.5 0.5t-13.5 0.5zM261 182h102v-57q0 -59 -34 -92t-91 -33h-57q-58 0 -91 35t-33 103v496q0 68 33 103t91 35h57q57 0 91 -33t34 -92v-57h-102v44q0 22 -13 37t-32 15h-11q-21 0 -34.5 -15t-13.5 -37v-496q0 -22 13.5 -37t34.5 -15h11
q19 0 32 15t13 37v44z" />
    <glyph glyph-name="cacute" unicode="&#x107;" horiz-adv-x="403" 
d="M189 996h81l-81 -138h-5q-12 0 -24.5 0.5t-13.5 0.5zM261 182h102v-57q0 -59 -34 -92t-91 -33h-57q-58 0 -91 35t-33 103v496q0 68 33 103t91 35h57q57 0 91 -33t34 -92v-57h-102v44q0 22 -13 37t-32 15h-11q-21 0 -34.5 -15t-13.5 -37v-496q0 -22 13.5 -37t34.5 -15h11
q19 0 32 15t13 37v44z" />
    <glyph glyph-name="Cdotaccent" unicode="&#x10a;" horiz-adv-x="403" 
d="M252 970v-86h-85v86h85zM261 182h102v-57q0 -59 -34 -92t-91 -33h-57q-58 0 -91 35t-33 103v496q0 68 33 103t91 35h57q57 0 91 -33t34 -92v-57h-102v44q0 22 -13 37t-32 15h-11q-21 0 -34.5 -15t-13.5 -37v-496q0 -22 13.5 -37t34.5 -15h11q19 0 32 15t13 37v44z" />
    <glyph glyph-name="cdotaccent" unicode="&#x10b;" horiz-adv-x="403" 
d="M252 970v-86h-85v86h85zM261 182h102v-57q0 -59 -34 -92t-91 -33h-57q-58 0 -91 35t-33 103v496q0 68 33 103t91 35h57q57 0 91 -33t34 -92v-57h-102v44q0 22 -13 37t-32 15h-11q-21 0 -34.5 -15t-13.5 -37v-496q0 -22 13.5 -37t34.5 -15h11q19 0 32 15t13 37v44z" />
    <glyph glyph-name="Ccaron" unicode="&#x10c;" horiz-adv-x="403" 
d="M192 946l-98 98l39 39l77 -76l75 77l38 -40l-98 -98h-33zM261 182h102v-57q0 -59 -34 -92t-91 -33h-57q-58 0 -91 35t-33 103v496q0 68 33 103t91 35h57q57 0 91 -33t34 -92v-57h-102v44q0 22 -13 37t-32 15h-11q-21 0 -34.5 -15t-13.5 -37v-496q0 -22 13.5 -37t34.5 -15
h11q19 0 32 15t13 37v44z" />
    <glyph glyph-name="ccaron" unicode="&#x10d;" horiz-adv-x="403" 
d="M192 946l-98 98l39 39l77 -76l75 77l38 -40l-98 -98h-33zM261 182h102v-57q0 -59 -34 -92t-91 -33h-57q-58 0 -91 35t-33 103v496q0 68 33 103t91 35h57q57 0 91 -33t34 -92v-57h-102v44q0 22 -13 37t-32 15h-11q-21 0 -34.5 -15t-13.5 -37v-496q0 -22 13.5 -37t34.5 -15
h11q19 0 32 15t13 37v44z" />
    <glyph glyph-name="Dcaron" unicode="&#x10e;" 
d="M193 875l-98 98l39 39l77 -76l75 77l38 -40l-98 -98h-33zM239 772q57 0 90.5 -35t33.5 -103v-496q0 -67 -33.5 -102.5t-90.5 -35.5h-122q-47 0 -53.5 7t-6.5 53v652q0 46 6.5 53t53.5 7h122zM261 634q0 22 -13 37t-33 15h-12h-5h-5.5t-6 -0.5t-7 -1.5t-6.5 -2.5
t-6.5 -4.5t-5 -6.5t-3.5 -9t-1 -11.5v-528q0 -6 1 -11.5t3.5 -9t5 -6.5t6.5 -4.5t6.5 -2.5t7 -1.5t6 -0.5h5.5h5h12q20 0 33 15t13 37v496z" />
    <glyph glyph-name="dcaron" unicode="&#x10f;" 
d="M239 772q57 0 90.5 -35t33.5 -103v-496q0 -67 -33.5 -102.5t-90.5 -35.5h-122q-47 0 -53.5 7t-6.5 53v652q0 46 6.5 53t53.5 7h122zM499 764v-123l-43 -59h-16h-2q1 8 1 19.5t-0.5 24t-0.5 14.5q0 9 -5 14.5t-11 5.5l-5 1h-21v103h103zM261 634q0 22 -13 37t-33 15h-12
h-5h-5.5t-6 -0.5t-7 -1.5t-6.5 -2.5t-6.5 -4.5t-5 -6.5t-3.5 -9t-1 -11.5v-528q0 -6 1 -11.5t3.5 -9t5 -6.5t6.5 -4.5t6.5 -2.5t7 -1.5t6 -0.5h5.5h5h12q20 0 33 15t13 37v496z" />
    <glyph glyph-name="Dcroat" unicode="&#x110;" 
d="M319 886h-220v75h220v-75zM239 772q57 0 90.5 -35t33.5 -103v-496q0 -67 -33.5 -102.5t-90.5 -35.5h-122q-47 0 -53.5 7t-6.5 53v652q0 46 6.5 53t53.5 7h122zM261 634q0 22 -13 37t-33 15h-12h-5h-5.5t-6 -0.5t-7 -1.5t-6.5 -2.5t-6.5 -4.5t-5 -6.5t-3.5 -9t-1 -11.5
v-528q0 -6 1 -11.5t3.5 -9t5 -6.5t6.5 -4.5t6.5 -2.5t7 -1.5t6 -0.5h5.5h5h12q20 0 33 15t13 37v496z" />
    <glyph glyph-name="dcroat" unicode="&#x111;" 
d="M319 886h-220v75h220v-75zM239 772q57 0 90.5 -35t33.5 -103v-496q0 -67 -33.5 -102.5t-90.5 -35.5h-122q-47 0 -53.5 7t-6.5 53v652q0 46 6.5 53t53.5 7h122zM261 634q0 22 -13 37t-33 15h-12h-5h-5.5t-6 -0.5t-7 -1.5t-6.5 -2.5t-6.5 -4.5t-5 -6.5t-3.5 -9t-1 -11.5
v-528q0 -6 1 -11.5t3.5 -9t5 -6.5t6.5 -4.5t6.5 -2.5t7 -1.5t6 -0.5h5.5h5h12q20 0 33 15t13 37v496z" />
    <glyph glyph-name="Emacron" unicode="&#x112;" horiz-adv-x="345" 
d="M296 886h-220v75h220v-75zM320 85v-85h-230q-20 0 -26.5 7t-6.5 33v692q0 26 6.5 33t26.5 7h230v-84h-130q-33 0 -33 -33v-183h147v-87h-147v-268q0 -32 33 -32h130z" />
    <glyph glyph-name="emacron" unicode="&#x113;" horiz-adv-x="345" 
d="M296 876h-220v75h220v-75zM320 85v-85h-230q-20 0 -26.5 7t-6.5 33v692q0 26 6.5 33t26.5 7h230v-84h-130q-33 0 -33 -33v-183h147v-87h-147v-268q0 -32 33 -32h130z" />
    <glyph glyph-name="Edotaccent" unicode="&#x116;" horiz-adv-x="345" 
d="M229 970v-86h-85v86h85zM320 85v-85h-230q-20 0 -26.5 7t-6.5 33v692q0 26 6.5 33t26.5 7h230v-84h-130q-33 0 -33 -33v-183h147v-87h-147v-268q0 -32 33 -32h130z" />
    <glyph glyph-name="edotaccent" unicode="&#x117;" horiz-adv-x="345" 
d="M229 970v-86h-85v86h85zM320 85v-85h-230q-20 0 -26.5 7t-6.5 33v692q0 26 6.5 33t26.5 7h230v-84h-130q-33 0 -33 -33v-183h147v-87h-147v-268q0 -32 33 -32h130z" />
    <glyph glyph-name="Eogonek" unicode="&#x118;" horiz-adv-x="345" 
d="M271 -104h61v-14q0 -31 -19 -49t-51 -18h-23q-29 0 -47 19.5t-18 54.5q-1 26 0.5 39.5t14 33.5t38.5 38h-137q-20 0 -26.5 7t-6.5 33v692q0 26 6.5 33t26.5 7h230v-84h-130q-33 0 -33 -33v-183h147v-87h-147v-268q0 -32 33 -32h130v-85h-44q-51 -44 -46 -111
q0 -10 5.5 -16.5t12.5 -6.5h8q15 0 15 30z" />
    <glyph glyph-name="eogonek" unicode="&#x119;" horiz-adv-x="345" 
d="M271 -104h61v-14q0 -31 -19 -49t-51 -18h-23q-29 0 -47 19.5t-18 54.5q-1 26 0.5 39.5t14 33.5t38.5 38h-137q-20 0 -26.5 7t-6.5 33v692q0 26 6.5 33t26.5 7h230v-84h-130q-33 0 -33 -33v-183h147v-87h-147v-268q0 -32 33 -32h130v-85h-44q-51 -44 -46 -111
q0 -10 5.5 -16.5t12.5 -6.5h8q15 0 15 30z" />
    <glyph glyph-name="Ecaron" unicode="&#x11a;" horiz-adv-x="345" 
d="M169 946l-98 98l39 39l77 -76l75 77l38 -40l-98 -98h-33zM320 85v-85h-230q-20 0 -26.5 7t-6.5 33v692q0 26 6.5 33t26.5 7h230v-84h-130q-33 0 -33 -33v-183h147v-87h-147v-268q0 -32 33 -32h130z" />
    <glyph glyph-name="ecaron" unicode="&#x11b;" horiz-adv-x="345" 
d="M169 865l-98 98l39 39l77 -76l75 77l38 -40l-98 -98h-33zM320 85v-85h-230q-20 0 -26.5 7t-6.5 33v692q0 26 6.5 33t26.5 7h230v-84h-130q-33 0 -33 -33v-183h147v-87h-147v-268q0 -32 33 -32h130z" />
    <glyph glyph-name="Gbreve" unicode="&#x11e;" horiz-adv-x="410" 
d="M369 590h-101v44q0 22 -13.5 37t-32.5 15h-17q-21 0 -34.5 -15t-13.5 -37v-260q18 -13 51 -15q13 0 20 1v42h62v1q1 1 1 2h30v-3h48v-402h-1l-43 49q-40 -49 -94 -49h-50q-58 0 -91 35t-33 103v496q0 68 33 103t91 35h63q58 0 91.5 -33t33.5 -92v-57zM208 301
q-28 0 -51 11v-174q0 -22 13.5 -37t34.5 -15h17q46 0 46 52v174q-24 -11 -60 -11z" />
    <glyph glyph-name="gbreve" unicode="&#x11f;" horiz-adv-x="410" 
d="M135 959q12 -44 73 -46q67 -2 83 46h30v-54q-46 -50 -113 -50q-58 0 -103 50v54h30zM244 772q58 0 91.5 -33t33.5 -92v-57h-101v44q0 22 -13.5 37t-32.5 15h-17q-21 0 -34.5 -15t-13.5 -37v-496q0 -22 13.5 -37t34.5 -15h17q46 0 46 52v194h-40v70h141v-402h-1l-43 49
q-40 -49 -94 -49h-50q-58 0 -91 35t-33 103v496q0 68 33 103t91 35h63z" />
    <glyph glyph-name="Gdotaccent" unicode="&#x120;" horiz-adv-x="410" 
d="M256 970v-86h-85v86h85zM244 772q58 0 91.5 -33t33.5 -92v-57h-101v44q0 22 -13.5 37t-32.5 15h-17q-21 0 -34.5 -15t-13.5 -37v-496q0 -22 13.5 -37t34.5 -15h17q46 0 46 52v194h-40v70h141v-402h-1l-43 49q-40 -49 -94 -49h-50q-58 0 -91 35t-33 103v496q0 68 33 103
t91 35h63z" />
    <glyph glyph-name="gdotaccent" unicode="&#x121;" horiz-adv-x="410" 
d="M256 944v-86h-85v86h85zM244 772q58 0 91.5 -33t33.5 -92v-57h-101v44q0 22 -13.5 37t-32.5 15h-17q-21 0 -34.5 -15t-13.5 -37v-496q0 -22 13.5 -37t34.5 -15h17q46 0 46 52v194h-40v70h141v-402h-1l-43 49q-40 -49 -94 -49h-50q-58 0 -91 35t-33 103v496q0 68 33 103
t91 35h63z" />
    <glyph glyph-name="Gcommaaccent" unicode="&#x122;" horiz-adv-x="410" 
d="M244 772q58 0 91.5 -33t33.5 -92v-57h-101v44q0 22 -13.5 37t-32.5 15h-17q-21 0 -34.5 -15t-13.5 -37v-496q0 -22 13.5 -37t34.5 -15h17q46 0 46 52v194h-40v70h141v-402h-1l-43 49q-40 -49 -94 -49h-50q-58 0 -91 35t-33 103v496q0 68 33 103t91 35h63zM264 -67v-123
l-43 -59h-16h-2v58q0 9 -5.5 14.5t-10.5 6.5h-5h-21v103h103z" />
    <glyph glyph-name="gcommaaccent" unicode="&#x123;" horiz-adv-x="410" 
d="M244 772q58 0 91.5 -33t33.5 -92v-57h-101v44q0 22 -13.5 37t-32.5 15h-17q-21 0 -34.5 -15t-13.5 -37v-496q0 -22 13.5 -37t34.5 -15h17q46 0 46 52v194h-40v70h141v-402h-1l-43 49q-40 -49 -94 -49h-50q-58 0 -91 35t-33 103v496q0 68 33 103t91 35h63zM264 -67v-123
l-43 -59h-16h-2v58q0 9 -5.5 14.5t-10.5 6.5h-5h-21v103h103z" />
    <glyph glyph-name="Imacron" unicode="&#x12a;" horiz-adv-x="215" 
d="M218 876h-220v75h220v-75zM57 772h100v-772h-100v772z" />
    <glyph glyph-name="imacron" unicode="&#x12b;" horiz-adv-x="215" 
d="M218 886h-220v75h220v-75zM57 772h100v-772h-100v772z" />
    <glyph glyph-name="Iogonek" unicode="&#x12e;" horiz-adv-x="215" 
d="M133 -104h61v-14q0 -31 -19 -49t-51 -18h-23q-29 0 -47 19.5t-18 54.5q-1 26 0.5 39.5t14 33.5t38.5 38h-32v772h100v-772h-19q-51 -44 -46 -111q0 -10 5.5 -16.5t12.5 -6.5h8q15 0 15 30z" />
    <glyph glyph-name="iogonek" unicode="&#x12f;" horiz-adv-x="215" 
d="M151 970v-86h-85v86h85zM133 -104h61v-14q0 -31 -19 -49t-51 -18h-23q-29 0 -47 19.5t-18 54.5q-1 26 0.5 39.5t14 33.5t38.5 38h-32v772h100v-772h-19q-51 -44 -46 -111q0 -10 5.5 -16.5t12.5 -6.5h8q15 0 15 30z" />
    <glyph glyph-name="Idotaccent" unicode="&#x130;" horiz-adv-x="215" 
d="M151 970v-86h-85v86h85zM57 772h100v-772h-100v772z" />
    <glyph glyph-name="dotlessi" unicode="&#x131;" horiz-adv-x="215" 
d="M57 772h100v-772h-100v772z" />
    <glyph glyph-name="IJ" unicode="&#x132;" horiz-adv-x="602" 
d="M57 772h100v-772h-100v772zM446 772h101v-634q0 -67 -33.5 -102.5t-90.5 -35.5h-57q-58 0 -91.5 33t-33.5 92v57h100v-44q0 -22 13.5 -37t32.5 -15h13q20 0 33 15t13 37v634z" />
    <glyph glyph-name="ij" unicode="&#x133;" horiz-adv-x="602" 
d="M57 772h100v-772h-100v772zM446 772h101v-634q0 -67 -33.5 -102.5t-90.5 -35.5h-57q-58 0 -91.5 33t-33.5 92v57h100v-44q0 -22 13.5 -37t32.5 -15h13q20 0 33 15t13 37v634z" />
    <glyph glyph-name="Kcommaaccent" unicode="&#x136;" horiz-adv-x="429" 
d="M264 455l140 -455h-97l-99 325l-51 -113v-212h-100v772h100v-333l142 333h99zM280 -67v-123l-43 -59h-16h-2v58q0 9 -5.5 14.5t-10.5 6.5h-5h-21v103h103z" />
    <glyph glyph-name="kcommaaccent" unicode="&#x137;" horiz-adv-x="429" 
d="M264 455l140 -455h-97l-99 325l-51 -113v-212h-100v772h100v-333l142 333h99zM280 -67v-123l-43 -59h-16h-2v58q0 9 -5.5 14.5t-10.5 6.5h-5h-21v103h103z" />
    <glyph glyph-name="Lacute" unicode="&#x139;" horiz-adv-x="352" 
d="M174 996h81l-81 -138h-5q-12 0 -24.5 0.5t-13.5 0.5zM157 772v-660q0 -10 7.5 -18.5t21.5 -8.5h151v-85h-272q-8 0 -8 8v764h100z" />
    <glyph glyph-name="lacute" unicode="&#x13a;" horiz-adv-x="352" 
d="M134 996h81l-81 -138h-5q-12 0 -24.5 0.5t-13.5 0.5zM157 772v-660q0 -10 7.5 -18.5t21.5 -8.5h151v-85h-272q-8 0 -8 8v764h100z" />
    <glyph glyph-name="Lcommaaccent" unicode="&#x13b;" horiz-adv-x="352" 
d="M157 772v-660q0 -10 7.5 -18.5t21.5 -8.5h151v-85h-272q-8 0 -8 8v764h100zM245 -67v-123l-43 -59h-16h-2v58q0 9 -5 14.5t-11 6.5h-5h-21v103h103z" />
    <glyph glyph-name="lcommaaccent" unicode="&#x13c;" horiz-adv-x="352" 
d="M157 772v-660q0 -10 7.5 -18.5t21.5 -8.5h151v-85h-272q-8 0 -8 8v764h100zM245 -67v-123l-43 -59h-16h-2v58q0 9 -5 14.5t-11 6.5h-5h-21v103h103z" />
    <glyph glyph-name="Lcaron" unicode="&#x13d;" horiz-adv-x="352" 
d="M157 772v-660q0 -10 7.5 -18.5t21.5 -8.5h151v-85h-272q-8 0 -8 8v764h100z" />
    <glyph glyph-name="lcaron" unicode="&#x13e;" horiz-adv-x="352" 
d="M157 772v-660q0 -10 7.5 -18.5t21.5 -8.5h151v-85h-272q-8 0 -8 8v764h100z" />
    <glyph glyph-name="Ldot" unicode="&#x13f;" horiz-adv-x="385" 
d="M157 755v-660q0 -10 7.5 -18.5t21.5 -8.5h151v-85h-272q-8 0 -8 8v764h100zM323 288v-103h-100v103h100z" />
    <glyph glyph-name="ldot" unicode="&#x140;" horiz-adv-x="385" 
d="M157 772v-660q0 -10 7.5 -18.5t21.5 -8.5h151v-85h-272q-8 0 -8 8v764h100zM325 239v-103h-100v103h100z" />
    <glyph glyph-name="Nacute" unicode="&#x143;" horiz-adv-x="439" 
d="M200 996h81l-81 -138h-5q-12 0 -24.5 0.5t-13.5 0.5zM382 772v-772h-97v181l-128 232v-413h-100v772h100v-174l124 -239v413h101z" />
    <glyph glyph-name="nacute" unicode="&#x144;" horiz-adv-x="439" 
d="M200 996h81l-81 -138h-5q-12 0 -24.5 0.5t-13.5 0.5zM382 772v-772h-97l-128 517v-517h-100v772h100l124 -504v504h101z" />
    <glyph glyph-name="Ncommaaccent" unicode="&#x145;" horiz-adv-x="439" 
d="M382 772v-772h-97v181l-128 232v-413h-100v772h100v-174l124 -239v413h101zM271 -67v-123l-43 -59h-16h-2v58q0 9 -5 14.5t-11 6.5h-5h-21v103h103z" />
    <glyph glyph-name="ncommaaccent" unicode="&#x146;" horiz-adv-x="439" 
d="M382 772v-772h-97l-128 517v-517h-100v772h100l124 -504v504h101zM271 -67v-123l-43 -59h-16h-2v58q0 9 -5 14.5t-11 6.5h-5h-21v103h103z" />
    <glyph glyph-name="Ncaron" unicode="&#x147;" horiz-adv-x="439" 
d="M204 865l-98 98l39 39l77 -76l75 77l38 -40l-98 -98h-33zM382 772v-772h-97v181l-128 232v-413h-100v772h100v-174l124 -239v413h101z" />
    <glyph glyph-name="ncaron" unicode="&#x148;" horiz-adv-x="439" 
d="M204 862l-98 98l39 39l77 -76l75 77l38 -40l-98 -98h-33zM382 772v-772h-97l-128 517v-517h-100v772h100l124 -504v504h101z" />
    <glyph glyph-name="Omacron" unicode="&#x14c;" horiz-adv-x="365" 
d="M295 886h-220v75h220v-75zM208 772q58 0 91.5 -33t33.5 -92v-522q0 -59 -33.5 -92t-91.5 -33h-52q-58 0 -90.5 35t-32.5 103v496q0 68 32.5 103t90.5 35h52zM233 634q0 22 -13.5 37t-32.5 15h-6q-21 0 -34.5 -15t-13.5 -37v-496q0 -22 13.5 -37t34.5 -15h6q19 0 32.5 15
t13.5 37v496z" />
    <glyph glyph-name="omacron" unicode="&#x14d;" horiz-adv-x="365" 
d="M319 886h-220v75h220v-75zM208 772q58 0 91.5 -33t33.5 -92v-522q0 -59 -33.5 -92t-91.5 -33h-52q-58 0 -90.5 35t-32.5 103v496q0 68 32.5 103t90.5 35h52zM233 634q0 22 -13.5 37t-32.5 15h-6q-21 0 -34.5 -15t-13.5 -37v-496q0 -22 13.5 -37t34.5 -15h6q19 0 32.5 15
t13.5 37v496z" />
    <glyph glyph-name="Ohungarumlaut" unicode="&#x150;" horiz-adv-x="365" 
d="M72 879l42 137h81l-81 -138h-5h-25zM175 879l42 137h81l-81 -138h-5q-12 0 -24 0.5t-13 0.5zM208 772q58 0 91.5 -33t33.5 -92v-522q0 -59 -33.5 -92t-91.5 -33h-52q-58 0 -90.5 35t-32.5 103v496q0 68 32.5 103t90.5 35h52zM233 634q0 22 -13.5 37t-32.5 15h-6
q-21 0 -34.5 -15t-13.5 -37v-496q0 -22 13.5 -37t34.5 -15h6q19 0 32.5 15t13.5 37v496z" />
    <glyph glyph-name="ohungarumlaut" unicode="&#x151;" horiz-adv-x="365" 
d="M96 859l42 137h81l-81 -138h-5h-25zM199 859l42 137h81l-81 -138h-5q-12 0 -24 0.5t-13 0.5zM208 772q58 0 91.5 -33t33.5 -92v-522q0 -59 -33.5 -92t-91.5 -33h-52q-58 0 -90.5 35t-32.5 103v496q0 68 32.5 103t90.5 35h52zM233 634q0 22 -13.5 37t-32.5 15h-6
q-21 0 -34.5 -15t-13.5 -37v-496q0 -22 13.5 -37t34.5 -15h6q19 0 32.5 15t13.5 37v496z" />
    <glyph glyph-name="OE" unicode="&#x152;" horiz-adv-x="521" 
d="M333 472h147v-87h-147v-268q0 -32 33 -32h130v-85h-195q-32 0 -39 26q-14 -26 -54 -26h-52q-58 0 -90.5 35t-32.5 103v496q0 68 32.5 103t90.5 35h42q33 0 48 -24q8 24 40 24h210v-84h-130q-33 0 -33 -33v-183zM187 86q19 0 32.5 15t13.5 37v496q0 22 -13.5 37t-32.5 15
h-6q-21 0 -34.5 -15t-13.5 -37v-496q0 -22 13.5 -37t34.5 -15h6z" />
    <glyph glyph-name="oe" unicode="&#x153;" horiz-adv-x="521" 
d="M333 472h147v-87h-147v-268q0 -32 33 -32h130v-85h-195q-32 0 -39 26q-14 -26 -54 -26h-52q-58 0 -90.5 35t-32.5 103v496q0 68 32.5 103t90.5 35h42q33 0 48 -24q8 24 40 24h210v-84h-130q-33 0 -33 -33v-183zM187 86q19 0 32.5 15t13.5 37v496q0 22 -13.5 37t-32.5 15
h-6q-21 0 -34.5 -15t-13.5 -37v-496q0 -22 13.5 -37t34.5 -15h6z" />
    <glyph glyph-name="Racute" unicode="&#x154;" horiz-adv-x="408" 
d="M189 996h81l-81 -138h-5q-12 0 -24.5 0.5t-13.5 0.5zM376 0h-99l-75 311h-45v-311h-100v712q0 46 6.5 53t53.5 7h122q57 0 90.5 -35t33.5 -103v-187q0 -71 -68 -113zM220 381q21 0 31 20.5t10 39.5v193q0 22 -13 37t-33 15h-12h-5h-5.5t-6 -0.5t-7 -1.5t-6.5 -2.5
t-6.5 -4.5t-5 -6.5t-3.5 -9t-1 -11.5v-269h63z" />
    <glyph glyph-name="racute" unicode="&#x155;" horiz-adv-x="408" 
d="M189 999h81l-81 -138h-5q-12 0 -24.5 0.5t-13.5 0.5zM376 0h-99l-75 311h-45v-311h-100v712q0 46 6.5 53t53.5 7h122q57 0 90.5 -35t33.5 -103v-187q0 -71 -68 -113zM220 381q21 0 31 20.5t10 39.5v193q0 22 -13 37t-33 15h-12h-5h-5.5t-6 -0.5t-7 -1.5t-6.5 -2.5
t-6.5 -4.5t-5 -6.5t-3.5 -9t-1 -11.5v-269h63z" />
    <glyph glyph-name="Rcommaaccent" unicode="&#x156;" horiz-adv-x="408" 
d="M376 0h-99l-75 311h-45v-311h-100v712q0 46 6.5 53t53.5 7h122q57 0 90.5 -35t33.5 -103v-187q0 -71 -68 -113zM220 381q21 0 31 20.5t10 39.5v193q0 22 -13 37t-33 15h-12h-5h-5.5t-6 -0.5t-7 -1.5t-6.5 -2.5t-6.5 -4.5t-5 -6.5t-3.5 -9t-1 -11.5v-269h63zM260 -67v-123
l-43 -59h-16h-2v58q0 9 -5.5 14.5t-10.5 6.5h-5h-21v103h103z" />
    <glyph glyph-name="rcommaaccent" unicode="&#x157;" horiz-adv-x="408" 
d="M376 0h-99l-75 311h-45v-311h-100v712q0 46 6.5 53t53.5 7h122q57 0 90.5 -35t33.5 -103v-187q0 -71 -68 -113zM220 381q21 0 31 20.5t10 39.5v193q0 22 -13 37t-33 15h-12h-5h-5.5t-6 -0.5t-7 -1.5t-6.5 -2.5t-6.5 -4.5t-5 -6.5t-3.5 -9t-1 -11.5v-269h63zM260 -67v-123
l-43 -59h-16h-2v58q0 9 -5.5 14.5t-10.5 6.5h-5h-21v103h103z" />
    <glyph glyph-name="Rcaron" unicode="&#x158;" horiz-adv-x="408" 
d="M193 865l-98 98l39 39l77 -76l75 77l38 -40l-98 -98h-33zM376 0h-99l-75 311h-45v-311h-100v712q0 46 6.5 53t53.5 7h122q57 0 90.5 -35t33.5 -103v-187q0 -71 -68 -113zM220 381q21 0 31 20.5t10 39.5v193q0 22 -13 37t-33 15h-12h-5h-5.5t-6 -0.5t-7 -1.5t-6.5 -2.5
t-6.5 -4.5t-5 -6.5t-3.5 -9t-1 -11.5v-269h63z" />
    <glyph glyph-name="rcaron" unicode="&#x159;" horiz-adv-x="408" 
d="M193 852l-98 98l39 39l77 -76l75 77l38 -40l-98 -98h-33zM376 0h-99l-75 311h-45v-311h-100v712q0 46 6.5 53t53.5 7h122q57 0 90.5 -35t33.5 -103v-187q0 -71 -68 -113zM220 381q21 0 31 20.5t10 39.5v193q0 22 -13 37t-33 15h-12h-5h-5.5t-6 -0.5t-7 -1.5t-6.5 -2.5
t-6.5 -4.5t-5 -6.5t-3.5 -9t-1 -11.5v-269h63z" />
    <glyph glyph-name="Sacute" unicode="&#x15a;" horiz-adv-x="371" 
d="M166 996h81l-81 -138h-5q-12 0 -24.5 0.5t-13.5 0.5zM134 593q0 -29 32 -80t70 -99.5t70 -106.5t32 -99v-53q0 -70 -34 -112.5t-89 -42.5h-58q-57 0 -90.5 33t-33.5 92v57h101v-44q0 -22 13 -37t32 -15h11q21 0 34.5 23t13.5 46v37q0 29 -32 80.5t-70.5 100t-70.5 107
t-32 99.5v39q0 69 34 111.5t89 42.5h57q58 0 91.5 -33t33.5 -92v-74h-100v61q0 22 -13.5 37t-32.5 15h-11q-21 0 -34 -22.5t-13 -45.5v-25z" />
    <glyph glyph-name="sacute" unicode="&#x15b;" horiz-adv-x="371" 
d="M182 996h81l-81 -138h-5q-12 0 -24.5 0.5t-13.5 0.5zM134 593q0 -29 32 -80t70 -99.5t70 -106.5t32 -99v-53q0 -70 -34 -112.5t-89 -42.5h-58q-57 0 -90.5 33t-33.5 92v57h101v-44q0 -22 13 -37t32 -15h11q21 0 34.5 23t13.5 46v37q0 29 -32 80.5t-70.5 100t-70.5 107
t-32 99.5v39q0 69 34 111.5t89 42.5h57q58 0 91.5 -33t33.5 -92v-74h-100v61q0 22 -13.5 37t-32.5 15h-11q-21 0 -34 -22.5t-13 -45.5v-25z" />
    <glyph glyph-name="Scedilla" unicode="&#x15e;" horiz-adv-x="371" 
d="M338 573h-100v61q0 22 -13.5 37t-32.5 15h-11q-21 0 -34 -22.5t-13 -45.5v-25q0 -29 32 -80t70 -99.5t70 -106.5t32 -99v-53q0 -70 -34 -112.5t-89 -42.5h-46q-8 -24 -4 -43h35q29 0 47 -19t18 -52v-28q0 -34 -18 -53.5t-47 -19.5h-23q-32 0 -51 18t-19 49v14h61
q0 -30 15 -30h8q7 0 12.5 6t5.5 16v28q0 9 -6 15.5t-12 6.5h-69q-2 46 18 93q-49 5 -78 37.5t-29 86.5v57h101v-44q0 -22 13 -37t32 -15h11q21 0 34.5 23t13.5 46v37q0 29 -32 80.5t-70.5 100t-70.5 107t-32 99.5v39q0 69 34 111.5t89 42.5h57q58 0 91.5 -33t33.5 -92v-74z
" />
    <glyph glyph-name="scedilla" unicode="&#x15f;" horiz-adv-x="371" 
d="M338 573h-100v61q0 22 -13.5 37t-32.5 15h-11q-21 0 -34 -22.5t-13 -45.5v-25q0 -29 32 -80t70 -99.5t70 -106.5t32 -99v-53q0 -70 -34 -112.5t-89 -42.5h-30q-8 -24 -4 -43h35q29 0 47 -19t18 -52v-28q0 -34 -18 -53.5t-47 -19.5h-23q-32 0 -51 18t-19 49v14h61
q0 -30 15 -30h8q7 0 12.5 6t5.5 16v28q0 9 -6 15.5t-12 6.5h-69q-2 47 18 92q-57 1 -90 34t-33 91v57h101v-44q0 -22 13 -37t32 -15h11q21 0 34.5 23t13.5 46v37q0 29 -32 80.5t-70.5 100t-70.5 107t-32 99.5v39q0 69 34 111.5t89 42.5h57q58 0 91.5 -33t33.5 -92v-74z" />
    <glyph glyph-name="Scaron" unicode="&#x160;" horiz-adv-x="371" 
d="M169 946l-98 98l39 39l77 -76l75 77l38 -40l-98 -98h-33zM134 593q0 -29 32 -80t70 -99.5t70 -106.5t32 -99v-53q0 -70 -34 -112.5t-89 -42.5h-58q-57 0 -90.5 33t-33.5 92v57h101v-44q0 -22 13 -37t32 -15h11q21 0 34.5 23t13.5 46v37q0 29 -32 80.5t-70.5 100
t-70.5 107t-32 99.5v39q0 69 34 111.5t89 42.5h57q58 0 91.5 -33t33.5 -92v-74h-100v61q0 22 -13.5 37t-32.5 15h-11q-21 0 -34 -22.5t-13 -45.5v-25z" />
    <glyph glyph-name="scaron" unicode="&#x161;" horiz-adv-x="371" 
d="M185 946l-98 98l39 39l77 -76l75 77l38 -40l-98 -98h-33zM134 593q0 -29 32 -80t70 -99.5t70 -106.5t32 -99v-53q0 -70 -34 -112.5t-89 -42.5h-58q-57 0 -90.5 33t-33.5 92v57h101v-44q0 -22 13 -37t32 -15h11q21 0 34.5 23t13.5 46v37q0 29 -32 80.5t-70.5 100
t-70.5 107t-32 99.5v39q0 69 34 111.5t89 42.5h57q58 0 91.5 -33t33.5 -92v-74h-100v61q0 22 -13.5 37t-32.5 15h-11q-21 0 -34 -22.5t-13 -45.5v-25z" />
    <glyph glyph-name="uni0162" unicode="&#x162;" horiz-adv-x="368" 
d="M25 772h318v-84h-79q-6 0 -11 -1.5t-7.5 -4.5t-4.5 -5.5t-2.5 -6.5t-0.5 -6v-6v-3v-655h-72q-8 -24 -4 -43h35q29 0 47 -19t18 -52v-28q0 -34 -18 -53.5t-47 -19.5h-23q-32 0 -51 18t-19 49v14h61q0 -30 15 -30h8q7 0 12.5 6t5.5 16v28q0 9 -6 15.5t-12 6.5h-69
q-1 46 18 93v657q0 13 -7.5 20.5t-14.5 8.5l-7 1h-83v84z" />
    <glyph glyph-name="uni0163" unicode="&#x163;" horiz-adv-x="368" 
d="M264 688q-6 0 -11 -1.5t-7.5 -4.5t-4.5 -5.5t-2.5 -6.5t-0.5 -6v-6v-3v-655h-43q-8 -24 -4 -43h35q29 0 47 -19t18 -52v-28q0 -34 -18 -53.5t-47 -19.5h-23q-32 0 -51 18t-19 49v14h61q0 -30 15 -30h8q7 0 12.5 6t5.5 16v28q0 9 -6 15.5t-12 6.5h-69q-2 47 18 92h-29v658
q0 13 -7.5 20.5t-14.5 8.5l-7 1h-83v84h318v-84h-79z" />
    <glyph glyph-name="Tcaron" unicode="&#x164;" horiz-adv-x="368" 
d="M166 875l-98 98l39 39l77 -76l75 77l38 -40l-98 -98h-33zM343 772v-84h-79q-6 0 -11 -1.5t-7.5 -4.5t-4.5 -5.5t-2.5 -6.5t-0.5 -6v-6v-3v-655h-101v658q0 13 -7.5 20.5t-14.5 8.5l-7 1h-83v84h318z" />
    <glyph glyph-name="tcaron" unicode="&#x165;" horiz-adv-x="368" 
d="M486 780v-123l-43 -59h-16h-2q1 8 1 19.5t-0.5 24t-0.5 14.5q0 9 -5.5 14.5t-10.5 5.5l-5 1h-21v103h103zM343 772v-84h-79q-6 0 -11 -1.5t-7.5 -4.5t-4.5 -5.5t-2.5 -6.5t-0.5 -6v-6v-3v-655h-101v658q0 13 -7.5 20.5t-14.5 8.5l-7 1h-83v84h318z" />
    <glyph glyph-name="Tbar" unicode="&#x166;" horiz-adv-x="368" 
d="M293 886h-220v75h220v-75zM343 772v-84h-79q-6 0 -11 -1.5t-7.5 -4.5t-4.5 -5.5t-2.5 -6.5t-0.5 -6v-6v-3v-655h-101v658q0 13 -7.5 20.5t-14.5 8.5l-7 1h-83v84h318z" />
    <glyph glyph-name="tbar" unicode="&#x167;" horiz-adv-x="368" 
d="M293 886h-220v75h220v-75zM343 772v-84h-79q-6 0 -11 -1.5t-7.5 -4.5t-4.5 -5.5t-2.5 -6.5t-0.5 -6v-6v-3v-655h-101v658q0 13 -7.5 20.5t-14.5 8.5l-7 1h-83v84h318z" />
    <glyph glyph-name="Umacron" unicode="&#x16a;" 
d="M319 886h-220v75h220v-75zM264 772h99v-634q0 -67 -33.5 -102.5t-90.5 -35.5h-57q-58 0 -91.5 33t-33.5 92v647h100v-634q0 -22 13.5 -37t32.5 -15h13q21 0 34.5 15t13.5 37v634z" />
    <glyph glyph-name="umacron" unicode="&#x16b;" 
d="M319 886h-220v75h220v-75zM264 772h99v-634q0 -67 -33.5 -102.5t-90.5 -35.5h-57q-58 0 -91.5 33t-33.5 92v647h100v-634q0 -22 13.5 -37t32.5 -15h13q21 0 34.5 15t13.5 37v634z" />
    <glyph glyph-name="Uring" unicode="&#x16e;" 
d="M209 1025q38 0 64 -26t26 -63q0 -38 -26 -63.5t-64 -25.5q-36 0 -62 26t-26 63t26 63t62 26zM211 980q-19 0 -32 -12.5t-13 -31.5q0 -20 13 -32.5t32 -12.5t31.5 13t12.5 32t-12.5 31.5t-31.5 12.5zM264 772h99v-634q0 -67 -33.5 -102.5t-90.5 -35.5h-57q-58 0 -91.5 33
t-33.5 92v647h100v-634q0 -22 13.5 -37t32.5 -15h13q21 0 34.5 15t13.5 37v634z" />
    <glyph glyph-name="uring" unicode="&#x16f;" 
d="M209 1025q38 0 64 -26t26 -63q0 -38 -26 -63.5t-64 -25.5q-36 0 -62 26t-26 63t26 63t62 26zM211 980q-19 0 -32 -12.5t-13 -31.5q0 -20 13 -32.5t32 -12.5t31.5 13t12.5 32t-12.5 31.5t-31.5 12.5zM264 772h99v-634q0 -67 -33.5 -102.5t-90.5 -35.5h-57q-58 0 -91.5 33
t-33.5 92v647h100v-634q0 -22 13.5 -37t32.5 -15h13q21 0 34.5 15t13.5 37v634z" />
    <glyph glyph-name="Uhungarumlaut" unicode="&#x170;" 
d="M96 859l42 137h81l-81 -138h-5h-25zM199 859l42 137h81l-81 -138h-5q-12 0 -24 0.5t-13 0.5zM264 772h99v-634q0 -67 -33.5 -102.5t-90.5 -35.5h-57q-58 0 -91.5 33t-33.5 92v647h100v-634q0 -22 13.5 -37t32.5 -15h13q21 0 34.5 15t13.5 37v634z" />
    <glyph glyph-name="uhungarumlaut" unicode="&#x171;" 
d="M96 859l42 137h81l-81 -138h-5h-25zM199 859l42 137h81l-81 -138h-5q-12 0 -24 0.5t-13 0.5zM264 772h99v-634q0 -67 -33.5 -102.5t-90.5 -35.5h-57q-58 0 -91.5 33t-33.5 92v647h100v-634q0 -22 13.5 -37t32.5 -15h13q21 0 34.5 15t13.5 37v634z" />
    <glyph glyph-name="Uogonek" unicode="&#x172;" 
d="M264 772h99v-634q0 -67 -33.5 -102.5t-90.5 -35.5h-57q-58 0 -91.5 33t-33.5 92v647h100v-634q0 -22 13.5 -37t32.5 -15h13q21 0 34.5 15t13.5 37v634zM278 4h48q-56 -45 -51 -115q0 -10 5.5 -16.5t12.5 -6.5h8q15 0 15 30h61v-14q0 -31 -19 -49t-51 -18h-23
q-29 0 -47 19.5t-18 54.5q0 20 0.5 30.5t5.5 26.5t18 30t35 28z" />
    <glyph glyph-name="uogonek" unicode="&#x173;" 
d="M264 772h99v-634q0 -67 -33.5 -102.5t-90.5 -35.5h-3q-51 -44 -46 -111q0 -10 5.5 -16.5t12.5 -6.5h8q15 0 15 30h61v-14q0 -31 -19 -49t-51 -18h-23q-29 0 -47 19.5t-18 54.5q-1 26 0.5 39.5t14 33.5t38.5 38h-5q-58 0 -91.5 33t-33.5 92v647h100v-634q0 -22 13.5 -37
t32.5 -15h13q21 0 34.5 15t13.5 37v634z" />
    <glyph glyph-name="Wcircumflex" unicode="&#x174;" horiz-adv-x="653" 
d="M341 980l88 -122h-59l-52 75l-51 -75h-60l90 122h44zM603 772l-76 -721q-5 -38 -10 -44.5t-35 -6.5h-50q-31 0 -37.5 6t-9.5 33q0 8 -1 12l-65 534l-67 -533q-5 -38 -10 -45t-34 -7h-51q-33 0 -39 6.5t-9 44.5l-76 721h98l46 -634l86 634h109l86 -634l45 634h100z" />
    <glyph glyph-name="wcircumflex" unicode="&#x175;" horiz-adv-x="653" 
d="M354 980l88 -122h-59l-52 75l-51 -75h-60l90 122h44zM603 772l-76 -721q-5 -38 -10 -44.5t-35 -6.5h-50q-31 0 -37.5 6t-9.5 33q0 8 -1 12l-65 534l-67 -533q-5 -38 -10 -45t-34 -7h-51q-33 0 -39 6.5t-9 44.5l-76 721h98l46 -634l86 634h109l86 -634l45 634h100z" />
    <glyph glyph-name="Ycircumflex" unicode="&#x176;" 
d="M231 980l88 -122h-59l-52 75l-51 -75h-60l90 122h44zM291 772h98l-128 -307v-465h-100v456l-128 316h97l79 -208z" />
    <glyph glyph-name="ycircumflex" unicode="&#x177;" 
d="M224 980l88 -122h-59l-52 75l-51 -75h-60l90 122h44zM291 772h98l-128 -307v-465h-100v456l-128 316h97l79 -208z" />
    <glyph glyph-name="Ydieresis" unicode="&#x178;" 
d="M150 967v-86h-85v86h85zM352 967v-86h-85v86h85zM291 772h98l-128 -307v-465h-100v456l-128 316h97l79 -208z" />
    <glyph glyph-name="Zacute" unicode="&#x179;" horiz-adv-x="372" 
d="M166 996h81l-81 -138h-5q-12 0 -24.5 0.5t-13.5 0.5zM338 85v-85h-305v78q0 16 6 27l186 537q6 14 0 30t-26 16h-151v84h291v-69q0 -18 -4 -33l-204 -585h207z" />
    <glyph glyph-name="zacute" unicode="&#x17a;" horiz-adv-x="372" 
d="M183 996h81l-81 -138h-5q-12 0 -24.5 0.5t-13.5 0.5zM338 85v-85h-305v78q0 16 6 27l186 537q6 14 0 30t-26 16h-151v84h291v-69q0 -18 -4 -33l-204 -585h207z" />
    <glyph glyph-name="Zdotaccent" unicode="&#x17b;" horiz-adv-x="372" 
d="M229 970v-86h-85v86h85zM338 85v-85h-305v78q0 16 6 27l186 537q6 14 0 30t-26 16h-151v84h291v-69q0 -18 -4 -33l-204 -585h207z" />
    <glyph glyph-name="zdotaccent" unicode="&#x17c;" horiz-adv-x="372" 
d="M246 970v-86h-85v86h85zM338 85v-85h-305v78q0 16 6 27l186 537q6 14 0 30t-26 16h-151v84h291v-69q0 -18 -4 -33l-204 -585h207z" />
    <glyph glyph-name="Zcaron" unicode="&#x17d;" horiz-adv-x="372" 
d="M169 865l-98 98l39 39l77 -76l75 77l38 -40l-98 -98h-33zM338 85v-85h-305v78q0 16 6 27l186 537q6 14 0 30t-26 16h-151v84h291v-69q0 -18 -4 -33l-204 -585h207z" />
    <glyph glyph-name="zcaron" unicode="&#x17e;" horiz-adv-x="372" 
d="M167 851l-98 98l39 39l77 -76l75 77l38 -40l-98 -98h-33zM338 85v-85h-305v78q0 16 6 27l186 537q6 14 0 30t-26 16h-151v84h291v-69q0 -18 -4 -33l-204 -585h207z" />
    <glyph glyph-name="uni01CD" unicode="&#x1cd;" horiz-adv-x="410" 
d="M191 942l-98 98l39 39l77 -76l75 77l38 -40l-98 -98h-33zM233 772q15 0 20 -2.5t7 -14.5l125 -755h-100l-17 121h-126l-17 -121h-100l125 755q2 12 7 14.5t25 2.5h51zM254 207l-49 424l-49 -424h98z" />
    <glyph glyph-name="uni01CE" unicode="&#x1ce;" horiz-adv-x="410" 
d="M187 946l-98 98l39 39l77 -76l75 77l38 -40l-98 -98h-33zM233 772q15 0 20 -2.5t7 -14.5l125 -755h-100l-17 121h-126l-17 -121h-100l125 755q2 12 7 14.5t25 2.5h51zM254 207l-49 424l-49 -424h98z" />
    <glyph glyph-name="uni01CF" unicode="&#x1cf;" horiz-adv-x="215" 
d="M91 946l-98 98l39 39l77 -76l75 77l38 -40l-98 -98h-33zM57 772h100v-772h-100v772z" />
    <glyph glyph-name="uni01D0" unicode="&#x1d0;" horiz-adv-x="215" 
d="M91 946l-98 98l39 39l77 -76l75 77l38 -40l-98 -98h-33zM57 772h100v-772h-100v772z" />
    <glyph glyph-name="uni01D1" unicode="&#x1d1;" horiz-adv-x="365" 
d="M168 946l-98 98l39 39l77 -76l75 77l38 -40l-98 -98h-33zM208 772q58 0 91.5 -33t33.5 -92v-522q0 -59 -33.5 -92t-91.5 -33h-52q-58 0 -90.5 35t-32.5 103v496q0 68 32.5 103t90.5 35h52zM233 634q0 22 -13.5 37t-32.5 15h-6q-21 0 -34.5 -15t-13.5 -37v-496
q0 -22 13.5 -37t34.5 -15h6q19 0 32.5 15t13.5 37v496z" />
    <glyph glyph-name="uni01D2" unicode="&#x1d2;" horiz-adv-x="365" 
d="M192 946l-98 98l39 39l77 -76l75 77l38 -40l-98 -98h-33zM208 772q58 0 91.5 -33t33.5 -92v-522q0 -59 -33.5 -92t-91.5 -33h-52q-58 0 -90.5 35t-32.5 103v496q0 68 32.5 103t90.5 35h52zM233 634q0 22 -13.5 37t-32.5 15h-6q-21 0 -34.5 -15t-13.5 -37v-496
q0 -22 13.5 -37t34.5 -15h6q19 0 32.5 15t13.5 37v496z" />
    <glyph glyph-name="uni01D3" unicode="&#x1d3;" 
d="M192 946l-98 98l39 39l77 -76l75 77l38 -40l-98 -98h-33zM264 772h99v-634q0 -67 -33.5 -102.5t-90.5 -35.5h-57q-58 0 -91.5 33t-33.5 92v647h100v-634q0 -22 13.5 -37t32.5 -15h13q21 0 34.5 15t13.5 37v634z" />
    <glyph glyph-name="uni01D4" unicode="&#x1d4;" 
d="M192 946l-98 98l39 39l77 -76l75 77l38 -40l-98 -98h-33zM264 772h99v-634q0 -67 -33.5 -102.5t-90.5 -35.5h-57q-58 0 -91.5 33t-33.5 92v647h100v-634q0 -22 13.5 -37t32.5 -15h13q21 0 34.5 15t13.5 37v634z" />
    <glyph glyph-name="uni01D5" unicode="&#x1d5;" 
d="M150 886v-5h-85v86h85v-6h117v6h85v-86h-85v5h-117zM264 772h99v-634q0 -67 -33.5 -102.5t-90.5 -35.5h-57q-58 0 -91.5 33t-33.5 92v647h100v-634q0 -22 13.5 -37t32.5 -15h13q21 0 34.5 15t13.5 37v634z" />
    <glyph glyph-name="uni01D7" unicode="&#x1d7;" 
d="M189 996h81l-81 -138h-5q-12 0 -24.5 0.5t-13.5 0.5zM150 967v-86h-85v86h85zM352 967v-86h-85v86h85zM264 772h99v-634q0 -67 -33.5 -102.5t-90.5 -35.5h-57q-58 0 -91.5 33t-33.5 92v647h100v-634q0 -22 13.5 -37t32.5 -15h13q21 0 34.5 15t13.5 37v634z" />
    <glyph glyph-name="uni01D9" unicode="&#x1d9;" 
d="M192 946l-98 98l39 39l77 -76l75 77l38 -40l-98 -98h-33zM150 967v-86h-85v86h85zM352 967v-86h-85v86h85zM264 772h99v-634q0 -67 -33.5 -102.5t-90.5 -35.5h-57q-58 0 -91.5 33t-33.5 92v647h100v-634q0 -22 13.5 -37t32.5 -15h13q21 0 34.5 15t13.5 37v634z" />
    <glyph glyph-name="uni01DB" unicode="&#x1db;" 
d="M272 859l-12 -1h-25h-5l-81 138h81zM150 967v-86h-85v86h85zM352 967v-86h-85v86h85zM264 772h99v-634q0 -67 -33.5 -102.5t-90.5 -35.5h-57q-58 0 -91.5 33t-33.5 92v647h100v-634q0 -22 13.5 -37t32.5 -15h13q21 0 34.5 15t13.5 37v634z" />
    <glyph glyph-name="Scommaaccent" unicode="&#x218;" horiz-adv-x="371" 
d="M134 593q0 -29 32 -80t70 -99.5t70 -106.5t32 -99v-53q0 -70 -34 -112.5t-89 -42.5h-58q-57 0 -90.5 33t-33.5 92v57h101v-44q0 -22 13 -37t32 -15h11q21 0 34.5 23t13.5 46v37q0 29 -32 80.5t-70.5 100t-70.5 107t-32 99.5v39q0 69 34 111.5t89 42.5h57q58 0 91.5 -33
t33.5 -92v-74h-100v61q0 22 -13.5 37t-32.5 15h-11q-21 0 -34 -22.5t-13 -45.5v-25zM237 -67v-123l-43 -59h-16h-2v58q0 9 -5 14.5t-11 6.5h-5h-21v103h103z" />
    <glyph glyph-name="scommaaccent" unicode="&#x219;" horiz-adv-x="371" 
d="M134 593q0 -29 32 -80t70 -99.5t70 -106.5t32 -99v-53q0 -70 -34 -112.5t-89 -42.5h-58q-57 0 -90.5 33t-33.5 92v57h101v-44q0 -22 13 -37t32 -15h11q21 0 34.5 23t13.5 46v37q0 29 -32 80.5t-70.5 100t-70.5 107t-32 99.5v39q0 69 34 111.5t89 42.5h57q58 0 91.5 -33
t33.5 -92v-74h-100v61q0 22 -13.5 37t-32.5 15h-11q-21 0 -34 -22.5t-13 -45.5v-25zM253 -67v-123l-43 -59h-16h-2v58q0 9 -5 14.5t-11 6.5h-5h-21v103h103z" />
    <glyph glyph-name="uni021A" unicode="&#x21a;" horiz-adv-x="368" 
d="M343 772v-84h-79q-6 0 -11 -1.5t-7.5 -4.5t-4.5 -5.5t-2.5 -6.5t-0.5 -6v-6v-3v-655h-101v658q0 13 -7.5 20.5t-14.5 8.5l-7 1h-83v84h318zM234 -67v-123l-43 -59h-16h-2v58q0 9 -5.5 14.5t-10.5 6.5h-5h-21v103h103z" />
    <glyph glyph-name="uni021B" unicode="&#x21b;" horiz-adv-x="368" 
d="M343 772v-84h-79q-6 0 -11 -1.5t-7.5 -4.5t-4.5 -5.5t-2.5 -6.5t-0.5 -6v-6v-3v-655h-101v658q0 13 -7.5 20.5t-14.5 8.5l-7 1h-83v84h318zM243 -67v-123l-43 -59h-16h-2v58q0 9 -5 14.5t-11 6.5h-5h-21v103h103z" />
    <glyph glyph-name="circumflex" unicode="&#x2c6;" horiz-adv-x="326" 
d="M186 655l88 -122h-59l-52 75l-51 -75h-60l90 122h44z" />
    <glyph glyph-name="caron" unicode="&#x2c7;" horiz-adv-x="600" 
d="M179 823l-98 98l39 39l77 -76l75 77l38 -40l-98 -98h-33z" />
    <glyph glyph-name="breve" unicode="&#x2d8;" horiz-adv-x="600" 
d="M131 363q12 -44 73 -46q67 -2 83 46h30v-54q-46 -50 -113 -50q-58 0 -103 50v54h30z" />
    <glyph glyph-name="dotaccent" unicode="&#x2d9;" horiz-adv-x="199" 
d="M142 788v-86h-85v86h85z" />
    <glyph glyph-name="ring" unicode="&#x2da;" horiz-adv-x="343" 
d="M173 876q38 0 64 -26t26 -63q0 -38 -26 -63.5t-64 -25.5q-36 0 -62 26t-26 63t26 63t62 26zM175 831q-19 0 -32 -12.5t-13 -31.5t13 -32t32 -13t31.5 13t12.5 32t-12.5 31.5t-31.5 12.5z" />
    <glyph glyph-name="ogonek" unicode="&#x2db;" horiz-adv-x="600" 
d="M169 14h48q-56 -45 -51 -115q0 -10 5.5 -16.5t12.5 -6.5h8q15 0 15 30h61v-14q0 -31 -19 -49t-51 -18h-23q-29 0 -47 19.5t-18 54.5q0 20 0.5 30.5t5.5 26.5t18 30t35 28z" />
    <glyph glyph-name="tilde" unicode="&#x2dc;" horiz-adv-x="306" 
d="M257 642v-66l-61 -31l-91 48l-56 -27v65l55 29l92 -49z" />
    <glyph glyph-name="hungarumlaut" unicode="&#x2dd;" horiz-adv-x="600" 
d="M107 837l42 137h81l-81 -138h-5q-12 0 -24 0.5t-13 0.5zM210 837l42 137h81l-81 -138h-5q-12 0 -24 0.5t-13 0.5z" />
    <glyph glyph-name="uni0326" unicode="&#x326;" horiz-adv-x="0" 
d="M-350 -50v-123l-43 -59h-16h-2q1 8 1 19.5t-0.5 24t-0.5 14.5q0 9 -5.5 14.5t-10.5 5.5l-5 1h-21v103h103z" />
    <glyph glyph-name="uni05B0" unicode="&#x5b0;" horiz-adv-x="0" 
d="M140 -191q-12 0 -20.5 8.5t-8.5 21.5t8.5 21.5t20.5 8.5q13 0 21.5 -8.5t8.5 -21.5t-8.5 -21.5t-21.5 -8.5zM140 -282q-12 0 -20.5 8.5t-8.5 21.5t8.5 21.5t20.5 8.5q13 0 21.5 -8.5t8.5 -21.5t-8.5 -21.5t-21.5 -8.5z" />
    <glyph glyph-name="uni05B1" unicode="&#x5b1;" horiz-adv-x="0" 
d="M209 -191q-12 0 -20.5 8.5t-8.5 21.5t8.5 21.5t20.5 8.5q13 0 21.5 -8.5t8.5 -21.5t-8.5 -21.5t-21.5 -8.5zM310 -191q-12 0 -20.5 8.5t-8.5 21.5t8.5 21.5t20.5 8.5q13 0 21.5 -8.5t8.5 -21.5t-8.5 -21.5t-21.5 -8.5zM440 -191q-12 0 -20.5 8.5t-8.5 21.5t8.5 21.5
t20.5 8.5q13 0 21.5 -8.5t8.5 -21.5t-8.5 -21.5t-21.5 -8.5zM254 -282q-12 0 -20.5 8.5t-8.5 21.5t8.5 21.5t20.5 8.5q13 0 21.5 -8.5t8.5 -21.5t-8.5 -21.5t-21.5 -8.5zM440 -292q-12 0 -20.5 8.5t-8.5 21.5t8.5 21.5t20.5 8.5q13 0 21.5 -8.5t8.5 -21.5t-8.5 -21.5
t-21.5 -8.5z" />
    <glyph glyph-name="uni05B2" unicode="&#x5b2;" horiz-adv-x="0" 
d="M471 -191q-12 0 -20.5 8.5t-8.5 21.5t8.5 21.5t20.5 8.5q13 0 21.5 -8.5t8.5 -21.5t-8.5 -21.5t-21.5 -8.5zM359 -133q12 0 12 -10v-16q0 -10 -12 -10h-150q-10 0 -10 10v16q0 10 10 10h150zM471 -282q-12 0 -20.5 8.5t-8.5 21.5t8.5 21.5t20.5 8.5q13 0 21.5 -8.5
t8.5 -21.5t-8.5 -21.5t-21.5 -8.5z" />
    <glyph glyph-name="uni05B3" unicode="&#x5b3;" horiz-adv-x="0" 
d="M432 -191q-12 0 -20.5 8.5t-8.5 21.5t8.5 21.5t20.5 8.5q13 0 21.5 -8.5t8.5 -21.5t-8.5 -21.5t-21.5 -8.5zM328 -133q7 0 9 -2t2 -8v-16q0 -10 -11 -10h-39q-9 -12 -9 -31v-34q0 -10 -8 -10h-24q-6 0 -6 10v34q0 13 -9 31h-42q-10 0 -10 10v16q0 10 10 10h137zM432 -282
q-12 0 -20.5 8.5t-8.5 21.5t8.5 21.5t20.5 8.5q13 0 21.5 -8.5t8.5 -21.5t-8.5 -21.5t-21.5 -8.5z" />
    <glyph glyph-name="uni05B4" unicode="&#x5b4;" horiz-adv-x="0" 
d="M140 -191q-12 0 -20.5 8.5t-8.5 21.5t8.5 21.5t20.5 8.5q13 0 21.5 -8.5t8.5 -21.5t-8.5 -21.5t-21.5 -8.5z" />
    <glyph glyph-name="uni05B5" unicode="&#x5b5;" horiz-adv-x="0" 
d="M193 -191q-12 0 -20.5 8.5t-8.5 21.5t8.5 21.5t20.5 8.5q13 0 21.5 -8.5t8.5 -21.5t-8.5 -21.5t-21.5 -8.5zM290 -191q-12 0 -20.5 8.5t-8.5 21.5t8.5 21.5t20.5 8.5q13 0 21.5 -8.5t8.5 -21.5t-8.5 -21.5t-21.5 -8.5z" />
    <glyph glyph-name="uni05B6" unicode="&#x5b6;" horiz-adv-x="0" 
d="M197 -191q-12 0 -20.5 8.5t-8.5 21.5t8.5 21.5t20.5 8.5q13 0 21.5 -8.5t8.5 -21.5t-8.5 -21.5t-21.5 -8.5zM298 -191q-12 0 -20.5 8.5t-8.5 21.5t8.5 21.5t20.5 8.5q13 0 21.5 -8.5t8.5 -21.5t-8.5 -21.5t-21.5 -8.5zM242 -282q-12 0 -20.5 8.5t-8.5 21.5t8.5 21.5
t20.5 8.5q13 0 21.5 -8.5t8.5 -21.5t-8.5 -21.5t-21.5 -8.5z" />
    <glyph glyph-name="uni05B7" unicode="&#x5b7;" horiz-adv-x="0" 
d="M309 -133q7 0 9 -2t2 -8v-16q0 -10 -11 -10h-150q-10 0 -10 10v16q0 10 10 10h150z" />
    <glyph glyph-name="uni05B8" unicode="&#x5b8;" horiz-adv-x="0" 
d="M307 -133q12 0 12 -10v-16q0 -10 -12 -10h-39q-9 -14 -9 -31v-34q0 -10 -8 -10h-23q-7 0 -7 10v34q0 13 -9 31h-42q-10 0 -10 10v16q0 10 10 10h137z" />
    <glyph glyph-name="uni05B9" unicode="&#x5b9;" horiz-adv-x="0" 
d="M119 811q-12 0 -20.5 8.5t-8.5 21.5t8.5 21.5t20.5 8.5q13 0 21.5 -8.5t8.5 -21.5t-8.5 -21.5t-21.5 -8.5z" />
    <glyph glyph-name="uni05BA" unicode="&#x5ba;" horiz-adv-x="0" 
d="M29 811q-12 0 -20.5 8.5t-8.5 21.5t8.5 21.5t20.5 8.5q13 0 21.5 -8.5t8.5 -21.5t-8.5 -21.5t-21.5 -8.5z" />
    <glyph glyph-name="uni05BB" unicode="&#x5bb;" horiz-adv-x="0" 
d="M239 -200q-12 0 -20.5 8.5t-8.5 21.5t8.5 21.5t20.5 8.5q13 0 21.5 -8.5t8.5 -21.5t-8.5 -21.5t-21.5 -8.5zM327 -250q-12 0 -20.5 8.5t-8.5 21.5t8.5 21.5t20.5 8.5q13 0 21.5 -8.5t8.5 -21.5t-8.5 -21.5t-21.5 -8.5zM420 -306q-12 0 -20.5 8.5t-8.5 21.5t8.5 21.5
t20.5 8.5q13 0 21.5 -8.5t8.5 -21.5t-8.5 -21.5t-21.5 -8.5z" />
    <glyph glyph-name="uni05BC" unicode="&#x5bc;" horiz-adv-x="0" 
d="M114 216q-12 0 -20.5 8.5t-8.5 21.5t8.5 21.5t20.5 8.5q13 0 21.5 -8.5t8.5 -21.5t-8.5 -21.5t-21.5 -8.5z" />
    <glyph glyph-name="uni05BE" unicode="&#x5be;" horiz-adv-x="265" 
d="M225 688h-185v84h185v-84z" />
    <glyph glyph-name="uni05C1" unicode="&#x5c1;" horiz-adv-x="0" 
d="M244 811q-12 0 -20.5 8.5t-8.5 21.5t8.5 21.5t20.5 8.5q13 0 21.5 -8.5t8.5 -21.5t-8.5 -21.5t-21.5 -8.5z" />
    <glyph glyph-name="uni05C2" unicode="&#x5c2;" horiz-adv-x="0" 
d="M680 811q-12 0 -20.5 8.5t-8.5 21.5t8.5 21.5t20.5 8.5q13 0 21.5 -8.5t8.5 -21.5t-8.5 -21.5t-21.5 -8.5z" />
    <glyph glyph-name="uni05C7" unicode="&#x5c7;" horiz-adv-x="0" 
d="M250 -133q7 0 9 -2t2 -8v-16q0 -10 -11 -10h-13q-9 -12 -9 -31v-34q0 -10 -8 -10h-24q-6 0 -6 10v34q0 13 -9 31h-16q-10 0 -10 10v16q0 10 10 10h85z" />
    <glyph glyph-name="uni05D0" unicode="&#x5d0;" horiz-adv-x="459" 
d="M334 307l96 -251v-56h-110l-7 69l-162 426v-495h-102v403q0 11 12.5 30.5t37.5 53t36 49.5l-54 143q-5 9 -13 9h-22v84h111l163 -428v428h101v-356q0 -11 -11 -25t-36 -40t-40 -44z" />
    <glyph glyph-name="uni05D1" unicode="&#x5d1;" horiz-adv-x="361" 
d="M281 772q7 0 9.5 -1t2.5 -7v-646q0 -14 3.5 -21.5t8 -9t12.5 -1.5h29v-86h-321v86h138q29 0 29 28v541q0 33 -24 33h-143v84h256z" />
    <glyph glyph-name="uni05D2" unicode="&#x5d2;" horiz-adv-x="311" 
d="M236 229l65 -229h-93l-30 79h-10l-38 -79h-117v86h130q12 0 19 11.5t4 20.5l-31 108v437q0 10 -7.5 17.5t-17.5 7.5h-62v84h179q6 0 7.5 -2t1.5 -12v-529z" />
    <glyph glyph-name="uni05D3" unicode="&#x5d3;" horiz-adv-x="395" 
d="M355 772v-84h-29q-26 0 -26 -33v-655h-100v658q0 13 -7.5 20.5t-14.5 8.5l-8 1h-145v84h330z" />
    <glyph glyph-name="uni05D4" unicode="&#x5d4;" horiz-adv-x="402" 
d="M350 772q11 0 11 -8v-764h-101v657q0 11 -6 21t-20 10h-194v84h310zM49 558h101v-558h-101v558z" />
    <glyph glyph-name="uni05D5" unicode="&#x5d5;" horiz-adv-x="217" 
d="M166 772q11 0 11 -8v-764h-101v655q0 11 -8.5 22t-20.5 11h-17v84h136z" />
    <glyph glyph-name="uni05D6" unicode="&#x5d6;" horiz-adv-x="285" 
d="M260 772v-84h-31q-28 0 -33 -28q-1 -4 -10 -47.5t-17 -86.5t-8 -51q0 -11 36.5 -101t36.5 -102q0 -11 -8 -70t-17 -124.5t-10 -77.5h-101q33 258 33 272q0 9 -36 99.5t-36 103.5t14 78.5t22 93.5q5 18 -2.5 28t-16.5 11l-10 2h-41v84h235z" />
    <glyph glyph-name="uni05D7" unicode="&#x5d7;" horiz-adv-x="416" 
d="M361 772q13 0 13 -8v-764h-101v667q0 21 -21 21h-88q-9 0 -14.5 -5t-5.5 -11l-1 -5v-667h-100v764q0 8 8 8h310z" />
    <glyph glyph-name="uni05D8" unicode="&#x5d8;" horiz-adv-x="436" 
d="M380 772q13 0 13 -8v-756q0 -8 -13 -8h-310q-9 0 -9 8v647q0 11 -8 22t-20 11v84h118q12 0 12 -8v-653q0 -25 20 -25h85q25 0 25 19v493q0 25 -25 25h-27v86l63 63h76z" />
    <glyph glyph-name="uni05D9" unicode="&#x5d9;" horiz-adv-x="205" 
d="M154 772q11 0 11 -10v-390h-100v283q0 13 -7.5 23t-22.5 10h-15v84h134z" />
    <glyph glyph-name="uni05DA" unicode="&#x5da;" horiz-adv-x="330" 
d="M255 772q20 0 26 -7t6 -33v-822h-100v745q0 33 -32 33h-130v84h230z" />
    <glyph glyph-name="uni05DB" unicode="&#x5db;" horiz-adv-x="330" 
d="M255 772q20 0 26 -7t6 -33v-627q0 -35 -25 -70t-63 -35h-174v86h119q21 0 32 13t11 31v525q0 33 -32 33h-130v84h230z" />
    <glyph glyph-name="uni05DC" unicode="&#x5dc;" horiz-adv-x="358" 
d="M125 878v-106h179q13 0 13 -8v-336l-110 -353v-75h-102v77l111 340v247q0 24 -21 24h-170v190h100z" />
    <glyph glyph-name="uni05DD" unicode="&#x5dd;" horiz-adv-x="443" 
d="M394 772q8 0 8 -8v-764h-332v650q0 16 -6.5 24t-23.5 10v88h354zM300 86v577q0 25 -23 25h-107v-602h130z" />
    <glyph glyph-name="uni05DE" unicode="&#x5de;" horiz-adv-x="443" 
d="M374 772q19 0 26 -7t7 -33v-627q0 -34 -26 -69.5t-64 -35.5h-79v86h30q38 0 38 32v537q0 33 -33 33h-103v-688h-100v655q0 11 -8.5 22t-21.5 11h-1v84h121q6 0 8 -1t2 -7v-58l68 66h136z" />
    <glyph glyph-name="uni05DF" unicode="&#x5df;" horiz-adv-x="207" 
d="M160 772q6 0 8 -1t2 -7v-854h-100v744q0 34 -27 34h-18v84h135z" />
    <glyph glyph-name="uni05E0" unicode="&#x5e0;" horiz-adv-x="246" 
d="M195 772q8 0 8 -8v-756q0 -8 -8 -8h-170v86h58q9 0 14 5t5 9l1 5v558q0 25 -25 25h-44v84h161z" />
    <glyph glyph-name="uni05E1" unicode="&#x5e1;" horiz-adv-x="428" 
d="M378 772q9 0 9 -8v-650q0 -44 -29 -79t-60 -35h-168q-29 0 -53 34.5t-24 79.5v536q0 8 -7 16t-14 12t-7 2v92h353zM286 664q0 24 -21 24h-110v-561q0 -34 16 -43q10 -6 27 -6h44q7 0 13 1t10 2.5t7.5 4.5t5.5 4.5t4 6t2.5 6.5t1 6.5t0.5 6v6.5v5v537z" />
    <glyph glyph-name="uni05E2" unicode="&#x5e2;" horiz-adv-x="429" 
d="M380 772q7 0 8 -1t1 -7v-659q0 -35 -24 -70t-61 -35h-284v86h32q11 0 19.5 8.5t8.5 19.5v537q0 21 -21 29q-8 3 -8 0v92h121q7 0 8 -1t1 -7v-678h69q38 0 38 44v519q0 11 -7 19t-14.5 11t-7.5 1v92h121z" />
    <glyph glyph-name="uni05E3" unicode="&#x5e3;" horiz-adv-x="400" 
d="M325 772q20 0 26.5 -7t6.5 -33v-822h-101v745q0 33 -32 33h-65q-25 0 -25 -33v-208q0 -8 6.5 -14.5t12.5 -10.5l6 -3v-89h-85q-41 0 -41 48v383q0 11 9 11h282z" />
    <glyph glyph-name="uni05E4" unicode="&#x5e4;" horiz-adv-x="403" 
d="M330 772q20 0 26.5 -7t6.5 -33v-627q0 -35 -25.5 -70t-64.5 -35h-227v86h175q21 0 30.5 13.5t9.5 30.5v525q0 11 -8.5 22t-23.5 11h-65q-24 0 -24 -33v-208q0 -5 2.5 -9.5t6 -7.5t7 -5t6.5 -3l2 -2v-90h-82q-42 0 -42 48v383q0 11 9 11h281z" />
    <glyph glyph-name="uni05E5" unicode="&#x5e5;" horiz-adv-x="407" 
d="M265 772h100v-377q0 -24 -13 -38t-75 -55l48 -152q5 -19 5 -39v-201h-101v160q0 15 -5 45.5t-9 40.5l-190 616h105l135 -431v431z" />
    <glyph glyph-name="uni05E6" unicode="&#x5e6;" horiz-adv-x="397" 
d="M356 400q0 -8 -1.5 -13.5t-8.5 -13t-14.5 -13t-27 -21.5t-37.5 -31l88 -308h-330v86h200l-163 590q-3 12 -16 12h-20v84h109l120 -421v421h101v-372z" />
    <glyph glyph-name="uni05E7" unicode="&#x5e7;" horiz-adv-x="430" 
d="M283 75v-75h-101v75l107 346v243q0 24 -22 24h-227v84h337q13 0 13 -8v-336zM144 -90h-100v648h100v-648z" />
    <glyph glyph-name="uni05E8" unicode="&#x5e8;" horiz-adv-x="337" 
d="M287 772q9 0 9 -8v-764h-101v660q0 10 -7 19t-20 9h-151v84h270z" />
    <glyph glyph-name="uni05E9" unicode="&#x5e9;" horiz-adv-x="606" 
d="M554 771q5 0 7 -0.5t3.5 -2.5t1.5 -6v-658q0 -36 -25.5 -70.5t-64.5 -34.5h-329q-39 0 -64.5 34.5t-25.5 70.5v550q0 8 -8 16.5t-16 13t-8 2.5v85h125q7 0 7 -9v-646q0 -13 10 -22t22 -9h42q12 0 20.5 10.5t8.5 22.5v536q0 8 -8 16.5t-16 13.5t-8 4v84h120q13 0 13 -8
v-647q0 -31 29 -31h43q13 0 22.5 9.5t9.5 21.5v538q0 8 -8 17t-16 14t-8 2v84z" />
    <glyph glyph-name="uni05EA" unicode="&#x5ea;" horiz-adv-x="441" 
d="M385 772q13 0 13 -8v-764h-100v663q0 25 -25 25h-78q-21 0 -21 -21v-568q0 -46 -23.5 -72.5t-58.5 -26.5h-75v86h28q28 0 28 28v536q0 8 -8.5 16t-17.5 12t-9 2v92h347z" />
    <glyph glyph-name="uni05F3" unicode="&#x5f3;" horiz-adv-x="186" 
d="M143 772v-122l-43 -60h-16h-2v59q0 9 -5 14.5t-11 6.5h-5h-21v102h103z" />
    <glyph glyph-name="uni05F4" unicode="&#x5f4;" horiz-adv-x="298" 
d="M134 772v-122l-43 -60h-16h-2v59q0 9 -5.5 14.5t-10.5 6.5h-5h-21v102h103zM272 772v-122l-43 -60h-16h-1v20.5v25v13.5q0 9 -5.5 14.5t-10.5 6.5h-6h-21v102h103z" />
    <glyph glyph-name="Wgrave" unicode="&#x1e80;" horiz-adv-x="653" 
d="M382 859l-12 -1h-25h-5l-81 138h81zM603 772l-76 -721q-5 -38 -10 -44.5t-35 -6.5h-50q-31 0 -37.5 6t-9.5 33q0 8 -1 12l-65 534l-67 -533q-5 -38 -10 -45t-34 -7h-51q-33 0 -39 6.5t-9 44.5l-76 721h98l46 -634l86 634h109l86 -634l45 634h100z" />
    <glyph glyph-name="wgrave" unicode="&#x1e81;" horiz-adv-x="653" 
d="M395 859q-1 0 -13 -0.5t-24 -0.5h-5l-81 138h81zM603 772l-76 -721q-5 -38 -10 -44.5t-35 -6.5h-50q-31 0 -37.5 6t-9.5 33q0 8 -1 12l-65 534l-67 -533q-5 -38 -10 -45t-34 -7h-51q-33 0 -39 6.5t-9 44.5l-76 721h98l46 -634l86 634h109l86 -634l45 634h100z" />
    <glyph glyph-name="Wacute" unicode="&#x1e82;" horiz-adv-x="653" 
d="M299 996h81l-81 -138h-5q-12 0 -24.5 0.5t-13.5 0.5zM603 772l-76 -721q-5 -38 -10 -44.5t-35 -6.5h-50q-31 0 -37.5 6t-9.5 33q0 8 -1 12l-65 534l-67 -533q-5 -38 -10 -45t-34 -7h-51q-33 0 -39 6.5t-9 44.5l-76 721h98l46 -634l86 634h109l86 -634l45 634h100z" />
    <glyph glyph-name="wacute" unicode="&#x1e83;" horiz-adv-x="653" 
d="M312 996h81l-81 -138h-5q-12 0 -24.5 0.5t-13.5 0.5zM603 772l-76 -721q-5 -38 -10 -44.5t-35 -6.5h-50q-31 0 -37.5 6t-9.5 33q0 8 -1 12l-65 534l-67 -533q-5 -38 -10 -45t-34 -7h-51q-33 0 -39 6.5t-9 44.5l-76 721h98l46 -634l86 634h109l86 -634l45 634h100z" />
    <glyph glyph-name="Wdieresis" unicode="&#x1e84;" horiz-adv-x="653" 
d="M260 967v-86h-85v86h85zM462 967v-86h-85v86h85zM603 772l-76 -721q-5 -38 -10 -44.5t-35 -6.5h-50q-31 0 -37.5 6t-9.5 33q0 8 -1 12l-65 534l-67 -533q-5 -38 -10 -45t-34 -7h-51q-33 0 -39 6.5t-9 44.5l-76 721h98l46 -634l86 634h109l86 -634l45 634h100z" />
    <glyph glyph-name="wdieresis" unicode="&#x1e85;" horiz-adv-x="653" 
d="M273 967v-86h-85v86h85zM475 967v-86h-85v86h85zM603 772l-76 -721q-5 -38 -10 -44.5t-35 -6.5h-50q-31 0 -37.5 6t-9.5 33q0 8 -1 12l-65 534l-67 -533q-5 -38 -10 -45t-34 -7h-51q-33 0 -39 6.5t-9 44.5l-76 721h98l46 -634l86 634h109l86 -634l45 634h100z" />
    <glyph glyph-name="Ygrave" unicode="&#x1ef2;" 
d="M272 859l-12 -1h-25h-5l-81 138h81zM291 772h98l-128 -307v-465h-100v456l-128 316h97l79 -208z" />
    <glyph glyph-name="ygrave" unicode="&#x1ef3;" 
d="M265 859q-1 0 -12.5 -0.5t-24.5 -0.5h-5l-81 138h81zM291 772h98l-128 -307v-465h-100v456l-128 316h97l79 -208z" />
    <glyph glyph-name="endash" unicode="&#x2013;" horiz-adv-x="533" 
d="M493 387h-453v85h453v-85z" />
    <glyph glyph-name="emdash" unicode="&#x2014;" horiz-adv-x="888" 
d="M832 387h-776v85h776v-85z" />
    <glyph glyph-name="quoteright" unicode="&#x2019;" horiz-adv-x="600" 
d="M446 754v-123l-43 -59h-16h-2v58q0 9 -5.5 14.5t-10.5 5.5l-5 1h-21v103h103z" />
    <glyph glyph-name="quotesinglbase" unicode="&#x201a;" horiz-adv-x="216" 
d="M160 86v-123l-43 -59h-16h-2q1 8 1 19.5t-0.5 24t-0.5 14.5q0 9 -5.5 14.5t-10.5 5.5l-5 1h-21v103h103z" />
    <glyph glyph-name="quotedblbase" unicode="&#x201e;" horiz-adv-x="216" 
d="M57 86h103v-123l-43 -59h-16h-2q1 8 1 19.5t-0.5 24t-0.5 14.5q0 9 -5.5 14.5t-10.5 5.5l-5 1h-21v103z" />
    <glyph glyph-name="dagger" unicode="&#x2020;" horiz-adv-x="533" 
d="M493 683v-85h-173v-923h-100v923h-180v85h180v382h100v-382h173z" />
    <glyph glyph-name="daggerdbl" unicode="&#x2021;" horiz-adv-x="533" 
d="M493 683v-85h-173v-435h173v-85h-173v-403h-100v403h-180v85h180v435h-180v85h180v382h100v-382h173z" />
    <glyph glyph-name="bullet" unicode="&#x2022;" horiz-adv-x="205" 
d="M103 434q26 0 46.5 -21t20.5 -49q0 -29 -20 -49.5t-47 -20.5q-28 0 -48.5 20.5t-20.5 49.5q0 28 20.5 49t48.5 21z" />
    <glyph glyph-name="ellipsis" unicode="&#x2026;" horiz-adv-x="606" 
d="M157 86v-103h-100v103h100zM351 86v-103h-100v103h100zM548 86v-103h-100v103h100z" />
    <glyph glyph-name="perthousand" unicode="&#x2030;" horiz-adv-x="1336" 
d="M359 430q0 -35 -25 -70t-64 -35h-123q-39 0 -64.5 35t-25.5 70v204q0 36 25.5 71t64.5 35h123q39 0 64 -35t25 -71v-204zM291 0h-115l478 736l1 4h116l-477 -735zM259 638q0 13 -10 22.5t-23 9.5h-37q-12 0 -22 -9.5t-10 -22.5v-212q0 -12 10 -21.5t22 -9.5h37
q13 0 23 9.5t10 21.5v212zM800 415q39 0 64 -35t25 -71v-204q0 -36 -25 -70.5t-64 -34.5h-124q-39 0 -64.5 35t-25.5 70v204q0 36 25.5 71t64.5 35h124zM1190 415q39 0 64 -35t25 -71v-204q0 -36 -25 -70.5t-64 -34.5h-124q-39 0 -64.5 35t-25.5 70v204q0 36 25.5 71
t64.5 35h124zM788 313q0 13 -9.5 22.5t-23.5 9.5h-36q-13 0 -22 -9.5t-9 -22.5v-212q0 -12 9 -21.5t22 -9.5h36q14 0 23.5 9.5t9.5 21.5v212zM1178 313q0 13 -9.5 22.5t-23.5 9.5h-36q-13 0 -22 -9.5t-9 -22.5v-212q0 -12 9 -21.5t22 -9.5h36q14 0 23.5 9.5t9.5 21.5v212z
" />
    <glyph glyph-name="guilsinglleft" unicode="&#x2039;" 
d="M170 378l188 -221l-39 -36l-260 257l260 260l40 -39z" />
    <glyph glyph-name="guilsinglright" unicode="&#x203a;" 
d="M248 378l-188 221l41 39l260 -260l-260 -257l-39 36z" />
    <glyph glyph-name="fraction" unicode="&#x2044;" horiz-adv-x="658" 
d="M590 772q18 0 7 -32l-468 -750q-1 -3 -2.5 -8t-2.5 -7.5t-3 -5t-5 -2.5h-46q-10 0 -13.5 10t2.5 24l468 750q1 2 2 6t2 5.5t2 4t2.5 3t4 1.5t5.5 1h45z" />
    <glyph glyph-name="uni20AA" unicode="&#x20aa;" horiz-adv-x="675" 
d="M445 522q13 0 13 -8v-364h-101v267q0 7 -6 14t-15 7h-170q-9 0 -14.5 -5t-5.5 -11l-1 -5v-417h-100v514q0 8 8 8h392zM618 521q5 0 7 -0.5t3.5 -2.5t1.5 -6v-408q0 -36 -25.5 -70.5t-64.5 -34.5h-251q-39 0 -64.5 34.5t-25.5 70.5v274h93q7 0 7 -9v-253q0 -13 10 -22
t22 -9l166 1q13 0 22.5 9.5t9.5 21.5v288q0 8 -8 17t-16 14t-8 2v84z" />
    <glyph glyph-name="Euro" unicode="&#x20ac;" horiz-adv-x="447" 
d="M290 182h100v-57q0 -59 -33.5 -92t-91.5 -33h-57q-57 0 -90 35.5t-33 102.5v136h-45v86h45v60h-45v85h45v127q0 67 33 102.5t90 35.5h57q58 0 91.5 -33t33.5 -92v-57h-100v44q0 22 -13.5 37t-32.5 15h-11q-21 0 -34 -15t-13 -37v-127h62v-85h-62v-60h62v-86h-62v-136
q0 -22 13 -37t34 -15h11q19 0 32.5 15t13.5 37v44z" />
    <glyph glyph-name="trademark" unicode="&#x2122;" horiz-adv-x="837" 
d="M316 740v-85h-57q-6 0 -11 -1.5t-7.5 -4t-4.5 -5.5t-2.5 -6.5t-0.5 -6v-5.5v-3v-298h-100v300q0 13 -7.5 20.5t-15.5 8.5l-7 1h-61v85h274zM772 740v-415h-100v283l-57 -182h-72l-62 180v-281h-102v415h127l73 -209l70 209h123z" />
    <glyph glyph-name="oneeighth" unicode="&#x215b;" horiz-adv-x="969" 
d="M720 755q18 0 7 -32l-468 -750q-1 -3 -2.5 -8t-2.5 -7.5t-3 -5t-5 -2.5h-46q-10 0 -13.5 10t2.5 24l468 750q1 2 2 6t2 5.5t2 4t2.5 3t4 1.5t5.5 1h45zM320 394v-86h-250v86h80v212q0 11 -8.5 21.5t-20.5 10.5q-10 0 -64 -31v69l87 47h95q12 0 12 -8v-321h69zM788 398
q124 0 124 -106v-9q0 -59 -68 -91q18 -9 28.5 -15t25 -29t14.5 -53v-7q0 -105 -124 -105h-80q-124 0 -124 105v7q0 29 13 50.5t24 29t30 16.5q-67 39 -67 92v9q0 106 124 106h80zM812 292q0 13 -14 24.5t-33 11.5h-33q-19 0 -33.5 -11.5t-14.5 -24.5v-15q0 -17 11 -30
t32 -13h42q21 0 32 13t11 30v15zM812 105q0 17 -11.5 29.5t-31.5 12.5h-42q-19 0 -31 -12.5t-12 -29.5v-17q0 -16 14.5 -25.5t33.5 -9.5h33q18 0 32.5 9.5t14.5 25.5v17z" />
    <glyph glyph-name="threeeighths" unicode="&#x215c;" horiz-adv-x="969" 
d="M720 755q18 0 7 -32l-468 -750q-1 -3 -2.5 -8t-2.5 -7.5t-3 -5t-5 -2.5h-46q-10 0 -13.5 10t2.5 24l468 750q1 2 2 6t2 5.5t2 4t2.5 3t4 1.5t5.5 1h45zM330 608q0 -41 -21.5 -60.5t-45.5 -21.5q21 0 44 -26.5t23 -69.5v-6q0 -62 -36 -89t-88 -27h-57q-58 0 -91.5 33
t-33.5 92v9h100q2 -20 15 -34t31 -14h12h4h7t6.5 0.5t7 1.5t6.5 2.5t6 4.5t4.5 6.5t3.5 9t1 11.5v28q0 16 -11 29t-30 13h-56v37h56q19 0 30 11t11 28v23q0 38 -46 38h-12q-18 0 -31 -14t-15 -34h-100v9q0 59 33.5 92t91.5 33h57q56 0 90 -31t34 -75v-9zM788 398
q124 0 124 -106v-9q0 -59 -68 -91q18 -9 28.5 -15t25 -29t14.5 -53v-7q0 -105 -124 -105h-80q-124 0 -124 105v7q0 29 13 50.5t24 29t30 16.5q-67 39 -67 92v9q0 106 124 106h80zM812 292q0 13 -14 24.5t-33 11.5h-33q-19 0 -33.5 -11.5t-14.5 -24.5v-15q0 -17 11 -30
t32 -13h42q21 0 32 13t11 30v15zM812 105q0 17 -11.5 29.5t-31.5 12.5h-42q-19 0 -31 -12.5t-12 -29.5v-17q0 -16 14.5 -25.5t33.5 -9.5h33q18 0 32.5 9.5t14.5 25.5v17z" />
    <glyph glyph-name="fiveeighths" unicode="&#x215d;" horiz-adv-x="969" 
d="M720 755q18 0 7 -32l-468 -750q-1 -3 -2.5 -8t-2.5 -7.5t-3 -5t-5 -2.5h-46q-10 0 -13.5 10t2.5 24l468 750q1 2 2 6t2 5.5t2 4t2.5 3t4 1.5t5.5 1h45zM244 578q120 0 120 -126v-6q0 -68 -32.5 -103t-90.5 -35h-59q-56 0 -89.5 31.5t-35.5 86.5h100q6 -32 46 -32h13
q21 0 34.5 15t13.5 37v23q0 22 -13.5 37t-34.5 15h-13q-16 0 -29.5 -9.5t-16.5 -22.5h-100v193q0 27 6.5 34t26.5 7h265v-85h-165q-33 0 -33 -32v-46h7q14 18 65 18h15zM788 398q124 0 124 -106v-9q0 -59 -68 -91q18 -9 28.5 -15t25 -29t14.5 -53v-7q0 -105 -124 -105h-80
q-124 0 -124 105v7q0 29 13 50.5t24 29t30 16.5q-67 39 -67 92v9q0 106 124 106h80zM812 292q0 13 -14 24.5t-33 11.5h-33q-19 0 -33.5 -11.5t-14.5 -24.5v-15q0 -17 11 -30t32 -13h42q21 0 32 13t11 30v15zM812 105q0 17 -11.5 29.5t-31.5 12.5h-42q-19 0 -31 -12.5
t-12 -29.5v-17q0 -16 14.5 -25.5t33.5 -9.5h33q18 0 32.5 9.5t14.5 25.5v17z" />
    <glyph glyph-name="seveneighths" unicode="&#x215e;" horiz-adv-x="969" 
d="M688 755q18 0 7 -32l-468 -750q-1 -3 -2.5 -8t-2.5 -7.5t-3 -5t-5 -2.5h-46q-10 0 -13.5 10t2.5 24l468 750q1 2 2 6t2 5.5t2 4t2.5 3t4 1.5t5.5 1h45zM57 723h298v-72q0 -24 -16 -70l-130 -273h-100l137 286q4 16 -2 30t-24 14h-163v85zM773 398q124 0 124 -106v-9
q0 -59 -68 -91q18 -9 28.5 -15t25 -29t14.5 -53v-7q0 -105 -124 -105h-80q-124 0 -124 105v7q0 29 13 50.5t24 29t30 16.5q-67 39 -67 92v9q0 106 124 106h80zM797 292q0 13 -14 24.5t-33 11.5h-33q-19 0 -33.5 -11.5t-14.5 -24.5v-15q0 -17 11 -30t32 -13h42q21 0 32 13
t11 30v15zM797 105q0 17 -11.5 29.5t-31.5 12.5h-42q-19 0 -31 -12.5t-12 -29.5v-17q0 -16 14.5 -25.5t33.5 -9.5h33q18 0 32.5 9.5t14.5 25.5v17z" />
    <glyph glyph-name="arrowleft" unicode="&#x2190;" horiz-adv-x="855" 
d="M798 329h-622l141 -142l-63 -62l-195 194q-2 2 -2 6l2 111l192 195l62 -65l-132 -136h617v-101z" />
    <glyph glyph-name="arrowup" unicode="&#x2191;" horiz-adv-x="623" 
d="M501 481l-142 140v-621h-100v618l-137 -136l-63 64l195 194h109q3 0 6 -2l195 -193z" />
    <glyph glyph-name="arrowright" unicode="&#x2192;" horiz-adv-x="855" 
d="M798 325q0 -5 -1 -6l-195 -194l-64 62l142 143h-621v100h616l-134 136l64 65l192 -195q0 1 1 0v-111z" />
    <glyph glyph-name="arrowdown" unicode="&#x2193;" horiz-adv-x="623" 
d="M564 189l-195 -194q-3 -2 -6 -2h-109l-195 194l63 64l137 -135v617h100v-621l142 140z" />
    <glyph glyph-name="arrowboth" unicode="&#x2194;" horiz-adv-x="840" 
d="M784 325q0 -4 -3 -8l-192 -192l-62 62l140 143h-491l140 -141l-65 -64l-192 194q-2 3 -2 7v108l194 197l62 -64l-134 -137h483l-135 137l62 62l195 -193v-111z" />
    <glyph glyph-name="arrowupdn" unicode="&#x2195;" horiz-adv-x="623" 
d="M501 270l63 -63l-195 -194q-1 -1 -6 -1h-109l-195 193l63 63l137 -134v484l-137 -136l-63 64l195 194h109q3 0 6 -2l195 -193l-63 -64l-142 140v-491z" />
    <glyph glyph-name="uni2196" unicode="&#x2196;" horiz-adv-x="716" 
d="M585 1l-437 436v-191l-91 1l3 273l77 79q1 3 6 3h277v-88h-202l439 -442z" />
    <glyph glyph-name="uni2197" unicode="&#x2197;" horiz-adv-x="715" 
d="M660 246h-93v191l-436 -436l-71 71l439 442h-200v88h274q6 0 7 -3l77 -79z" />
    <glyph glyph-name="uni2198" unicode="&#x2198;" horiz-adv-x="715" 
d="M660 355l-3 -273l-77 -81q-1 -1 -7 -1h-275v88h201l-439 442l71 69l438 -435v192z" />
    <glyph glyph-name="uni2199" unicode="&#x2199;" horiz-adv-x="716" 
d="M417 88v-88h-274q-5 0 -6 1l-77 81l-3 274h93v-192l435 435l72 -69l-439 -442h199z" />
    <glyph glyph-name="minus" unicode="&#x2212;" horiz-adv-x="975" 
d="M832 387h-776v85h776v-85z" />
    <glyph glyph-name="approxequal" unicode="&#x2248;" horiz-adv-x="517" 
d="M460 446l-4 -3q-75 -28 -121 -30q-17 0 -74 24.5t-82 24.5q-46 0 -122 -29v68q82 31 132 31q23 0 78 -25t79 -25q32 0 114 30v-66zM57 338q75 31 132 31q23 0 78 -24.5t79 -24.5q39 0 114 30v-67l-4 -2q-70 -29 -121 -30q-17 0 -74 24t-82 24q-46 0 -122 -29v68z" />
    <glyph glyph-name="notequal" unicode="&#x2260;" horiz-adv-x="537" 
d="M493 419h-175l-36 -111h211v-84h-238l-80 -251q-1 -3 -2.5 -8t-2.5 -7.5t-3 -5t-5 -2.5h-46q-10 0 -13.5 10t2.5 24l77 240h-142v84h169l35 111h-204v84h231l74 231q1 2 2 6t2 5.5t2 4t2.5 3t4 1.5t5.5 1h46q18 0 6 -32l-70 -220h148v-84z" />
    <glyph glyph-name="lessequal" unicode="&#x2264;" horiz-adv-x="476" 
d="M66 411l245 244l71 -70l-173 -174l173 -172l-71 -70zM420 85v-85h-363v85h363z" />
    <glyph glyph-name="greaterequal" unicode="&#x2265;" horiz-adv-x="493" 
d="M111 584l71 71l244 -244l-244 -242l-71 70l172 172zM436 0h-363v85h363v-85z" />
    <glyph glyph-name="lozenge" unicode="&#x25ca;" horiz-adv-x="758" 
d="M303 651q25 27 65.5 33t72.5 -21l236 -235q26 -34 20.5 -73.5t-30.5 -64.5l-213 -213q-26 -26 -65.5 -32.5t-72.5 20.5l-237 235q-27 34 -20.5 74t32.5 65zM407 576q-22 16 -42 -4l-197 -198q-14 -20 0 -39l178 -178q10 -10 22.5 -10t21.5 9l196 196q9 9 9 22t-10 23z
" />
    <glyph glyph-name="uniFB21" unicode="&#xfb21;" horiz-adv-x="565" 
d="M405 296l125 -240v-56h-110l-7 69l-250 458l-2 -13v-514h-102v403q0 12 14.5 34t40.5 56.5t39 53.5l-72 132q-5 9 -13 9h-22v84h111l243 -466v466h101v-356q0 -12 -13 -27.5t-39 -42.5t-44 -50z" />
    <glyph glyph-name="uniFB22" unicode="&#xfb22;" horiz-adv-x="480" 
d="M455 772v-84h-49q-26 0 -26 -33v-655h-100v658q0 13 -7.5 20.5t-14.5 8.5l-8 1h-225v84h430z" />
    <glyph glyph-name="uniFB23" unicode="&#xfb23;" horiz-adv-x="502" 
d="M450 772q11 0 11 -8v-764h-101v657q0 11 -6 21t-20 10h-294v84h410zM49 558h101v-558h-101v558z" />
    <glyph glyph-name="uniFB24" unicode="&#xfb24;" horiz-adv-x="422" 
d="M355 772q20 0 26 -7t6 -33v-627q0 -35 -25 -70t-63 -35h-274v86h219q21 0 32 13t11 31v525q0 33 -32 33h-230v84h330z" />
    <glyph glyph-name="uniFB25" unicode="&#xfb25;" horiz-adv-x="442" 
d="M125 878v-106h279q13 0 13 -8v-336l-110 -353v-75h-102v77l111 340v247q0 24 -21 24h-270v190h100z" />
    <glyph glyph-name="uniFB26" unicode="&#xfb26;" horiz-adv-x="547" 
d="M494 772q8 0 8 -8v-764h-432v650q0 16 -6.5 24t-23.5 10v88h454zM400 86v577q0 25 -23 25h-207v-602h230z" />
    <glyph glyph-name="uniFB27" unicode="&#xfb27;" horiz-adv-x="441" 
d="M387 772q9 0 9 -8v-764h-101v660q0 10 -7 19t-20 9h-251v84h370z" />
    <glyph glyph-name="uniFB28" unicode="&#xfb28;" horiz-adv-x="543" 
d="M485 772q13 0 13 -8v-764h-100v663q0 25 -25 25h-178q-21 0 -21 -21v-568q0 -46 -23.5 -72.5t-58.5 -26.5h-75v86h29q9 0 18 8.5t9 19.5v536q0 8 -8.5 16t-17.5 12t-9 2v92h447z" />
    <glyph glyph-name="uniFB2A" unicode="&#xfb2a;" horiz-adv-x="606" 
d="M506 805q-12 0 -20.5 8.5t-8.5 21.5t8.5 21.5t20.5 8.5q13 0 21.5 -8.5t8.5 -21.5t-8.5 -21.5t-21.5 -8.5zM554 771q5 0 7 -0.5t3.5 -2.5t1.5 -6v-658q0 -36 -25.5 -70.5t-64.5 -34.5h-329q-39 0 -64.5 34.5t-25.5 70.5v550q0 8 -8 16.5t-16 13t-8 2.5v85h125q7 0 7 -9
v-646q0 -13 10 -22t22 -9h42q12 0 20.5 10.5t8.5 22.5v536q0 8 -8 16.5t-16 13.5t-8 4v84h120q13 0 13 -8v-647q0 -31 29 -31h43q13 0 22.5 9.5t9.5 21.5v538q0 8 -8 17t-16 14t-8 2v84z" />
    <glyph glyph-name="uniFB2B" unicode="&#xfb2b;" horiz-adv-x="606" 
d="M89 803q-12 0 -20.5 8.5t-8.5 21.5t8.5 21.5t20.5 8.5q13 0 21.5 -8.5t8.5 -21.5t-8.5 -21.5t-21.5 -8.5zM554 771q5 0 7 -0.5t3.5 -2.5t1.5 -6v-658q0 -36 -25.5 -70.5t-64.5 -34.5h-329q-39 0 -64.5 34.5t-25.5 70.5v550q0 8 -8 16.5t-16 13t-8 2.5v85h125q7 0 7 -9
v-646q0 -13 10 -22t22 -9h42q12 0 20.5 10.5t8.5 22.5v536q0 8 -8 16.5t-16 13.5t-8 4v84h120q13 0 13 -8v-647q0 -31 29 -31h43q13 0 22.5 9.5t9.5 21.5v538q0 8 -8 17t-16 14t-8 2v84z" />
    <glyph glyph-name="uniFB2C" unicode="&#xfb2c;" horiz-adv-x="606" 
d="M506 805q-12 0 -20.5 8.5t-8.5 21.5t8.5 21.5t20.5 8.5q13 0 21.5 -8.5t8.5 -21.5t-8.5 -21.5t-21.5 -8.5zM554 771q5 0 7 -0.5t3.5 -2.5t1.5 -6v-658q0 -36 -25.5 -70.5t-64.5 -34.5h-329q-39 0 -64.5 34.5t-25.5 70.5v550q0 8 -8 16.5t-16 13t-8 2.5v85h125q7 0 7 -9
v-646q0 -13 10 -22t22 -9h42q12 0 20.5 10.5t8.5 22.5v536q0 8 -8 16.5t-16 13.5t-8 4v84h120q13 0 13 -8v-647q0 -31 29 -31h43q13 0 22.5 9.5t9.5 21.5v538q0 8 -8 17t-16 14t-8 2v84zM411 359q-12 0 -20.5 8.5t-8.5 21.5t8.5 21.5t20.5 8.5q13 0 21.5 -8.5t8.5 -21.5
t-8.5 -21.5t-21.5 -8.5z" />
    <glyph glyph-name="uniFB2D" unicode="&#xfb2d;" horiz-adv-x="606" 
d="M89 803q-12 0 -20.5 8.5t-8.5 21.5t8.5 21.5t20.5 8.5q13 0 21.5 -8.5t8.5 -21.5t-8.5 -21.5t-21.5 -8.5zM554 771q5 0 7 -0.5t3.5 -2.5t1.5 -6v-658q0 -36 -25.5 -70.5t-64.5 -34.5h-329q-39 0 -64.5 34.5t-25.5 70.5v550q0 8 -8 16.5t-16 13t-8 2.5v85h125q7 0 7 -9
v-646q0 -13 10 -22t22 -9h42q12 0 20.5 10.5t8.5 22.5v536q0 8 -8 16.5t-16 13.5t-8 4v84h120q13 0 13 -8v-647q0 -31 29 -31h43q13 0 22.5 9.5t9.5 21.5v538q0 8 -8 17t-16 14t-8 2v84zM411 359q-12 0 -20.5 8.5t-8.5 21.5t8.5 21.5t20.5 8.5q13 0 21.5 -8.5t8.5 -21.5
t-8.5 -21.5t-21.5 -8.5z" />
    <glyph glyph-name="uniFB2E" unicode="&#xfb2e;" horiz-adv-x="459" 
d="M334 307l96 -251v-56h-110l-7 69l-162 426v-495h-102v403q0 11 12.5 30.5t37.5 53t36 49.5l-54 143q-5 9 -13 9h-22v84h111l163 -428v428h101v-356q0 -11 -11 -25t-36 -40t-40 -44zM300 -63q7 0 9 -2t2 -8v-16q0 -10 -11 -10h-150q-10 0 -10 10v16q0 10 10 10h150z" />
    <glyph glyph-name="uniFB2F" unicode="&#xfb2f;" horiz-adv-x="459" 
d="M334 307l96 -251v-56h-110l-7 69l-162 426v-495h-102v403q0 11 12.5 30.5t37.5 53t36 49.5l-54 143q-5 9 -13 9h-22v84h111l163 -428v428h101v-356q0 -11 -11 -25t-36 -40t-40 -44zM298 -54q12 0 12 -10v-16q0 -10 -12 -10h-39q-9 -14 -9 -31v-34q0 -10 -8 -10h-23
q-7 0 -7 10v34q0 13 -9 31h-42q-10 0 -10 10v16q0 10 10 10h137z" />
    <glyph glyph-name="uniFB30" unicode="&#xfb30;" horiz-adv-x="459" 
d="M334 307l96 -251v-56h-110l-7 69l-162 426v-495h-102v403q0 11 12.5 30.5t37.5 53t36 49.5l-54 143q-5 9 -13 9h-22v84h111l163 -428v428h101v-356q0 -11 -11 -25t-36 -40t-40 -44zM221 117q13 0 21.5 -8.5t8.5 -21.5t-8.5 -21.5t-21.5 -8.5q-12 0 -20.5 8.5t-8.5 21.5
t8.5 21.5t20.5 8.5z" />
    <glyph glyph-name="uniFB31" unicode="&#xfb31;" horiz-adv-x="361" 
d="M281 772q7 0 9.5 -1t2.5 -7v-646q0 -14 3.5 -21.5t8 -9t12.5 -1.5h29v-86h-321v86h138q29 0 29 28v541q0 33 -24 33h-143v84h256zM90 359q-12 0 -20.5 8.5t-8.5 21.5t8.5 21.5t20.5 8.5q13 0 21.5 -8.5t8.5 -21.5t-8.5 -21.5t-21.5 -8.5z" />
    <glyph glyph-name="uniFB32" unicode="&#xfb32;" horiz-adv-x="311" 
d="M236 229l65 -229h-93l-30 79h-10l-38 -79h-117v86h130q12 0 19 11.5t4 20.5l-31 108v437q0 10 -7.5 17.5t-17.5 7.5h-62v84h179q6 0 7.5 -2t1.5 -12v-529zM59 376q-12 0 -20.5 8.5t-8.5 21.5t8.5 21.5t20.5 8.5q13 0 21.5 -8.5t8.5 -21.5t-8.5 -21.5t-21.5 -8.5z" />
    <glyph glyph-name="uniFB33" unicode="&#xfb33;" horiz-adv-x="395" 
d="M355 772v-84h-29q-26 0 -26 -33v-655h-100v658q0 13 -7.5 20.5t-14.5 8.5l-8 1h-145v84h330zM90 359q-12 0 -20.5 8.5t-8.5 21.5t8.5 21.5t20.5 8.5q13 0 21.5 -8.5t8.5 -21.5t-8.5 -21.5t-21.5 -8.5z" />
    <glyph glyph-name="uniFB34" unicode="&#xfb34;" horiz-adv-x="402" 
d="M350 772q11 0 11 -8v-764h-101v657q0 11 -6 21t-20 10h-194v84h310zM49 558h101v-558h-101v558zM200 359q-12 0 -20.5 8.5t-8.5 21.5t8.5 21.5t20.5 8.5q13 0 21.5 -8.5t8.5 -21.5t-8.5 -21.5t-21.5 -8.5z" />
    <glyph glyph-name="uniFB35" unicode="&#xfb35;" horiz-adv-x="217" 
d="M166 772q11 0 11 -8v-764h-101v655q0 11 -8.5 22t-20.5 11h-17v84h136zM-5 359q-12 0 -20.5 8.5t-8.5 21.5t8.5 21.5t20.5 8.5q13 0 21.5 -8.5t8.5 -21.5t-8.5 -21.5t-21.5 -8.5z" />
    <glyph glyph-name="uniFB36" unicode="&#xfb36;" horiz-adv-x="285" 
d="M260 772v-84h-31q-28 0 -33 -28q-1 -4 -10 -47.5t-17 -86.5t-8 -51q0 -11 36.5 -101t36.5 -102q0 -11 -8 -70t-17 -124.5t-10 -77.5h-101q33 258 33 272q0 9 -36 99.5t-36 103.5t14 78.5t22 93.5q5 18 -2.5 28t-16.5 11l-10 2h-41v84h235zM28 367q-12 0 -20.5 8.5
t-8.5 21.5t8.5 21.5t20.5 8.5q13 0 21.5 -8.5t8.5 -21.5t-8.5 -21.5t-21.5 -8.5z" />
    <glyph glyph-name="uniFB38" unicode="&#xfb38;" horiz-adv-x="436" 
d="M380 772q13 0 13 -8v-756q0 -8 -13 -8h-310q-9 0 -9 8v647q0 11 -8 22t-20 11v84h118q12 0 12 -8v-653q0 -25 20 -25h85q25 0 25 19v493q0 25 -25 25h-27v86l63 63h76zM226 359q-12 0 -20.5 8.5t-8.5 21.5t8.5 21.5t20.5 8.5q13 0 21.5 -8.5t8.5 -21.5t-8.5 -21.5
t-21.5 -8.5z" />
    <glyph glyph-name="uniFB39" unicode="&#xfb39;" horiz-adv-x="205" 
d="M154 772q11 0 11 -10v-390h-100v283q0 13 -7.5 23t-22.5 10h-15v84h134zM7 406q-12 0 -20.5 8.5t-8.5 21.5t8.5 21.5t20.5 8.5q13 0 21.5 -8.5t8.5 -21.5t-8.5 -21.5t-21.5 -8.5z" />
    <glyph glyph-name="uniFB3A" unicode="&#xfb3a;" horiz-adv-x="330" 
d="M255 772q20 0 26 -7t6 -33v-822h-100v745q0 33 -32 33h-130v84h230zM75 408q-12 0 -20.5 8.5t-8.5 21.5t8.5 21.5t20.5 8.5q13 0 21.5 -8.5t8.5 -21.5t-8.5 -21.5t-21.5 -8.5z" />
    <glyph glyph-name="uniFB3B" unicode="&#xfb3b;" horiz-adv-x="330" 
d="M255 772q20 0 26 -7t6 -33v-627q0 -35 -25 -70t-63 -35h-174v86h119q21 0 32 13t11 31v525q0 33 -32 33h-130v84h230zM90 385q-12 0 -20.5 8.5t-8.5 21.5t8.5 21.5t20.5 8.5q13 0 21.5 -8.5t8.5 -21.5t-8.5 -21.5t-21.5 -8.5z" />
    <glyph glyph-name="uniFB3C" unicode="&#xfb3c;" horiz-adv-x="358" 
d="M125 878v-106h179q13 0 13 -8v-336l-110 -353v-75h-102v77l111 340v247q0 24 -21 24h-170v190h100zM102 379q-12 0 -20.5 8.5t-8.5 21.5t8.5 21.5t20.5 8.5q13 0 21.5 -8.5t8.5 -21.5t-8.5 -21.5t-21.5 -8.5z" />
    <glyph glyph-name="uniFB3E" unicode="&#xfb3e;" horiz-adv-x="443" 
d="M374 772q19 0 26 -7t7 -33v-627q0 -34 -26 -69.5t-64 -35.5h-79v86h30q38 0 38 32v537q0 33 -33 33h-103v-688h-100v655q0 11 -8.5 22t-21.5 11h-1v84h121q6 0 8 -1t2 -7v-58l68 66h136zM239 359q-12 0 -20.5 8.5t-8.5 21.5t8.5 21.5t20.5 8.5q13 0 21.5 -8.5t8.5 -21.5
t-8.5 -21.5t-21.5 -8.5z" />
    <glyph glyph-name="uniFB40" unicode="&#xfb40;" horiz-adv-x="246" 
d="M195 772q8 0 8 -8v-756q0 -8 -8 -8h-170v86h58q9 0 14 5t5 9l1 5v558q0 25 -25 25h-44v84h161zM36 359q-12 0 -20.5 8.5t-8.5 21.5t8.5 21.5t20.5 8.5q13 0 21.5 -8.5t8.5 -21.5t-8.5 -21.5t-21.5 -8.5z" />
    <glyph glyph-name="uniFB41" unicode="&#xfb41;" horiz-adv-x="428" 
d="M378 772q9 0 9 -8v-650q0 -44 -29 -79t-60 -35h-168q-29 0 -53 34.5t-24 79.5v536q0 8 -7 16t-14 12t-7 2v92h353zM286 664q0 24 -21 24h-110v-561q0 -34 16 -43q10 -6 27 -6h44q7 0 13 1t10 2.5t7.5 4.5t5.5 4.5t4 6t2.5 6.5t1 6.5t0.5 6v6.5v5v537zM218 359
q-12 0 -20.5 8.5t-8.5 21.5t8.5 21.5t20.5 8.5q13 0 21.5 -8.5t8.5 -21.5t-8.5 -21.5t-21.5 -8.5z" />
    <glyph glyph-name="uniFB43" unicode="&#xfb43;" horiz-adv-x="400" 
d="M325 772q20 0 26.5 -7t6.5 -33v-822h-101v745q0 33 -32 33h-65q-25 0 -25 -33v-208q0 -8 6.5 -14.5t12.5 -10.5l6 -3v-89h-85q-41 0 -41 48v383q0 11 9 11h282zM159 216q-12 0 -20.5 8.5t-8.5 21.5t8.5 21.5t20.5 8.5q13 0 21.5 -8.5t8.5 -21.5t-8.5 -21.5t-21.5 -8.5z
" />
    <glyph glyph-name="uniFB44" unicode="&#xfb44;" horiz-adv-x="403" 
d="M330 772q20 0 26.5 -7t6.5 -33v-627q0 -35 -25.5 -70t-64.5 -35h-227v86h175q21 0 30.5 13.5t9.5 30.5v525q0 11 -8.5 22t-23.5 11h-65q-24 0 -24 -33v-208q0 -5 2.5 -9.5t6 -7.5t7 -5t6.5 -3l2 -2v-90h-82q-42 0 -42 48v383q0 11 9 11h281zM159 207q-12 0 -20.5 8.5
t-8.5 21.5t8.5 21.5t20.5 8.5q13 0 21.5 -8.5t8.5 -21.5t-8.5 -21.5t-21.5 -8.5z" />
    <glyph glyph-name="uniFB46" unicode="&#xfb46;" horiz-adv-x="397" 
d="M356 400q0 -8 -1.5 -13.5t-8.5 -13t-14.5 -13t-27 -21.5t-37.5 -31l88 -308h-330v86h200l-163 590q-3 12 -16 12h-20v84h109l120 -421v421h101v-372zM93 206q0 -13 -8.5 -21.5t-21.5 -8.5q-12 0 -20.5 8.5t-8.5 21.5t8.5 21.5t20.5 8.5q13 0 21.5 -8.5t8.5 -21.5z" />
    <glyph glyph-name="uniFB47" unicode="&#xfb47;" horiz-adv-x="430" 
d="M283 75v-75h-101v75l107 346v243q0 24 -22 24h-227v84h337q13 0 13 -8v-336zM213 566q-12 0 -20.5 8.5t-8.5 21.5t8.5 21.5t20.5 8.5q13 0 21.5 -8.5t8.5 -21.5t-8.5 -21.5t-21.5 -8.5zM144 -90h-100v648h100v-648z" />
    <glyph glyph-name="uniFB48" unicode="&#xfb48;" horiz-adv-x="337" 
d="M287 772q9 0 9 -8v-764h-101v660q0 10 -7 19t-20 9h-151v84h270zM73 359q-12 0 -20.5 8.5t-8.5 21.5t8.5 21.5t20.5 8.5q13 0 21.5 -8.5t8.5 -21.5t-8.5 -21.5t-21.5 -8.5z" />
    <glyph glyph-name="uniFB49" unicode="&#xfb49;" horiz-adv-x="606" 
d="M554 771q5 0 7 -0.5t3.5 -2.5t1.5 -6v-658q0 -36 -25.5 -70.5t-64.5 -34.5h-329q-39 0 -64.5 34.5t-25.5 70.5v550q0 8 -8 16.5t-16 13t-8 2.5v85h125q7 0 7 -9v-646q0 -13 10 -22t22 -9h42q12 0 20.5 10.5t8.5 22.5v536q0 8 -8 16.5t-16 13.5t-8 4v84h120q13 0 13 -8
v-647q0 -31 29 -31h43q13 0 22.5 9.5t9.5 21.5v538q0 8 -8 17t-16 14t-8 2v84zM411 359q-12 0 -20.5 8.5t-8.5 21.5t8.5 21.5t20.5 8.5q13 0 21.5 -8.5t8.5 -21.5t-8.5 -21.5t-21.5 -8.5z" />
    <glyph glyph-name="uniFB4A" unicode="&#xfb4a;" horiz-adv-x="441" 
d="M385 772q13 0 13 -8v-764h-100v663q0 25 -25 25h-78q-21 0 -21 -21v-568q0 -46 -23.5 -72.5t-58.5 -26.5h-75v86h28q28 0 28 28v536q0 8 -8.5 16t-17.5 12t-9 2v92h347zM232 359q-12 0 -20.5 8.5t-8.5 21.5t8.5 21.5t20.5 8.5q13 0 21.5 -8.5t8.5 -21.5t-8.5 -21.5
t-21.5 -8.5z" />
    <glyph glyph-name="uniFB4B" unicode="&#xfb4b;" horiz-adv-x="217" 
d="M109 815q-12 0 -20.5 8.5t-8.5 21.5t8.5 21.5t20.5 8.5q13 0 21.5 -8.5t8.5 -21.5t-8.5 -21.5t-21.5 -8.5zM166 772q11 0 11 -8v-764h-101v655q0 11 -8.5 22t-20.5 11h-17v84h136z" />
    <glyph glyph-name="zero.dnom" horiz-adv-x="449" 
d="M303 740q39 0 63.5 -35t24.5 -71v-204q0 -35 -24.5 -70t-63.5 -35h-156q-39 0 -64.5 35t-25.5 70v204q0 36 25.5 71t64.5 35h156zM291 623q0 12 -9.5 21.5t-22.5 9.5h-70q-12 0 -22 -10t-10 -21v-181q0 -12 10 -21.5t22 -9.5h70q13 0 22.5 9.5t9.5 21.5v181z" />
    <glyph glyph-name="one.dnom" horiz-adv-x="377" 
d="M320 411v-86h-250v86h80v212q0 11 -8.5 21.5t-20.5 10.5q-10 0 -64 -31v69l87 47h95q12 0 12 -8v-321h69z" />
    <glyph glyph-name="two.dnom" horiz-adv-x="421" 
d="M364 408v-84h-266q-17 0 -25 8.5t-8 31.5v40q0 30 1.5 43t10 26.5t27.5 21.5l124 59q12 6 18.5 10t12 14t5.5 24q0 22 -13.5 37t-34.5 15h-13q-19 0 -32.5 -15t-13.5 -37v-9h-100v22q0 59 33.5 92t91.5 33h59q58 0 90.5 -35t32.5 -103t-47 -90l-115 -57q-26 -10 -26 -26
q0 -21 31 -21h157z" />
    <glyph glyph-name="three.dnom" 
d="M363 625q0 -41 -21.5 -60.5t-45.5 -21.5q21 0 44 -26.5t23 -69.5v-6q0 -62 -36 -89t-88 -27h-57q-58 0 -91.5 33t-33.5 92v9h100q2 -20 15 -34t31 -14h12h5h6t6.5 0.5t7 1.5t6.5 2.5t6 4.5t4.5 6.5t3.5 9t1 11.5v28q0 16 -11 29t-30 13h-56v37h56q19 0 30 11t11 28v23
q0 38 -46 38h-12q-18 0 -31 -14t-15 -34h-100v9q0 59 33.5 92t91.5 33h57q56 0 90 -31t34 -75v-9z" />
    <glyph glyph-name="four.dnom" horiz-adv-x="459" 
d="M402 512v-86h-46v-101h-101v101h-198v78q0 31 5 41l146 195h137q11 0 11 -8v-220h46zM255 676l-113 -164h113v164z" />
    <glyph glyph-name="five.dnom" horiz-adv-x="421" 
d="M244 595q120 0 120 -126v-6q0 -68 -32.5 -103t-90.5 -35h-59q-56 0 -89.5 31.5t-35.5 86.5h100q6 -32 46 -32h13q21 0 34.5 15t13.5 37v23q0 22 -13.5 37t-34.5 15h-13q-16 0 -29.5 -9.5t-16.5 -22.5h-100v193q0 27 6.5 34t26.5 7h265v-85h-165q-33 0 -33 -32v-46h7
q14 18 65 18h15z" />
    <glyph glyph-name="six.dnom" horiz-adv-x="421" 
d="M241 569q123 0 123 -120v-2q0 -57 -33 -89.5t-90 -32.5h-59q-57 0 -91 30.5t-34 78.5v168q0 68 33 103t91 35h58q57 0 91 -30.5t34 -78.5v-8h-103q-2 11 -14.5 21t-28.5 10h-13q-21 0 -34.5 -15t-13.5 -37v-36l3 -13q23 16 47 16h34zM264 449q0 22 -13.5 37t-34.5 15h-13
q-19 0 -32.5 -15t-13.5 -37v-2q0 -22 13 -37t33 -15h13q21 0 34.5 14.5t13.5 37.5v2z" />
    <glyph glyph-name="seven.dnom" horiz-adv-x="411" 
d="M57 740h298v-72q0 -24 -16 -70l-130 -273h-100l137 286q4 16 -2 30t-24 14h-163v85z" />
    <glyph glyph-name="eight.dnom" horiz-adv-x="442" 
d="M261 740q124 0 124 -106v-9q0 -59 -68 -91q18 -9 28.5 -15t25 -29t14.5 -53v-7q0 -105 -124 -105h-80q-124 0 -124 105v7q0 29 13 50.5t24 29t30 16.5q-67 39 -67 92v9q0 106 124 106h80zM285 634q0 13 -14 24.5t-33 11.5h-33q-19 0 -33.5 -11.5t-14.5 -24.5v-15
q0 -17 11 -30t32 -13h42q21 0 32 13t11 30v15zM285 447q0 17 -11.5 29.5t-31.5 12.5h-42q-19 0 -31 -12.5t-12 -29.5v-17q0 -16 14.5 -25.5t33.5 -9.5h33q18 0 32.5 9.5t14.5 25.5v17z" />
    <glyph glyph-name="nine.dnom" horiz-adv-x="421" 
d="M181 495q-124 0 -124 121v2q0 57 33.5 89.5t90.5 32.5h58q57 0 91 -30.5t34 -78.5v-168q0 -68 -32.5 -103t-90.5 -35h-59q-57 0 -91 30.5t-34 78.5v8h103q3 -11 15.5 -21t27.5 -10h13q21 0 34.5 15t13.5 37v36l-3 13q-23 -17 -46 -17h-34zM157 616q0 -23 13.5 -37.5
t34.5 -14.5h13q20 0 33 15t13 37v2q0 22 -13.5 37t-32.5 15h-13q-21 0 -34.5 -15t-13.5 -37v-2z" />
    <glyph glyph-name="zero.numr" horiz-adv-x="449" 
d="M303 740q39 0 63.5 -35t24.5 -71v-204q0 -35 -24.5 -70t-63.5 -35h-156q-39 0 -64.5 35t-25.5 70v204q0 36 25.5 71t64.5 35h156zM291 623q0 12 -9.5 21.5t-22.5 9.5h-70q-12 0 -22 -10t-10 -21v-181q0 -12 10 -21.5t22 -9.5h70q13 0 22.5 9.5t9.5 21.5v181z" />
    <glyph glyph-name="one.numr" horiz-adv-x="377" 
d="M320 411v-86h-250v86h80v212q0 11 -8.5 21.5t-20.5 10.5q-10 0 -64 -31v69l87 47h95q12 0 12 -8v-321h69z" />
    <glyph glyph-name="two.numr" horiz-adv-x="421" 
d="M364 408v-84h-266q-17 0 -25 8.5t-8 31.5v40q0 30 1.5 43t10 26.5t27.5 21.5l124 59q12 6 18.5 10t12 14t5.5 24q0 22 -13.5 37t-34.5 15h-13q-19 0 -32.5 -15t-13.5 -37v-9h-100v22q0 59 33.5 92t91.5 33h59q58 0 90.5 -35t32.5 -103t-47 -90l-115 -57q-26 -10 -26 -26
q0 -21 31 -21h157z" />
    <glyph glyph-name="three.numr" 
d="M363 625q0 -41 -21.5 -60.5t-45.5 -21.5q21 0 44 -26.5t23 -69.5v-6q0 -62 -36 -89t-88 -27h-57q-58 0 -91.5 33t-33.5 92v9h100q2 -20 15 -34t31 -14h12h5h6t6.5 0.5t7 1.5t6.5 2.5t6 4.5t4.5 6.5t3.5 9t1 11.5v28q0 16 -11 29t-30 13h-56v37h56q19 0 30 11t11 28v23
q0 38 -46 38h-12q-18 0 -31 -14t-15 -34h-100v9q0 59 33.5 92t91.5 33h57q56 0 90 -31t34 -75v-9z" />
    <glyph glyph-name="four.numr" horiz-adv-x="459" 
d="M402 512v-86h-46v-101h-101v101h-198v78q0 31 5 41l146 195h137q11 0 11 -8v-220h46zM255 676l-113 -164h113v164z" />
    <glyph glyph-name="five.numr" horiz-adv-x="421" 
d="M244 595q120 0 120 -126v-6q0 -68 -32.5 -103t-90.5 -35h-59q-56 0 -89.5 31.5t-35.5 86.5h100q6 -32 46 -32h13q21 0 34.5 15t13.5 37v23q0 22 -13.5 37t-34.5 15h-13q-16 0 -29.5 -9.5t-16.5 -22.5h-100v193q0 27 6.5 34t26.5 7h265v-85h-165q-33 0 -33 -32v-46h7
q14 18 65 18h15z" />
    <glyph glyph-name="six.numr" horiz-adv-x="421" 
d="M241 569q123 0 123 -120v-2q0 -57 -33 -89.5t-90 -32.5h-59q-57 0 -91 30.5t-34 78.5v168q0 68 33 103t91 35h58q57 0 91 -30.5t34 -78.5v-8h-103q-2 11 -14.5 21t-28.5 10h-13q-21 0 -34.5 -15t-13.5 -37v-36l3 -13q23 16 47 16h34zM264 449q0 22 -13.5 37t-34.5 15h-13
q-19 0 -32.5 -15t-13.5 -37v-2q0 -22 13 -37t33 -15h13q21 0 34.5 14.5t13.5 37.5v2z" />
    <glyph glyph-name="seven.numr" horiz-adv-x="411" 
d="M57 740h298v-72q0 -24 -16 -70l-130 -273h-100l137 286q4 16 -2 30t-24 14h-163v85z" />
    <glyph glyph-name="eight.numr" horiz-adv-x="442" 
d="M261 740q124 0 124 -106v-9q0 -59 -68 -91q18 -9 28.5 -15t25 -29t14.5 -53v-7q0 -105 -124 -105h-80q-124 0 -124 105v7q0 29 13 50.5t24 29t30 16.5q-67 39 -67 92v9q0 106 124 106h80zM285 634q0 13 -14 24.5t-33 11.5h-33q-19 0 -33.5 -11.5t-14.5 -24.5v-15
q0 -17 11 -30t32 -13h42q21 0 32 13t11 30v15zM285 447q0 17 -11.5 29.5t-31.5 12.5h-42q-19 0 -31 -12.5t-12 -29.5v-17q0 -16 14.5 -25.5t33.5 -9.5h33q18 0 32.5 9.5t14.5 25.5v17z" />
    <glyph glyph-name="nine.numr" horiz-adv-x="421" 
d="M181 495q-124 0 -124 121v2q0 57 33.5 89.5t90.5 32.5h58q57 0 91 -30.5t34 -78.5v-168q0 -68 -32.5 -103t-90.5 -35h-59q-57 0 -91 30.5t-34 78.5v8h103q3 -11 15.5 -21t27.5 -10h13q21 0 34.5 15t13.5 37v36l-3 13q-23 -17 -46 -17h-34zM157 616q0 -23 13.5 -37.5
t34.5 -14.5h13q20 0 33 15t13 37v2q0 22 -13.5 37t-32.5 15h-13q-21 0 -34.5 -15t-13.5 -37v-2z" />
  </font>
</defs>
</svg>
