<svg width="165" height="159" viewBox="0 0 165 159" fill="none" xmlns="http://www.w3.org/2000/svg">
<g clip-path="url(#clip0_3265_1557)">
<path d="M22.8324 115.37C22.8617 115.805 22.8482 116.309 22.7771 116.703C22.739 116.979 22.5731 117.102 22.297 117.064L21.6245 116.998C21.4037 116.967 21.3186 116.816 21.3441 116.608L21.3925 116.234C21.4536 115.792 21.4344 115.333 21.3549 114.878C21.2805 114.411 21.1357 113.974 20.9407 113.59L20.7681 113.258C20.6731 113.059 20.7136 112.886 20.8995 112.786L21.5075 112.506C21.7637 112.376 21.9569 112.439 22.0744 112.69C22.2619 113.057 22.4443 113.509 22.564 113.936L28.9591 112.85C29.1323 112.818 29.3179 112.936 29.3577 113.127L29.4792 113.875C29.519 114.066 29.3831 114.259 29.1973 114.287L22.8022 115.373L22.8324 115.37Z" fill="#4A5A72"/>
<path d="M28.6383 106.149L28.6895 106.927C28.6992 107.121 28.5483 107.279 28.3675 107.293L21.8582 107.722L21.5209 109.539C21.4805 109.712 21.3146 109.835 21.1113 109.797L20.3736 109.675C20.1704 109.637 20.0628 109.433 20.1009 109.23L20.5394 106.944C20.6029 106.532 20.8417 106.337 21.2585 106.315L28.2623 105.852C28.4431 105.837 28.606 105.976 28.6282 106.174L28.6383 106.149Z" fill="#4A5A72"/>
<path d="M28.7768 97.9395L28.7427 98.7127C28.7348 98.9135 28.5689 99.0362 28.3857 99.0208L22.6985 98.7451C22.1815 98.7266 21.7364 99.1451 21.7128 99.6748L21.5509 103.049C21.5405 103.219 21.372 103.385 21.1712 103.377L20.3982 103.343C20.1974 103.335 20.0622 103.164 20.0776 102.981L20.2396 99.607C20.2998 98.2615 21.4288 97.2291 22.7741 97.2891L28.4613 97.5649C28.6319 97.5752 28.7973 97.7437 28.7768 97.9395Z" fill="#4A5A72"/>
<path d="M29.5803 92.4634L29.4483 93.2264C29.4153 93.4171 29.2369 93.5348 29.0587 93.5069L22.6225 92.4491L21.8864 94.1349C21.8158 94.3105 21.6148 94.3754 21.4318 94.2872L20.7295 94.0049C20.5464 93.9167 20.4916 93.6907 20.5673 93.5025L21.5101 91.3752C21.6664 90.9863 21.9403 90.8487 22.3593 90.9297L29.2873 92.0687C29.4655 92.0966 29.6007 92.2676 29.5677 92.4583L29.5803 92.4634Z" fill="#4A5A72"/>
<path d="M33.4502 79.5768L33.1678 80.2793C33.1097 80.4599 32.9062 80.5675 32.7432 80.502L27.4182 78.492C26.9416 78.3004 26.3864 78.5581 26.2022 79.0523L24.9939 82.2387C24.9233 82.4143 24.7299 82.4968 24.5367 82.4337L23.8094 82.1412C23.6288 82.0832 23.5412 81.9023 23.5993 81.7216L24.8127 78.5228C25.292 77.2583 26.6712 76.6179 27.9353 77.0971L33.2603 79.107C33.4234 79.1725 33.5133 79.3836 33.4553 79.5642L33.4502 79.5768ZM29.2804 82.5924L31.6206 83.475C31.7836 83.5406 31.8837 83.7265 31.8306 83.8947L31.5331 84.6348C31.4875 84.8205 31.2816 84.8979 31.1135 84.8449L28.7482 83.9522C28.3971 83.811 27.0078 83.1358 27.0078 83.1358C26.8448 83.0703 26.7799 82.8693 26.863 82.6987L27.1806 81.9813C27.2613 81.7806 27.4548 81.698 27.6629 81.7963C27.6629 81.7963 28.9794 82.4714 29.2854 82.5798L29.2804 82.5924Z" fill="#4A5A72"/>
<path d="M37.1912 72.2666L36.8159 72.9464C36.7202 73.1119 36.5168 73.1467 36.3589 73.0686L31.364 70.3462C30.9076 70.1044 30.3275 70.2792 30.0806 70.7482L28.4661 73.713C28.3755 73.8659 28.1569 73.9384 27.9915 73.8427L27.312 73.4675C27.1465 73.3718 27.0866 73.1583 27.1773 73.0053L28.7918 70.0406C29.4416 68.8592 30.8908 68.4073 32.0718 69.057L37.0666 71.7794C37.2246 71.8575 37.2919 72.0886 37.1962 72.2541L37.1912 72.2666Z" fill="#4A5A72"/>
<path d="M36.9168 60.484C40.0146 62.9244 41.6844 65.257 39.2672 69.2397C39.096 69.5205 38.7593 69.7057 38.3808 69.4515L32.1515 65.1254C31.971 64.9945 31.9238 64.7861 32.0597 64.593L32.4422 64.0765C32.5906 63.8884 32.7438 63.8334 32.9569 63.992L35.5739 65.8166C35.9016 65.074 35.7018 64.5565 34.624 63.7588L33.7066 63.0694C33.4936 62.9108 33.4487 62.7325 33.5972 62.5445L33.9746 62.0405C34.1231 61.8525 34.2939 61.79 34.5069 61.9485L35.5095 62.7159C37.1662 63.9941 37.2977 64.7902 36.554 66.5312L38.4817 67.86C39.8292 65.4146 38.9261 63.7837 36.0662 61.6574L35.2265 61.0284C35.0135 60.8699 34.9711 60.7217 35.1296 60.5085L35.5674 59.9268C35.6983 59.7463 35.9067 59.699 36.1123 59.8399L36.9419 60.494L36.9168 60.484Z" fill="#4A5A72"/>
<path d="M47.4233 50.1525L49.9399 57.2992C50.0248 57.5228 49.9668 57.7034 49.708 57.8034L48.9319 58.1034C48.7384 58.1859 48.5428 58.0927 48.463 57.8565L46.3017 51.2753L43.1088 53.9988C42.9731 54.1191 42.7472 54.1011 42.6195 53.9478L40.1525 51.0615C40.0248 50.9081 40.0503 50.6998 40.1861 50.5795L40.7819 50.0759C40.9177 49.9556 41.131 49.9686 41.2638 50.1094L42.9943 52.1458L45.8805 49.6779C46.2777 49.3421 46.8625 49.3733 47.2056 49.7881C47.2983 49.8836 47.3583 50.0243 47.4108 50.1474L47.4233 50.1525Z" fill="#4A5A72"/>
<path d="M55.6866 44.7444C57.7033 48.1345 58.4159 50.9274 54.7358 53.7757C54.4794 53.9786 54.0953 54.0281 53.8349 53.6612L49.5747 47.3726C49.4496 47.1765 49.4751 46.9682 49.6836 46.8481L50.2315 46.5C50.4451 46.3673 50.5982 46.3852 50.7433 46.6038L52.5355 49.2479C53.1139 48.679 53.1049 48.1217 52.3867 46.9732L51.7736 45.998C51.6284 45.7794 51.6564 45.6012 51.8574 45.4634L52.3877 45.1229C52.6013 44.9902 52.7794 45.0181 52.9121 45.2317L53.5702 46.3124C54.6612 48.0917 54.4965 48.8998 53.1812 50.2507L54.5029 52.1811C56.6549 50.3797 56.3772 48.5339 54.4703 45.5231L53.9122 44.6284C53.767 44.4097 53.7899 44.2441 54.0035 44.1114L54.6268 43.7208C54.8228 43.5956 55.0311 43.6211 55.1637 43.8347L55.6991 44.7494L55.6866 44.7444Z" fill="#4A5A72"/>
<path d="M71.0736 45.7145L70.3427 45.9743C70.1543 46.0443 69.9813 45.931 69.9189 45.7602L67.9963 40.397C67.829 39.9071 67.2748 39.6551 66.7624 39.8426L63.58 40.982C63.4092 41.0444 63.2011 40.9462 63.1437 40.7628L62.884 40.0318C62.8141 39.8434 62.9199 39.6528 63.0907 39.5903L66.2731 38.4509C67.5465 38.0012 68.9208 38.6412 69.3878 39.9073L71.3104 45.2705C71.3728 45.4413 71.2745 45.6495 71.0912 45.707L71.0736 45.7145Z" fill="#4A5A72"/>
<path d="M76.4576 44.3572L75.7017 44.5341C75.5109 44.574 75.3254 44.4557 75.293 44.2824L73.8116 37.9307L71.9768 37.8925C71.7886 37.8896 71.6608 37.7363 71.6562 37.5304L71.6677 36.7773C71.6756 36.5764 71.8516 36.4286 72.0523 36.4365L74.374 36.4957C74.7932 36.5039 75.0212 36.6976 75.1209 37.102L76.7144 43.9358C76.7592 44.1142 76.6534 44.3048 76.4626 44.3446L76.4576 44.3572Z" fill="#4A5A72"/>
<path d="M78.9808 38.7687C78.8993 38.0656 78.9004 37.4831 79.1553 36.7405L78.2673 36.4126C78.1043 36.347 78.0318 36.2013 78.0949 36.0081L78.3474 35.2353C78.4129 35.0722 78.6013 35.0022 78.7694 35.0552L79.3313 35.252L83.0996 34.8291C83.7549 34.7574 84.3514 35.2304 84.4304 35.9034L85.124 42.1131C85.1957 42.6956 84.7958 43.1469 84.2485 43.2037L79.4282 43.7428C79.2299 43.765 79.072 43.6141 79.0522 43.4459L78.9709 42.67C78.9487 42.4716 79.082 42.3212 79.2678 42.2939L83.6186 41.7992L82.9964 36.3177L80.5511 36.6022C80.2286 37.2594 80.2903 37.7943 80.3594 38.4195L80.4039 38.8163L81.4382 38.7076C81.6365 38.6853 81.797 38.7935 81.8192 38.9919L81.8981 39.7377C81.9128 39.9184 81.787 40.0864 81.6012 40.1137L79.7559 40.319C79.3894 40.361 79.1462 40.205 79.0868 39.7731L78.9808 38.7687V38.7687Z" fill="#4A5A72"/>
<path d="M90.4247 39.7977C90.3015 39.923 90.0981 39.9578 89.9528 39.812L89.4267 39.309C89.2688 39.1581 89.3244 38.9473 89.4301 38.8295C90.3304 37.8946 90.3739 37.4603 90.3891 36.0821L88.0272 36.0504C87.8515 36.0526 87.6861 35.8842 87.689 35.6959L87.698 34.9126C87.7009 34.7243 87.8643 34.5715 88.04 34.5692L90.924 34.6068C91.3607 34.6075 91.8621 34.9548 91.8484 35.5322L91.8366 36.5038C91.8168 37.6762 91.6871 38.5421 90.4122 39.7927L90.4247 39.7977Z" fill="#4A5A72"/>
<path d="M101.647 38.4076C101.204 41.5375 99.4157 43.7035 95.6911 43.5466C95.4 43.5461 95.0614 43.4099 95.1001 42.8426L95.7225 36.2586L95.0255 35.818C94.8851 35.7324 94.8352 35.5667 94.9536 35.3811L95.4067 34.689C95.5099 34.541 95.7082 34.5187 95.8561 34.6219L96.3499 34.9516L100.786 35.5843C101.461 35.6808 101.93 36.2917 101.833 36.9669L101.63 38.4151L101.647 38.4076ZM100.37 37.0196L97.1426 36.5673L96.6351 42.1046C99.0575 41.9857 99.9141 40.2901 100.207 38.2219L100.377 37.0372L100.37 37.0196Z" fill="#4A5A72"/>
<path d="M110.706 39.5047L106.101 45.5221C105.965 45.7152 105.769 45.7676 105.561 45.5965L104.897 45.1109C104.724 44.9976 104.694 44.7816 104.843 44.5936L109.175 39.1807L105.149 37.999C104.981 37.946 104.868 37.755 104.919 37.5567L105.992 33.9082C106.051 33.7276 106.249 33.6325 106.422 33.673L107.167 33.8851C107.335 33.9381 107.453 34.1166 107.39 34.3098L106.634 36.8768L110.282 37.9499C110.779 38.0914 111.069 38.6015 110.917 39.1234C110.872 39.2363 110.811 39.3869 110.728 39.4846L110.706 39.5047Z" fill="#4A5A72"/>
<path d="M118.043 47.304L116.845 49.4887C116.754 49.6416 116.548 49.7191 116.395 49.6285L115.703 49.2482C115.537 49.1525 115.478 48.939 115.568 48.786L116.795 46.5688C116.969 46.2453 117.847 44.9664 117.847 44.9664C117.95 44.8184 118.141 44.7786 118.302 44.8868L118.966 45.2997C119.139 45.4129 119.204 45.6139 119.08 45.812C119.08 45.812 118.227 47.0282 118.069 47.3141L118.043 47.304ZM120.434 51.8647L119.767 51.4945C119.602 51.3988 119.53 51.1803 119.62 51.0273L122.368 46.041C122.622 45.5896 122.448 45.0093 121.984 44.75L119 43.1131C118.835 43.0174 118.775 42.8039 118.871 42.6383L119.246 41.9586C119.341 41.7931 119.542 41.7282 119.708 41.8238L122.692 43.4608C123.873 44.1105 124.307 45.5673 123.657 46.7487L120.909 51.7349C120.818 51.8879 120.6 51.9604 120.434 51.8647V51.8647Z" fill="#4A5A72"/>
<path d="M127.123 56.6058L126.496 56.1353C126.341 56.0145 126.336 55.8086 126.439 55.6607L129.846 51.0998C130.158 50.6861 130.067 50.0809 129.628 49.7588L126.928 47.7408C126.781 47.6376 126.756 47.4091 126.864 47.2486L127.335 46.6218C127.455 46.4663 127.666 46.4491 127.814 46.5523L130.514 48.5703C131.586 49.3806 131.825 50.8898 131.014 51.9629L127.607 56.5238C127.504 56.6717 127.276 56.6964 127.115 56.5882L127.123 56.6058Z" fill="#4A5A72"/>
<path d="M134.941 54.4452C134.653 54.1108 134.382 53.6961 134.19 53.3418C134.055 53.0981 134.118 52.9049 134.361 52.7697L134.939 52.4192C135.13 52.3066 135.293 52.3721 135.401 52.5757L135.574 52.9073C135.781 53.2968 136.072 53.6613 136.407 53.9858C136.743 54.3102 137.117 54.5769 137.515 54.781L137.856 54.9473C138.052 55.0405 138.132 55.2038 138.021 55.407L137.699 55.9914C137.568 56.2447 137.367 56.3096 137.126 56.1837C136.76 56.0073 136.344 55.738 135.988 55.4638L131.486 60.1383C131.363 60.2636 131.152 60.2808 131.002 60.1475L130.455 59.6218C130.318 59.4936 130.311 59.2576 130.434 59.1323L134.936 54.4578L134.941 54.4452Z" fill="#4A5A72"/>
<path d="M140.399 58.3327C140.593 58.1774 140.882 58.2206 141.042 58.4016L143.624 61.6546C144.184 62.361 144.087 63.4002 143.376 63.9739L138.318 68.0022C138.187 68.11 137.949 68.087 137.846 67.9437L137.353 67.3228C137.25 67.1795 137.276 66.9712 137.424 66.8559L142.499 62.8201C142.562 62.7725 142.58 62.6922 142.525 62.6117L140.539 60.123L135.351 64.259C135.215 64.3793 134.981 64.3438 134.866 64.1954L134.393 63.5971C134.265 63.4438 134.301 63.2104 134.432 63.1026L140.417 58.3252L140.399 58.3327Z" fill="#4A5A72"/>
</g>
<defs>
<clipPath id="clip0_3265_1557">
<rect width="130.047" height="118.54" fill="white" transform="translate(44.2217) rotate(21.9041)"/>
</clipPath>
</defs>
</svg>
