<svg width="77" height="170" viewBox="0 0 77 170" fill="none" xmlns="http://www.w3.org/2000/svg">
<g clip-path="url(#clip0_3673_2189)">
<path fill-rule="evenodd" clip-rule="evenodd" d="M21.9118 48.5519C-1.66509 71.6687 22.4258 82.7546 27.7406 97.5699C30.2372 104.529 27.0301 108.889 23.4365 113.204C38.1264 110.11 40.8497 95.5255 38.1091 87.3074C34.0123 75.0219 19.8277 64.4129 21.9118 48.5497M13.1566 81.2299C7.24993 88.2654 7.63866 94.0094 8.99924 97.5036C11.3165 103.455 22.9117 106.149 15.1391 114.299C20.4454 112.218 23.8727 109.813 24.9677 106.284C27.8141 97.1144 15.7395 89.9228 13.1566 81.2277V81.2299ZM41.4954 0C33.4572 6.96714 28.3497 15.2409 28.9695 25.5954C29.2416 30.1396 30.8462 33.7536 32.9713 36.9293C26.0129 41.7708 23.5423 50.5941 25.9157 58.5193C29.4727 70.3878 41.2535 78.6038 41.0441 92.2772C49.0218 82.3119 48.5855 75.4496 45.7413 68.7027C42.1606 60.2151 32.2413 48.6331 35.1223 39.6836C40.7806 46.5802 48.0327 52.6086 45.5232 63.0871C54.6541 56.3637 59.2477 48.7272 54.1488 37.9942C48.7216 26.5684 35.4311 15.9316 41.4954 0ZM62.6513 47.6195C50.2549 58.7652 47.7929 66.6391 50.1167 76.2643C50.6588 78.5097 51.7861 81.0374 52.2224 83.1545C52.4535 84.275 52.4211 85.2694 51.8596 86.0649C50.5681 87.8976 48.9721 88.8172 47.3934 89.7538C41.7027 93.1305 41.72 96.2655 39.4286 102.027C38.1091 105.343 36.1957 108.853 31.9951 112.069C37.1891 112.826 42.2621 112.131 46.711 109.261C51.3477 106.271 52.9264 102.448 53.7039 97.138C54.2049 93.7057 54.2373 90.7568 54.1769 87.5533C59.509 100.416 59.2067 103.551 54.1185 113.027C73.821 98.5878 71.7348 86.5953 67.1779 74.8914C64.3985 67.7553 60.7832 61.8147 62.6491 47.6152L62.6513 47.6195Z" fill="#C3A13F"/>
<path fill-rule="evenodd" clip-rule="evenodd" d="M48.6892 114.449L51.5291 129.643L44.0481 133.591L41.9317 128.324L46.5598 126.346L44.5017 115.208L48.6892 114.449ZM57.6993 127.535L55.788 116.992L60.483 116.235L64.0313 134.132L59.6624 134.78L59.2801 132.562L52.5096 134.78L52.0734 129.536L57.6971 127.537L57.6993 127.535ZM9.15258 141.83L10.727 144.123C15.4825 140.703 17.4435 139.078 21.672 134.912L24.8554 138.535C19.696 143.421 15.3378 147.245 9.23033 151.308L0 136.392L3.38632 133.636L6.31696 137.801C11.5217 134.41 13.9513 131.726 18.2684 126.735L21.5468 130.351C17.3808 135.199 14.2234 137.964 9.15474 141.83H9.15258ZM20.2704 158.172H16.2837L15.9598 162.689L20.2337 162.653L20.2704 158.172ZM9.74216 168.499L11.3101 150.675L16.4781 150.801L16.4306 152.636L24.9137 152.704L25.1771 168.358L9.74216 168.499ZM28.9414 150.155L31.2954 153.658L37.2949 148.412L40.2472 152.268L34.2304 158.023L36.6794 161.665C42.3031 157.289 45.2554 153.164 49.2745 147.534L53.1554 150.756C47.564 157.847 42.2383 164.01 35.6147 169.994C32.0988 164.271 28.4404 158.429 25.1124 152.619L28.9436 150.149L28.9414 150.155ZM52.0345 153.228L51.378 158.318L60.455 159.092L60.6299 168.831H65.7245L65.1047 141.291L68.3809 141.715L66.083 146.017L69.709 148.4L76.9978 138.265L56.9239 134.959L56.2782 140.152L60.1224 140.648L60.3599 153.93L52.0323 153.228H52.0345ZM48.484 168.215L50.6696 159.346L56.4035 160.213L54.6563 169.081L48.484 168.215ZM49.5531 136.095H54.6153V145.303H49.5531V136.095ZM40.5711 136.813L32.4919 135.96L32.1334 140.973L40.4998 141.862L40.6445 150.893L45.5988 150.857L45.4908 142.395L47.5727 142.502L47.7519 137.844L45.4173 137.523V134.893L40.6057 134.964L40.5689 136.813H40.5711ZM11.5023 123.444L12.5691 117.785L25.7559 120.957L25.8186 117.847L31.0298 118.033L30.9672 149.621L25.3154 149.559L25.8186 126.801L11.5023 123.444ZM43.9164 120.418L33.2326 117.832L32.1398 122.862L35.5586 123.662L35.3685 134.805L40.0226 134.617L40.3551 124.65L43.5363 125.12L43.9164 120.418Z" fill="white"/>
</g>
<defs>
<clipPath id="clip0_3673_2189">
<rect width="77" height="170" fill="white"/>
</clipPath>
</defs>
</svg>
