<svg width="56" height="124" viewBox="0 0 56 124" fill="none" xmlns="http://www.w3.org/2000/svg">
<g clip-path="url(#clip0_13_1551)">
<path fill-rule="evenodd" clip-rule="evenodd" d="M15.936 35.4143C-1.21084 52.276 16.3098 60.3622 20.1751 71.1687C21.9908 76.2443 19.6584 79.4248 17.0448 82.5725C27.7284 80.3155 29.709 69.6775 27.7158 63.683C24.7363 54.7218 14.4203 46.9835 15.936 35.4127M9.56854 59.25C5.27281 64.3819 5.55552 68.5715 6.54503 71.1203C8.23034 75.4613 16.6632 77.4267 11.0104 83.3712C14.8695 81.8535 17.3621 80.0987 18.1584 77.5249C20.2285 70.8364 11.447 65.5907 9.56854 59.2485V59.25ZM30.1786 0C24.3327 5.08192 20.6181 11.1169 21.0688 18.6696C21.2667 21.9842 22.4337 24.6203 23.9793 26.9366C18.9186 30.4681 17.1218 36.9039 18.8479 42.6847C21.4348 51.3417 30.0027 57.3345 29.8504 67.3081C35.6523 60.0393 35.3351 55.0338 33.2665 50.1126C30.6624 43.9216 23.4484 35.4736 25.5436 28.9457C29.6587 33.9761 34.933 38.3733 33.1079 46.0164C39.7486 41.1124 43.0894 35.5422 39.3811 27.7134C35.434 19.3793 25.7682 11.6207 30.1786 0ZM45.5647 34.7342C36.5492 42.864 34.7586 48.6073 36.4487 55.6281C36.8429 57.2659 37.6628 59.1096 37.98 60.6539C38.1481 61.4712 38.1245 62.1965 37.7162 62.7768C36.7769 64.1136 35.6162 64.7843 34.4681 65.4675C30.3294 67.9305 30.342 70.2172 28.6755 74.4193C27.7158 76.8386 26.3242 79.3983 23.2693 81.7443C27.0467 82.2965 30.7362 81.7895 33.9717 79.6962C37.3439 77.5156 38.4921 74.7266 39.0575 70.8536C39.4219 68.35 39.4455 66.1991 39.4015 63.8624C43.2794 73.2448 43.0595 75.5315 39.3591 82.4431C53.6881 71.9111 52.1709 63.1636 48.8568 54.6267C46.8354 49.4215 44.2061 45.0884 45.5631 34.7311L45.5647 34.7342Z" fill="#CC8E15"/>
<path fill-rule="evenodd" clip-rule="evenodd" d="M35.4103 83.4844L37.4757 94.5669L32.035 97.4464L30.4958 93.6045L33.8617 92.1617L32.3648 84.0381L35.4103 83.4844ZM41.9631 93.029L40.5731 85.339L43.9877 84.7868L46.5682 97.841L43.3908 98.3137L43.1128 96.6961L38.1888 98.3137L37.8715 94.489L41.9615 93.0305L41.9631 93.029ZM6.65642 103.456L7.80142 105.129C11.26 102.634 12.6861 101.449 15.7615 98.4104L18.0766 101.053C14.3243 104.617 11.1548 107.406 6.71296 110.37L0 99.4898L2.46278 97.4791L4.59415 100.518C8.37942 98.0438 10.1464 96.0862 13.2861 92.4456L15.6704 95.0832C12.6406 98.6194 10.3443 100.636 6.65799 103.456H6.65642ZM14.7421 115.377H11.8427L11.6071 118.671L14.7154 118.644L14.7421 115.377ZM7.08521 122.909L8.2255 109.908L11.9841 110L11.9495 111.338L18.119 111.388L18.3107 122.806L7.08521 122.909ZM21.0483 109.529L22.7603 112.084L27.1236 108.258L29.2707 111.07L24.8948 115.267L26.6759 117.924C30.7659 114.732 32.913 111.723 35.836 107.616L38.6584 109.967C34.592 115.139 30.7188 119.635 25.9016 123.999C23.3446 119.825 20.6839 115.564 18.2635 111.326L21.0499 109.524L21.0483 109.529ZM37.8433 111.77L37.3658 115.483L43.9672 116.047L44.0945 123.151H47.7996L47.3489 103.063L49.7315 103.372L48.0604 106.511L50.6975 108.248L55.9984 100.856L41.3992 98.4447L40.9296 102.232L43.7254 102.594L43.8981 112.282L37.8417 111.77H37.8433ZM35.2611 122.702L36.8506 116.233L41.0207 116.865L39.75 123.333L35.2611 122.702ZM36.0386 99.2729H39.7202V105.99H36.0386V99.2729ZM29.5063 99.797L23.6304 99.1747L23.3697 102.831L29.4544 103.48L29.5597 110.067L33.1627 110.04L33.0842 103.868L34.5983 103.946L34.7287 100.549L33.0308 100.315V98.3963L29.5314 98.4478L29.5047 99.797H29.5063ZM8.36529 90.045L9.14119 85.9177L18.7316 88.2309L18.7771 85.9629L22.5671 86.0986L22.5216 109.139L18.4112 109.094L18.7771 92.4939L8.36529 90.045ZM31.9392 87.8378L24.1692 85.952L23.3744 89.6207L25.8608 90.2041L25.7226 98.3324L29.1073 98.1951L29.3492 90.9248L31.6628 91.2679L31.9392 87.8378Z" fill="#453312"/>
</g>
<defs>
<clipPath id="clip0_13_1551">
<rect width="56" height="124" fill="white"/>
</clipPath>
</defs>
</svg>
