<svg width="18" height="21" viewBox="0 0 18 21" fill="none" xmlns="http://www.w3.org/2000/svg">
<path d="M15.695 15.6368L5.88266 5.82452H6.83923C7.42179 5.79647 7.98594 5.61157 8.47234 5.28934L14.9659 0.520324C15.3651 0.226346 15.695 0.39287 15.695 0.88915L15.695 15.6368ZM15.695 17.9881L3.52835 5.82442L1.23802 3.53408L0.0625 4.7096L1.78171 6.42881C1.74496 6.52436 1.7262 6.62589 1.7262 6.7284V12.8115C1.72698 13.0509 1.82233 13.2805 1.99175 13.4497C2.16118 13.6192 2.39056 13.7147 2.63021 13.7153H6.83914C7.42171 13.7433 7.98585 13.9282 8.47226 14.2505L12.7255 17.3726L15.9778 20.625L17.1533 19.4466L15.695 17.9881Z" fill="#DA725D"/>
<path d="M15.695 15.6368L5.88266 5.82452H6.83923C7.42179 5.79647 7.98594 5.61157 8.47234 5.28934L14.9659 0.520324C15.3651 0.226346 15.695 0.39287 15.695 0.88915L15.695 15.6368ZM15.695 17.9881L3.52835 5.82442L1.23802 3.53408L0.0625 4.7096L1.78171 6.42881C1.74496 6.52436 1.7262 6.62589 1.7262 6.7284V12.8115C1.72698 13.0509 1.82233 13.2805 1.99175 13.4497C2.16118 13.6192 2.39056 13.7147 2.63021 13.7153H6.83914C7.42171 13.7433 7.98585 13.9282 8.47226 14.2505L12.7255 17.3726L15.9778 20.625L17.1533 19.4466L15.695 17.9881Z" fill="#D5BE5C"/>
<path d="M15.695 15.6368L5.88266 5.82452H6.83923C7.42179 5.79647 7.98594 5.61157 8.47234 5.28934L14.9659 0.520324C15.3651 0.226346 15.695 0.39287 15.695 0.88915L15.695 15.6368ZM15.695 17.9881L3.52835 5.82442L1.23802 3.53408L0.0625 4.7096L1.78171 6.42881C1.74496 6.52436 1.7262 6.62589 1.7262 6.7284V12.8115C1.72698 13.0509 1.82233 13.2805 1.99175 13.4497C2.16118 13.6192 2.39056 13.7147 2.63021 13.7153H6.83914C7.42171 13.7433 7.98585 13.9282 8.47226 14.2505L12.7255 17.3726L15.9778 20.625L17.1533 19.4466L15.695 17.9881Z" fill="#706C69"/>
</svg>
