<svg width="19" height="20" viewBox="0 0 19 20" fill="none" xmlns="http://www.w3.org/2000/svg">
<path d="M14.8802 0.553053V19.4525C14.8802 19.981 14.5317 20.1582 14.1036 19.8453L7.18769 14.7749C6.66984 14.4316 6.06875 14.2346 5.44835 14.205H0.968538C0.713939 14.2058 0.469432 14.1061 0.287968 13.9273C0.106493 13.7487 0.00309014 13.5056 0 13.2513V6.75457C0.00082395 6.49956 0.102375 6.25525 0.282822 6.07479C0.463063 5.89435 0.707569 5.79279 0.962601 5.79197H5.45127C6.07194 5.76231 6.67277 5.56538 7.19061 5.22198L14.1039 0.154462C14.5319 -0.158434 14.8805 0.0187168 14.8805 0.553254L14.8802 0.553053ZM16.5813 12.3209H16.581C17.4073 12.3209 18.1705 11.8801 18.5837 11.1647C18.9967 10.4493 18.9967 9.56789 18.5837 8.85246C18.1705 8.13709 17.4073 7.69645 16.581 7.69645" fill="#DA725D"/>
<path d="M14.8802 0.553053V19.4525C14.8802 19.981 14.5317 20.1582 14.1036 19.8453L7.18769 14.7749C6.66984 14.4316 6.06875 14.2346 5.44835 14.205H0.968538C0.713939 14.2058 0.469432 14.1061 0.287968 13.9273C0.106493 13.7487 0.00309014 13.5056 0 13.2513V6.75457C0.00082395 6.49956 0.102375 6.25525 0.282822 6.07479C0.463063 5.89435 0.707569 5.79279 0.962601 5.79197H5.45127C6.07194 5.76231 6.67277 5.56538 7.19061 5.22198L14.1039 0.154462C14.5319 -0.158434 14.8805 0.0187168 14.8805 0.553254L14.8802 0.553053ZM16.5813 12.3209H16.581C17.4073 12.3209 18.1705 11.8801 18.5837 11.1647C18.9967 10.4493 18.9967 9.56789 18.5837 8.85246C18.1705 8.13709 17.4073 7.69645 16.581 7.69645" fill="#D5BE5C"/>
<path d="M14.8802 0.553053V19.4525C14.8802 19.981 14.5317 20.1582 14.1036 19.8453L7.18769 14.7749C6.66984 14.4316 6.06875 14.2346 5.44835 14.205H0.968538C0.713939 14.2058 0.469432 14.1061 0.287968 13.9273C0.106493 13.7487 0.00309014 13.5056 0 13.2513V6.75457C0.00082395 6.49956 0.102375 6.25525 0.282822 6.07479C0.463063 5.89435 0.707569 5.79279 0.962601 5.79197H5.45127C6.07194 5.76231 6.67277 5.56538 7.19061 5.22198L14.1039 0.154462C14.5319 -0.158434 14.8805 0.0187168 14.8805 0.553254L14.8802 0.553053ZM16.5813 12.3209H16.581C17.4073 12.3209 18.1705 11.8801 18.5837 11.1647C18.9967 10.4493 18.9967 9.56789 18.5837 8.85246C18.1705 8.13709 17.4073 7.69645 16.581 7.69645" fill="#706C69"/>
</svg>
